G04 #@! TF.GenerationSoftware,KiCad,Pcbnew,(5.1.2-1)-1*
G04 #@! TF.CreationDate,2019-09-12T01:02:42-04:00*
G04 #@! TF.ProjectId,mouserial-keymouse,6d6f7573-6572-4696-916c-2d6b65796d6f,rev?*
G04 #@! TF.SameCoordinates,Original*
G04 #@! TF.FileFunction,Profile,NP*
%FSLAX46Y46*%
G04 Gerber Fmt 4.6, Leading zero omitted, Abs format (unit mm)*
G04 Created by KiCad (PCBNEW (5.1.2-1)-1) date 2019-09-12 01:02:42*
%MOMM*%
%LPD*%
G04 APERTURE LIST*
%ADD10C,0.150000*%
G04 APERTURE END LIST*
D10*
X156845000Y-99695000D02*
X159385000Y-99695000D01*
X159385000Y-102235000D02*
X156845000Y-102235000D01*
X156845000Y-102235000D02*
G75*
G02X156845000Y-99695000I0J1270000D01*
G01*
X159385000Y-99695000D02*
G75*
G02X159385000Y-102235000I0J-1270000D01*
G01*
X156845000Y-66675000D02*
X159385000Y-66675000D01*
X159385000Y-69215000D02*
X156845000Y-69215000D01*
X156845000Y-69215000D02*
G75*
G02X156845000Y-66675000I0J1270000D01*
G01*
X159385000Y-66675000D02*
G75*
G02X159385000Y-69215000I0J-1270000D01*
G01*
X149225000Y-93345000D02*
X146685000Y-93345000D01*
X146685000Y-93345000D02*
G75*
G02X146685000Y-90805000I0J1270000D01*
G01*
X149225000Y-90805000D02*
G75*
G02X149225000Y-93345000I0J-1270000D01*
G01*
X146685000Y-90805000D02*
X149225000Y-90805000D01*
X146685000Y-75565000D02*
X149225000Y-75565000D01*
X149225000Y-75565000D02*
G75*
G02X149225000Y-78105000I0J-1270000D01*
G01*
X149225000Y-78105000D02*
X146685000Y-78105000D01*
X146685000Y-78105000D02*
G75*
G02X146685000Y-75565000I0J1270000D01*
G01*
X146050000Y-103505000D02*
G75*
G02X144145000Y-101600000I0J1905000D01*
G01*
X179070000Y-101600000D02*
G75*
G02X177165000Y-103505000I-1905000J0D01*
G01*
X177165000Y-65405000D02*
G75*
G02X179070000Y-67310000I0J-1905000D01*
G01*
X144145000Y-67310000D02*
G75*
G02X146050000Y-65405000I1905000J0D01*
G01*
X146050000Y-103505000D02*
X177165000Y-103505000D01*
X179070000Y-101600000D02*
X179070000Y-67310000D01*
X144145000Y-67310000D02*
X144145000Y-101600000D01*
X177165000Y-65405000D02*
X146050000Y-65405000D01*
M02*
