M48
; DRILL file {KiCad (5.1.2-1)-1} date Thursday, September 12, 2019 at 01:02:44 AM
; FORMAT={-:-/ absolute / inch / decimal}
; #@! TF.CreationDate,2019-09-12T01:02:44-04:00
; #@! TF.GenerationSoftware,Kicad,Pcbnew,(5.1.2-1)-1
FMAT,2
INCH
T1C0.0157
T2C0.0394
T3C0.0413
T4C0.0906
%
G90
G05
T1
X5.995Y-3.21
X6.05Y-3.16
X6.115Y-3.375
X6.3Y-3.375
X6.4Y-3.13
X6.485Y-3.175
X6.485Y-3.375
X6.5Y-3.575
X6.6Y-3.375
T2
X6.6169Y-3.5411
X6.6169Y-3.8089
X6.7154Y-3.5411
X6.7154Y-3.6238
X6.7154Y-3.7262
X6.7154Y-3.8089
X6.6169Y-2.8411
X6.6169Y-3.1089
X6.7154Y-2.8411
X6.7154Y-2.9238
X6.7154Y-3.0262
X6.7154Y-3.1089
T3
X5.75Y-2.65
X5.75Y-4.0
X6.975Y-2.65
X6.975Y-4.0
T4
X6.8335Y-3.4093
X6.8335Y-3.9407
X6.865Y-3.675
X6.8335Y-2.7093
X6.8335Y-3.2407
X6.865Y-2.975
T0
M30
