M48
; DRILL file {KiCad (5.1.2-1)-1} date Monday, July 29, 2019 at 10:21:17 PM
; FORMAT={-:-/ absolute / inch / decimal}
; #@! TF.CreationDate,2019-07-29T22:21:17-04:00
; #@! TF.GenerationSoftware,Kicad,Pcbnew,(5.1.2-1)-1
FMAT,2
INCH
T1C0.0157
T2C0.0256
T3C0.0394
T4C0.0413
T5C0.0906
%
G90
G05
T1
X6.5Y-3.365
X6.555Y-3.315
T2
X6.415Y-3.15
X6.415Y-3.2
X6.415Y-3.25
X6.415Y-3.3
X6.415Y-3.35
X6.415Y-3.4
X6.415Y-3.45
X6.415Y-3.5
T3
X6.6174Y-2.8161
X6.6174Y-3.0839
X6.7158Y-2.8161
X6.7158Y-2.8988
X6.7158Y-3.0012
X6.7158Y-3.0839
X6.6174Y-3.5661
X6.6174Y-3.8339
X6.7158Y-3.5661
X6.7158Y-3.6488
X6.7158Y-3.7512
X6.7158Y-3.8339
T4
X5.45Y-2.625
X6.975Y-4.025
X5.45Y-4.025
X6.975Y-2.625
T5
X6.8339Y-2.6843
X6.8339Y-3.2157
X6.8654Y-2.95
X6.8339Y-3.4343
X6.8339Y-3.9657
X6.8654Y-3.7
T0
M30
