G04 #@! TF.GenerationSoftware,KiCad,Pcbnew,(5.1.2-1)-1*
G04 #@! TF.CreationDate,2019-07-29T22:21:16-04:00*
G04 #@! TF.ProjectId,mouserial-keymouse,6d6f7573-6572-4696-916c-2d6b65796d6f,rev?*
G04 #@! TF.SameCoordinates,Original*
G04 #@! TF.FileFunction,Paste,Bot*
G04 #@! TF.FilePolarity,Positive*
%FSLAX46Y46*%
G04 Gerber Fmt 4.6, Leading zero omitted, Abs format (unit mm)*
G04 Created by KiCad (PCBNEW (5.1.2-1)-1) date 2019-07-29 22:21:16*
%MOMM*%
%LPD*%
G04 APERTURE LIST*
%ADD10C,0.100000*%
%ADD11C,0.973800*%
%ADD12C,1.123800*%
G04 APERTURE END LIST*
D10*
G36*
X165542312Y-82064272D02*
G01*
X165565945Y-82067778D01*
X165589120Y-82073583D01*
X165611614Y-82081632D01*
X165633212Y-82091846D01*
X165653704Y-82104129D01*
X165672893Y-82118361D01*
X165690595Y-82134405D01*
X165706639Y-82152107D01*
X165720871Y-82171296D01*
X165733154Y-82191788D01*
X165743368Y-82213386D01*
X165751417Y-82235880D01*
X165757222Y-82259055D01*
X165760728Y-82282688D01*
X165761900Y-82306550D01*
X165761900Y-82793450D01*
X165760728Y-82817312D01*
X165757222Y-82840945D01*
X165751417Y-82864120D01*
X165743368Y-82886614D01*
X165733154Y-82908212D01*
X165720871Y-82928704D01*
X165706639Y-82947893D01*
X165690595Y-82965595D01*
X165672893Y-82981639D01*
X165653704Y-82995871D01*
X165633212Y-83008154D01*
X165611614Y-83018368D01*
X165589120Y-83026417D01*
X165565945Y-83032222D01*
X165542312Y-83035728D01*
X165518450Y-83036900D01*
X164681550Y-83036900D01*
X164657688Y-83035728D01*
X164634055Y-83032222D01*
X164610880Y-83026417D01*
X164588386Y-83018368D01*
X164566788Y-83008154D01*
X164546296Y-82995871D01*
X164527107Y-82981639D01*
X164509405Y-82965595D01*
X164493361Y-82947893D01*
X164479129Y-82928704D01*
X164466846Y-82908212D01*
X164456632Y-82886614D01*
X164448583Y-82864120D01*
X164442778Y-82840945D01*
X164439272Y-82817312D01*
X164438100Y-82793450D01*
X164438100Y-82306550D01*
X164439272Y-82282688D01*
X164442778Y-82259055D01*
X164448583Y-82235880D01*
X164456632Y-82213386D01*
X164466846Y-82191788D01*
X164479129Y-82171296D01*
X164493361Y-82152107D01*
X164509405Y-82134405D01*
X164527107Y-82118361D01*
X164546296Y-82104129D01*
X164566788Y-82091846D01*
X164588386Y-82081632D01*
X164610880Y-82073583D01*
X164634055Y-82067778D01*
X164657688Y-82064272D01*
X164681550Y-82063100D01*
X165518450Y-82063100D01*
X165542312Y-82064272D01*
X165542312Y-82064272D01*
G37*
D11*
X165100000Y-82550000D03*
D10*
G36*
X165542312Y-83764272D02*
G01*
X165565945Y-83767778D01*
X165589120Y-83773583D01*
X165611614Y-83781632D01*
X165633212Y-83791846D01*
X165653704Y-83804129D01*
X165672893Y-83818361D01*
X165690595Y-83834405D01*
X165706639Y-83852107D01*
X165720871Y-83871296D01*
X165733154Y-83891788D01*
X165743368Y-83913386D01*
X165751417Y-83935880D01*
X165757222Y-83959055D01*
X165760728Y-83982688D01*
X165761900Y-84006550D01*
X165761900Y-84493450D01*
X165760728Y-84517312D01*
X165757222Y-84540945D01*
X165751417Y-84564120D01*
X165743368Y-84586614D01*
X165733154Y-84608212D01*
X165720871Y-84628704D01*
X165706639Y-84647893D01*
X165690595Y-84665595D01*
X165672893Y-84681639D01*
X165653704Y-84695871D01*
X165633212Y-84708154D01*
X165611614Y-84718368D01*
X165589120Y-84726417D01*
X165565945Y-84732222D01*
X165542312Y-84735728D01*
X165518450Y-84736900D01*
X164681550Y-84736900D01*
X164657688Y-84735728D01*
X164634055Y-84732222D01*
X164610880Y-84726417D01*
X164588386Y-84718368D01*
X164566788Y-84708154D01*
X164546296Y-84695871D01*
X164527107Y-84681639D01*
X164509405Y-84665595D01*
X164493361Y-84647893D01*
X164479129Y-84628704D01*
X164466846Y-84608212D01*
X164456632Y-84586614D01*
X164448583Y-84564120D01*
X164442778Y-84540945D01*
X164439272Y-84517312D01*
X164438100Y-84493450D01*
X164438100Y-84006550D01*
X164439272Y-83982688D01*
X164442778Y-83959055D01*
X164448583Y-83935880D01*
X164456632Y-83913386D01*
X164466846Y-83891788D01*
X164479129Y-83871296D01*
X164493361Y-83852107D01*
X164509405Y-83834405D01*
X164527107Y-83818361D01*
X164546296Y-83804129D01*
X164566788Y-83791846D01*
X164588386Y-83781632D01*
X164610880Y-83773583D01*
X164634055Y-83767778D01*
X164657688Y-83764272D01*
X164681550Y-83763100D01*
X165518450Y-83763100D01*
X165542312Y-83764272D01*
X165542312Y-83764272D01*
G37*
D11*
X165100000Y-84250000D03*
D10*
G36*
X168883488Y-81989453D02*
G01*
X168910761Y-81993498D01*
X168937505Y-82000198D01*
X168963465Y-82009486D01*
X168988389Y-82021274D01*
X169012037Y-82035449D01*
X169034183Y-82051873D01*
X169054612Y-82070388D01*
X169073127Y-82090817D01*
X169089551Y-82112963D01*
X169103726Y-82136611D01*
X169115514Y-82161535D01*
X169124802Y-82187495D01*
X169131502Y-82214239D01*
X169135547Y-82241512D01*
X169136900Y-82269050D01*
X169136900Y-82830950D01*
X169135547Y-82858488D01*
X169131502Y-82885761D01*
X169124802Y-82912505D01*
X169115514Y-82938465D01*
X169103726Y-82963389D01*
X169089551Y-82987037D01*
X169073127Y-83009183D01*
X169054612Y-83029612D01*
X169034183Y-83048127D01*
X169012037Y-83064551D01*
X168988389Y-83078726D01*
X168963465Y-83090514D01*
X168937505Y-83099802D01*
X168910761Y-83106502D01*
X168883488Y-83110547D01*
X168855950Y-83111900D01*
X167694050Y-83111900D01*
X167666512Y-83110547D01*
X167639239Y-83106502D01*
X167612495Y-83099802D01*
X167586535Y-83090514D01*
X167561611Y-83078726D01*
X167537963Y-83064551D01*
X167515817Y-83048127D01*
X167495388Y-83029612D01*
X167476873Y-83009183D01*
X167460449Y-82987037D01*
X167446274Y-82963389D01*
X167434486Y-82938465D01*
X167425198Y-82912505D01*
X167418498Y-82885761D01*
X167414453Y-82858488D01*
X167413100Y-82830950D01*
X167413100Y-82269050D01*
X167414453Y-82241512D01*
X167418498Y-82214239D01*
X167425198Y-82187495D01*
X167434486Y-82161535D01*
X167446274Y-82136611D01*
X167460449Y-82112963D01*
X167476873Y-82090817D01*
X167495388Y-82070388D01*
X167515817Y-82051873D01*
X167537963Y-82035449D01*
X167561611Y-82021274D01*
X167586535Y-82009486D01*
X167612495Y-82000198D01*
X167639239Y-81993498D01*
X167666512Y-81989453D01*
X167694050Y-81988100D01*
X168855950Y-81988100D01*
X168883488Y-81989453D01*
X168883488Y-81989453D01*
G37*
D12*
X168275000Y-82550000D03*
D10*
G36*
X168883488Y-84989453D02*
G01*
X168910761Y-84993498D01*
X168937505Y-85000198D01*
X168963465Y-85009486D01*
X168988389Y-85021274D01*
X169012037Y-85035449D01*
X169034183Y-85051873D01*
X169054612Y-85070388D01*
X169073127Y-85090817D01*
X169089551Y-85112963D01*
X169103726Y-85136611D01*
X169115514Y-85161535D01*
X169124802Y-85187495D01*
X169131502Y-85214239D01*
X169135547Y-85241512D01*
X169136900Y-85269050D01*
X169136900Y-85830950D01*
X169135547Y-85858488D01*
X169131502Y-85885761D01*
X169124802Y-85912505D01*
X169115514Y-85938465D01*
X169103726Y-85963389D01*
X169089551Y-85987037D01*
X169073127Y-86009183D01*
X169054612Y-86029612D01*
X169034183Y-86048127D01*
X169012037Y-86064551D01*
X168988389Y-86078726D01*
X168963465Y-86090514D01*
X168937505Y-86099802D01*
X168910761Y-86106502D01*
X168883488Y-86110547D01*
X168855950Y-86111900D01*
X167694050Y-86111900D01*
X167666512Y-86110547D01*
X167639239Y-86106502D01*
X167612495Y-86099802D01*
X167586535Y-86090514D01*
X167561611Y-86078726D01*
X167537963Y-86064551D01*
X167515817Y-86048127D01*
X167495388Y-86029612D01*
X167476873Y-86009183D01*
X167460449Y-85987037D01*
X167446274Y-85963389D01*
X167434486Y-85938465D01*
X167425198Y-85912505D01*
X167418498Y-85885761D01*
X167414453Y-85858488D01*
X167413100Y-85830950D01*
X167413100Y-85269050D01*
X167414453Y-85241512D01*
X167418498Y-85214239D01*
X167425198Y-85187495D01*
X167434486Y-85161535D01*
X167446274Y-85136611D01*
X167460449Y-85112963D01*
X167476873Y-85090817D01*
X167495388Y-85070388D01*
X167515817Y-85051873D01*
X167537963Y-85035449D01*
X167561611Y-85021274D01*
X167586535Y-85009486D01*
X167612495Y-85000198D01*
X167639239Y-84993498D01*
X167666512Y-84989453D01*
X167694050Y-84988100D01*
X168855950Y-84988100D01*
X168883488Y-84989453D01*
X168883488Y-84989453D01*
G37*
D12*
X168275000Y-85550000D03*
M02*
