G04 #@! TF.GenerationSoftware,KiCad,Pcbnew,(5.1.2-1)-1*
G04 #@! TF.CreationDate,2019-07-29T22:21:16-04:00*
G04 #@! TF.ProjectId,mouserial-keymouse,6d6f7573-6572-4696-916c-2d6b65796d6f,rev?*
G04 #@! TF.SameCoordinates,Original*
G04 #@! TF.FileFunction,Copper,L1,Top*
G04 #@! TF.FilePolarity,Positive*
%FSLAX46Y46*%
G04 Gerber Fmt 4.6, Leading zero omitted, Abs format (unit mm)*
G04 Created by KiCad (PCBNEW (5.1.2-1)-1) date 2019-07-29 22:21:16*
%MOMM*%
%LPD*%
G04 APERTURE LIST*
%ADD10C,4.000000*%
%ADD11C,1.800000*%
%ADD12R,1.000000X1.000000*%
%ADD13O,1.000000X1.000000*%
%ADD14C,2.000000*%
%ADD15C,0.800000*%
%ADD16C,0.200000*%
G04 APERTURE END LIST*
D10*
X174381000Y-74930000D03*
X173581000Y-68180000D03*
X173581000Y-81680000D03*
D11*
X170581000Y-71530000D03*
X170581000Y-78330000D03*
X168081000Y-78330000D03*
X168081000Y-71530000D03*
X170581000Y-73630000D03*
X170581000Y-76230000D03*
X170581000Y-95280000D03*
X170581000Y-92680000D03*
X168081000Y-90580000D03*
X168081000Y-97380000D03*
X170581000Y-97380000D03*
X170581000Y-90580000D03*
D10*
X173581000Y-100730000D03*
X173581000Y-87230000D03*
X174381000Y-93980000D03*
D12*
X162941000Y-80010000D03*
D13*
X162941000Y-81280000D03*
X162941000Y-82550000D03*
X162941000Y-83820000D03*
X162941000Y-85090000D03*
X162941000Y-86360000D03*
X162941000Y-87630000D03*
X162941000Y-88900000D03*
D14*
X138430000Y-66675000D03*
X138430000Y-102235000D03*
X177165000Y-102235000D03*
X177165000Y-66675000D03*
D15*
X165100000Y-85471000D03*
X166497000Y-84201000D03*
D16*
X164690000Y-71530000D02*
X168081000Y-71530000D01*
X162941000Y-73279000D02*
X164690000Y-71530000D01*
X162941000Y-80010000D02*
X162941000Y-73279000D01*
X162941000Y-83820000D02*
X164846000Y-83820000D01*
X168081000Y-87055000D02*
X168081000Y-90580000D01*
X164846000Y-83820000D02*
X168081000Y-87055000D01*
X161925000Y-87630000D02*
X162941000Y-87630000D01*
X161290000Y-86995000D02*
X161925000Y-87630000D01*
X163195000Y-69850000D02*
X161290000Y-71755000D01*
X172212000Y-72263000D02*
X172212000Y-70739000D01*
X161290000Y-71755000D02*
X161290000Y-86995000D01*
X170845000Y-73630000D02*
X172212000Y-72263000D01*
X171323000Y-69850000D02*
X163195000Y-69850000D01*
X172212000Y-70739000D02*
X171323000Y-69850000D01*
X170581000Y-73630000D02*
X170845000Y-73630000D01*
X167610000Y-92680000D02*
X163830000Y-88900000D01*
X163830000Y-88900000D02*
X162941000Y-88900000D01*
X170581000Y-92680000D02*
X167610000Y-92680000D01*
G36*
X177461826Y-65175902D02*
G01*
X177747355Y-65262109D01*
X178010695Y-65402129D01*
X178241824Y-65590633D01*
X178431938Y-65820443D01*
X178573793Y-66082800D01*
X178661988Y-66367711D01*
X178695001Y-66681805D01*
X178695000Y-102216663D01*
X178664098Y-102531826D01*
X178577892Y-102817354D01*
X178437872Y-103080694D01*
X178249368Y-103311822D01*
X178019560Y-103501937D01*
X177757202Y-103643793D01*
X177472289Y-103731988D01*
X177158206Y-103765000D01*
X138448337Y-103765000D01*
X138133174Y-103734098D01*
X137847646Y-103647892D01*
X137584306Y-103507872D01*
X137353178Y-103319368D01*
X137163063Y-103089560D01*
X137021207Y-102827202D01*
X136933012Y-102542289D01*
X136919773Y-102416322D01*
X172112466Y-102416322D01*
X172350160Y-102686106D01*
X172755428Y-102888645D01*
X173192422Y-103008229D01*
X173644349Y-103040261D01*
X174093841Y-102983512D01*
X174523626Y-102840161D01*
X174811840Y-102686106D01*
X175049534Y-102416322D01*
X173581000Y-100947789D01*
X172112466Y-102416322D01*
X136919773Y-102416322D01*
X136900000Y-102228206D01*
X136900000Y-100793349D01*
X171270739Y-100793349D01*
X171327488Y-101242841D01*
X171470839Y-101672626D01*
X171624894Y-101960840D01*
X171894678Y-102198534D01*
X173363211Y-100730000D01*
X173798789Y-100730000D01*
X175267322Y-102198534D01*
X175537106Y-101960840D01*
X175739645Y-101555572D01*
X175859229Y-101118578D01*
X175891261Y-100666651D01*
X175834512Y-100217159D01*
X175691161Y-99787374D01*
X175537106Y-99499160D01*
X175267322Y-99261466D01*
X173798789Y-100730000D01*
X173363211Y-100730000D01*
X171894678Y-99261466D01*
X171624894Y-99499160D01*
X171422355Y-99904428D01*
X171302771Y-100341422D01*
X171270739Y-100793349D01*
X136900000Y-100793349D01*
X136900000Y-99043678D01*
X172112466Y-99043678D01*
X173581000Y-100512211D01*
X175049534Y-99043678D01*
X174811840Y-98773894D01*
X174406572Y-98571355D01*
X173969578Y-98451771D01*
X173517651Y-98419739D01*
X173068159Y-98476488D01*
X172638374Y-98619839D01*
X172350160Y-98773894D01*
X172112466Y-99043678D01*
X136900000Y-99043678D01*
X136900000Y-97261810D01*
X166881000Y-97261810D01*
X166881000Y-97498190D01*
X166927116Y-97730027D01*
X167017574Y-97948413D01*
X167148899Y-98144955D01*
X167316045Y-98312101D01*
X167512587Y-98443426D01*
X167730973Y-98533884D01*
X167962810Y-98580000D01*
X168199190Y-98580000D01*
X168431027Y-98533884D01*
X168649413Y-98443426D01*
X168845955Y-98312101D01*
X169013101Y-98144955D01*
X169144426Y-97948413D01*
X169234884Y-97730027D01*
X169281000Y-97498190D01*
X169281000Y-97261810D01*
X169234884Y-97029973D01*
X169144426Y-96811587D01*
X169013101Y-96615045D01*
X168845955Y-96447899D01*
X168649413Y-96316574D01*
X168431027Y-96226116D01*
X168199190Y-96180000D01*
X167962810Y-96180000D01*
X167730973Y-96226116D01*
X167512587Y-96316574D01*
X167316045Y-96447899D01*
X167148899Y-96615045D01*
X167017574Y-96811587D01*
X166927116Y-97029973D01*
X166881000Y-97261810D01*
X136900000Y-97261810D01*
X136900000Y-95161810D01*
X169381000Y-95161810D01*
X169381000Y-95398190D01*
X169427116Y-95630027D01*
X169517574Y-95848413D01*
X169648899Y-96044955D01*
X169816045Y-96212101D01*
X169992494Y-96330000D01*
X169816045Y-96447899D01*
X169648899Y-96615045D01*
X169517574Y-96811587D01*
X169427116Y-97029973D01*
X169381000Y-97261810D01*
X169381000Y-97498190D01*
X169427116Y-97730027D01*
X169517574Y-97948413D01*
X169648899Y-98144955D01*
X169816045Y-98312101D01*
X170012587Y-98443426D01*
X170230973Y-98533884D01*
X170462810Y-98580000D01*
X170699190Y-98580000D01*
X170931027Y-98533884D01*
X171149413Y-98443426D01*
X171345955Y-98312101D01*
X171513101Y-98144955D01*
X171644426Y-97948413D01*
X171734884Y-97730027D01*
X171781000Y-97498190D01*
X171781000Y-97261810D01*
X171734884Y-97029973D01*
X171644426Y-96811587D01*
X171513101Y-96615045D01*
X171345955Y-96447899D01*
X171169506Y-96330000D01*
X171345955Y-96212101D01*
X171513101Y-96044955D01*
X171644426Y-95848413D01*
X171719850Y-95666322D01*
X172912466Y-95666322D01*
X173150160Y-95936106D01*
X173555428Y-96138645D01*
X173992422Y-96258229D01*
X174444349Y-96290261D01*
X174893841Y-96233512D01*
X175323626Y-96090161D01*
X175611840Y-95936106D01*
X175849534Y-95666322D01*
X174381000Y-94197789D01*
X172912466Y-95666322D01*
X171719850Y-95666322D01*
X171734884Y-95630027D01*
X171781000Y-95398190D01*
X171781000Y-95161810D01*
X171734884Y-94929973D01*
X171644426Y-94711587D01*
X171513101Y-94515045D01*
X171345955Y-94347899D01*
X171149413Y-94216574D01*
X170931027Y-94126116D01*
X170699190Y-94080000D01*
X170462810Y-94080000D01*
X170230973Y-94126116D01*
X170012587Y-94216574D01*
X169816045Y-94347899D01*
X169648899Y-94515045D01*
X169517574Y-94711587D01*
X169427116Y-94929973D01*
X169381000Y-95161810D01*
X136900000Y-95161810D01*
X136900000Y-94043349D01*
X172070739Y-94043349D01*
X172127488Y-94492841D01*
X172270839Y-94922626D01*
X172424894Y-95210840D01*
X172694678Y-95448534D01*
X174163211Y-93980000D01*
X174598789Y-93980000D01*
X176067322Y-95448534D01*
X176337106Y-95210840D01*
X176539645Y-94805572D01*
X176659229Y-94368578D01*
X176691261Y-93916651D01*
X176634512Y-93467159D01*
X176491161Y-93037374D01*
X176337106Y-92749160D01*
X176067322Y-92511466D01*
X174598789Y-93980000D01*
X174163211Y-93980000D01*
X172694678Y-92511466D01*
X172424894Y-92749160D01*
X172222355Y-93154428D01*
X172102771Y-93591422D01*
X172070739Y-94043349D01*
X136900000Y-94043349D01*
X136900000Y-90188418D01*
X139325000Y-90188418D01*
X139325129Y-90189724D01*
X139325195Y-90199221D01*
X139326976Y-90216164D01*
X139326976Y-90233191D01*
X139327523Y-90238399D01*
X139368966Y-90607873D01*
X139376041Y-90641156D01*
X139382635Y-90674458D01*
X139384182Y-90679461D01*
X139496600Y-91033847D01*
X139510003Y-91065117D01*
X139522942Y-91096511D01*
X139525432Y-91101117D01*
X139704544Y-91426920D01*
X139723766Y-91454992D01*
X139742555Y-91483272D01*
X139745892Y-91487307D01*
X139984874Y-91772115D01*
X140009166Y-91795904D01*
X140033107Y-91820012D01*
X140037164Y-91823322D01*
X140326915Y-92056287D01*
X140355356Y-92074898D01*
X140383533Y-92093904D01*
X140388156Y-92096362D01*
X140717638Y-92268611D01*
X140749145Y-92281340D01*
X140780484Y-92294514D01*
X140785496Y-92296028D01*
X141142161Y-92401000D01*
X141175595Y-92407378D01*
X141208840Y-92414202D01*
X141214051Y-92414714D01*
X141584311Y-92448411D01*
X141618370Y-92448173D01*
X141652286Y-92448410D01*
X141657497Y-92447900D01*
X142027252Y-92409037D01*
X142060603Y-92402191D01*
X142093931Y-92395833D01*
X142098944Y-92394320D01*
X142454108Y-92284378D01*
X142485456Y-92271200D01*
X142516952Y-92258475D01*
X142521576Y-92256017D01*
X142848620Y-92079186D01*
X142876832Y-92060157D01*
X142905238Y-92041568D01*
X142909296Y-92038259D01*
X143195766Y-91801271D01*
X143219725Y-91777143D01*
X143243998Y-91753374D01*
X143247336Y-91749339D01*
X143482319Y-91461222D01*
X143501142Y-91432890D01*
X143520330Y-91404868D01*
X143522820Y-91400263D01*
X143697366Y-91071990D01*
X143710334Y-91040527D01*
X143723706Y-91009328D01*
X143725255Y-91004326D01*
X143832715Y-90648404D01*
X143839322Y-90615035D01*
X143846383Y-90581817D01*
X143846930Y-90576609D01*
X143883210Y-90206594D01*
X143885000Y-90188419D01*
X143885000Y-90188418D01*
X146310000Y-90188418D01*
X146310129Y-90189724D01*
X146310195Y-90199221D01*
X146311976Y-90216164D01*
X146311976Y-90233191D01*
X146312523Y-90238399D01*
X146353966Y-90607873D01*
X146361041Y-90641156D01*
X146367635Y-90674458D01*
X146369182Y-90679461D01*
X146481600Y-91033847D01*
X146495003Y-91065117D01*
X146507942Y-91096511D01*
X146510432Y-91101117D01*
X146689544Y-91426920D01*
X146708766Y-91454992D01*
X146727555Y-91483272D01*
X146730892Y-91487307D01*
X146969874Y-91772115D01*
X146994166Y-91795904D01*
X147018107Y-91820012D01*
X147022164Y-91823322D01*
X147311915Y-92056287D01*
X147340356Y-92074898D01*
X147368533Y-92093904D01*
X147373156Y-92096362D01*
X147702638Y-92268611D01*
X147734145Y-92281340D01*
X147765484Y-92294514D01*
X147770496Y-92296028D01*
X148127161Y-92401000D01*
X148160595Y-92407378D01*
X148193840Y-92414202D01*
X148199051Y-92414714D01*
X148569311Y-92448411D01*
X148603370Y-92448173D01*
X148637286Y-92448410D01*
X148642497Y-92447900D01*
X149012252Y-92409037D01*
X149045603Y-92402191D01*
X149078931Y-92395833D01*
X149083944Y-92394320D01*
X149439108Y-92284378D01*
X149470456Y-92271200D01*
X149501952Y-92258475D01*
X149506576Y-92256017D01*
X149833620Y-92079186D01*
X149861832Y-92060157D01*
X149890238Y-92041568D01*
X149894296Y-92038259D01*
X150180766Y-91801271D01*
X150204725Y-91777143D01*
X150228998Y-91753374D01*
X150232336Y-91749339D01*
X150467319Y-91461222D01*
X150486142Y-91432890D01*
X150505330Y-91404868D01*
X150507820Y-91400263D01*
X150682366Y-91071990D01*
X150695334Y-91040527D01*
X150708706Y-91009328D01*
X150710255Y-91004326D01*
X150817715Y-90648404D01*
X150824322Y-90615035D01*
X150831383Y-90581817D01*
X150831930Y-90576609D01*
X150868210Y-90206594D01*
X150870000Y-90188419D01*
X150870000Y-90188418D01*
X153295000Y-90188418D01*
X153295129Y-90189724D01*
X153295195Y-90199221D01*
X153296976Y-90216164D01*
X153296976Y-90233191D01*
X153297523Y-90238399D01*
X153338966Y-90607873D01*
X153346041Y-90641156D01*
X153352635Y-90674458D01*
X153354182Y-90679461D01*
X153466600Y-91033847D01*
X153480003Y-91065117D01*
X153492942Y-91096511D01*
X153495432Y-91101117D01*
X153674544Y-91426920D01*
X153693766Y-91454992D01*
X153712555Y-91483272D01*
X153715892Y-91487307D01*
X153954874Y-91772115D01*
X153979166Y-91795904D01*
X154003107Y-91820012D01*
X154007164Y-91823322D01*
X154296915Y-92056287D01*
X154325356Y-92074898D01*
X154353533Y-92093904D01*
X154358156Y-92096362D01*
X154687638Y-92268611D01*
X154719145Y-92281340D01*
X154750484Y-92294514D01*
X154755496Y-92296028D01*
X155112161Y-92401000D01*
X155145595Y-92407378D01*
X155178840Y-92414202D01*
X155184051Y-92414714D01*
X155554311Y-92448411D01*
X155588370Y-92448173D01*
X155622286Y-92448410D01*
X155627497Y-92447900D01*
X155997252Y-92409037D01*
X156030603Y-92402191D01*
X156063931Y-92395833D01*
X156068944Y-92394320D01*
X156424108Y-92284378D01*
X156455456Y-92271200D01*
X156486952Y-92258475D01*
X156491576Y-92256017D01*
X156818620Y-92079186D01*
X156846832Y-92060157D01*
X156875238Y-92041568D01*
X156879296Y-92038259D01*
X157165766Y-91801271D01*
X157189725Y-91777143D01*
X157213998Y-91753374D01*
X157217336Y-91749339D01*
X157452319Y-91461222D01*
X157471142Y-91432890D01*
X157490330Y-91404868D01*
X157492820Y-91400263D01*
X157667366Y-91071990D01*
X157680334Y-91040527D01*
X157693706Y-91009328D01*
X157695255Y-91004326D01*
X157802715Y-90648404D01*
X157809322Y-90615035D01*
X157816383Y-90581817D01*
X157816930Y-90576609D01*
X157853210Y-90206594D01*
X157855000Y-90188419D01*
X157855000Y-78721581D01*
X157854871Y-78720275D01*
X157854805Y-78710780D01*
X157853024Y-78693837D01*
X157853024Y-78676809D01*
X157852477Y-78671601D01*
X157811034Y-78302127D01*
X157803961Y-78268852D01*
X157797365Y-78235541D01*
X157795817Y-78230539D01*
X157683400Y-77876152D01*
X157669987Y-77844857D01*
X157657058Y-77813489D01*
X157654568Y-77808883D01*
X157475456Y-77483080D01*
X157456246Y-77455025D01*
X157437445Y-77426727D01*
X157434108Y-77422693D01*
X157195126Y-77137885D01*
X157170833Y-77114096D01*
X157146893Y-77089988D01*
X157142835Y-77086678D01*
X156853085Y-76853712D01*
X156824618Y-76835084D01*
X156796467Y-76816096D01*
X156791844Y-76813637D01*
X156462362Y-76641389D01*
X156430840Y-76628653D01*
X156399517Y-76615486D01*
X156394504Y-76613972D01*
X156037839Y-76509000D01*
X156004405Y-76502622D01*
X155971160Y-76495798D01*
X155965949Y-76495286D01*
X155595689Y-76461589D01*
X155561630Y-76461827D01*
X155527714Y-76461590D01*
X155522503Y-76462100D01*
X155152749Y-76500963D01*
X155119411Y-76507807D01*
X155086069Y-76514167D01*
X155081056Y-76515680D01*
X154725892Y-76625622D01*
X154694555Y-76638795D01*
X154663048Y-76651525D01*
X154658424Y-76653983D01*
X154331379Y-76830815D01*
X154303179Y-76849836D01*
X154274761Y-76868432D01*
X154270703Y-76871741D01*
X153984234Y-77108730D01*
X153960294Y-77132838D01*
X153936002Y-77156626D01*
X153932664Y-77160661D01*
X153697681Y-77448778D01*
X153678858Y-77477110D01*
X153659670Y-77505132D01*
X153657180Y-77509737D01*
X153482635Y-77838009D01*
X153469686Y-77869426D01*
X153456294Y-77900672D01*
X153454745Y-77905674D01*
X153347285Y-78261597D01*
X153340678Y-78294965D01*
X153333617Y-78328184D01*
X153333070Y-78333391D01*
X153296790Y-78703407D01*
X153296790Y-78703416D01*
X153295001Y-78721581D01*
X153295000Y-90188418D01*
X150870000Y-90188418D01*
X150870000Y-78721581D01*
X150869871Y-78720275D01*
X150869805Y-78710780D01*
X150868024Y-78693837D01*
X150868024Y-78676809D01*
X150867477Y-78671601D01*
X150826034Y-78302127D01*
X150818961Y-78268852D01*
X150812365Y-78235541D01*
X150810817Y-78230539D01*
X150698400Y-77876152D01*
X150684987Y-77844857D01*
X150672058Y-77813489D01*
X150669568Y-77808883D01*
X150490456Y-77483080D01*
X150471246Y-77455025D01*
X150452445Y-77426727D01*
X150449108Y-77422693D01*
X150210126Y-77137885D01*
X150185833Y-77114096D01*
X150161893Y-77089988D01*
X150157835Y-77086678D01*
X149868085Y-76853712D01*
X149839618Y-76835084D01*
X149811467Y-76816096D01*
X149806844Y-76813637D01*
X149477362Y-76641389D01*
X149445840Y-76628653D01*
X149414517Y-76615486D01*
X149409504Y-76613972D01*
X149052839Y-76509000D01*
X149019405Y-76502622D01*
X148986160Y-76495798D01*
X148980949Y-76495286D01*
X148610689Y-76461589D01*
X148576630Y-76461827D01*
X148542714Y-76461590D01*
X148537503Y-76462100D01*
X148167749Y-76500963D01*
X148134411Y-76507807D01*
X148101069Y-76514167D01*
X148096056Y-76515680D01*
X147740892Y-76625622D01*
X147709555Y-76638795D01*
X147678048Y-76651525D01*
X147673424Y-76653983D01*
X147346379Y-76830815D01*
X147318179Y-76849836D01*
X147289761Y-76868432D01*
X147285703Y-76871741D01*
X146999234Y-77108730D01*
X146975294Y-77132838D01*
X146951002Y-77156626D01*
X146947664Y-77160661D01*
X146712681Y-77448778D01*
X146693858Y-77477110D01*
X146674670Y-77505132D01*
X146672180Y-77509737D01*
X146497635Y-77838009D01*
X146484686Y-77869426D01*
X146471294Y-77900672D01*
X146469745Y-77905674D01*
X146362285Y-78261597D01*
X146355678Y-78294965D01*
X146348617Y-78328184D01*
X146348070Y-78333391D01*
X146311790Y-78703407D01*
X146311790Y-78703416D01*
X146310001Y-78721581D01*
X146310000Y-90188418D01*
X143885000Y-90188418D01*
X143885000Y-78721581D01*
X143884871Y-78720275D01*
X143884805Y-78710780D01*
X143883024Y-78693837D01*
X143883024Y-78676809D01*
X143882477Y-78671601D01*
X143841034Y-78302127D01*
X143833961Y-78268852D01*
X143827365Y-78235541D01*
X143825817Y-78230539D01*
X143713400Y-77876152D01*
X143699987Y-77844857D01*
X143687058Y-77813489D01*
X143684568Y-77808883D01*
X143505456Y-77483080D01*
X143486246Y-77455025D01*
X143467445Y-77426727D01*
X143464108Y-77422693D01*
X143225126Y-77137885D01*
X143200833Y-77114096D01*
X143176893Y-77089988D01*
X143172835Y-77086678D01*
X142883085Y-76853712D01*
X142854618Y-76835084D01*
X142826467Y-76816096D01*
X142821844Y-76813637D01*
X142492362Y-76641389D01*
X142460840Y-76628653D01*
X142429517Y-76615486D01*
X142424504Y-76613972D01*
X142067839Y-76509000D01*
X142034405Y-76502622D01*
X142001160Y-76495798D01*
X141995949Y-76495286D01*
X141625689Y-76461589D01*
X141591630Y-76461827D01*
X141557714Y-76461590D01*
X141552503Y-76462100D01*
X141182749Y-76500963D01*
X141149411Y-76507807D01*
X141116069Y-76514167D01*
X141111056Y-76515680D01*
X140755892Y-76625622D01*
X140724555Y-76638795D01*
X140693048Y-76651525D01*
X140688424Y-76653983D01*
X140361379Y-76830815D01*
X140333179Y-76849836D01*
X140304761Y-76868432D01*
X140300703Y-76871741D01*
X140014234Y-77108730D01*
X139990294Y-77132838D01*
X139966002Y-77156626D01*
X139962664Y-77160661D01*
X139727681Y-77448778D01*
X139708858Y-77477110D01*
X139689670Y-77505132D01*
X139687180Y-77509737D01*
X139512635Y-77838009D01*
X139499686Y-77869426D01*
X139486294Y-77900672D01*
X139484745Y-77905674D01*
X139377285Y-78261597D01*
X139370678Y-78294965D01*
X139363617Y-78328184D01*
X139363070Y-78333391D01*
X139326790Y-78703407D01*
X139326790Y-78703416D01*
X139325001Y-78721581D01*
X139325000Y-90188418D01*
X136900000Y-90188418D01*
X136900000Y-71755000D01*
X160888065Y-71755000D01*
X160890000Y-71774646D01*
X160890001Y-86975343D01*
X160888065Y-86995000D01*
X160895788Y-87073413D01*
X160918661Y-87148814D01*
X160955803Y-87218302D01*
X160993265Y-87263950D01*
X160993268Y-87263953D01*
X161005790Y-87279211D01*
X161021048Y-87291733D01*
X161628263Y-87898948D01*
X161640789Y-87914211D01*
X161656050Y-87926735D01*
X161701697Y-87964197D01*
X161771186Y-88001340D01*
X161846586Y-88024212D01*
X161925000Y-88031935D01*
X161944647Y-88030000D01*
X162247695Y-88030000D01*
X162272607Y-88076606D01*
X162372578Y-88198422D01*
X162453704Y-88265000D01*
X162372578Y-88331578D01*
X162272607Y-88453394D01*
X162198321Y-88592372D01*
X162152576Y-88743173D01*
X162137130Y-88900000D01*
X162152576Y-89056827D01*
X162198321Y-89207628D01*
X162272607Y-89346606D01*
X162372578Y-89468422D01*
X162494394Y-89568393D01*
X162633372Y-89642679D01*
X162784173Y-89688424D01*
X162901707Y-89700000D01*
X162980293Y-89700000D01*
X163097827Y-89688424D01*
X163248628Y-89642679D01*
X163387606Y-89568393D01*
X163509422Y-89468422D01*
X163609393Y-89346606D01*
X163634305Y-89300000D01*
X163664315Y-89300000D01*
X167313267Y-92948953D01*
X167325789Y-92964211D01*
X167341047Y-92976733D01*
X167341049Y-92976735D01*
X167372982Y-93002941D01*
X167386697Y-93014197D01*
X167456186Y-93051340D01*
X167531586Y-93074212D01*
X167590353Y-93080000D01*
X167590363Y-93080000D01*
X167609999Y-93081934D01*
X167629635Y-93080000D01*
X169447815Y-93080000D01*
X169517574Y-93248413D01*
X169648899Y-93444955D01*
X169816045Y-93612101D01*
X170012587Y-93743426D01*
X170230973Y-93833884D01*
X170462810Y-93880000D01*
X170699190Y-93880000D01*
X170931027Y-93833884D01*
X171149413Y-93743426D01*
X171345955Y-93612101D01*
X171513101Y-93444955D01*
X171644426Y-93248413D01*
X171734884Y-93030027D01*
X171781000Y-92798190D01*
X171781000Y-92561810D01*
X171734884Y-92329973D01*
X171719851Y-92293678D01*
X172912466Y-92293678D01*
X174381000Y-93762211D01*
X175849534Y-92293678D01*
X175611840Y-92023894D01*
X175206572Y-91821355D01*
X174769578Y-91701771D01*
X174317651Y-91669739D01*
X173868159Y-91726488D01*
X173438374Y-91869839D01*
X173150160Y-92023894D01*
X172912466Y-92293678D01*
X171719851Y-92293678D01*
X171644426Y-92111587D01*
X171513101Y-91915045D01*
X171345955Y-91747899D01*
X171166210Y-91627797D01*
X171264257Y-91481046D01*
X170581000Y-90797789D01*
X169897743Y-91481046D01*
X169995790Y-91627797D01*
X169816045Y-91747899D01*
X169648899Y-91915045D01*
X169517574Y-92111587D01*
X169447815Y-92280000D01*
X167775686Y-92280000D01*
X164126737Y-88631052D01*
X164114211Y-88615789D01*
X164053303Y-88565803D01*
X163983814Y-88528660D01*
X163908414Y-88505788D01*
X163849647Y-88500000D01*
X163849646Y-88500000D01*
X163830000Y-88498065D01*
X163810354Y-88500000D01*
X163634305Y-88500000D01*
X163609393Y-88453394D01*
X163509422Y-88331578D01*
X163428296Y-88265000D01*
X163509422Y-88198422D01*
X163609393Y-88076606D01*
X163683679Y-87937628D01*
X163729424Y-87786827D01*
X163744870Y-87630000D01*
X163729424Y-87473173D01*
X163683679Y-87322372D01*
X163609393Y-87183394D01*
X163509422Y-87061578D01*
X163424928Y-86992236D01*
X163482494Y-86948899D01*
X163586978Y-86831943D01*
X163666637Y-86696851D01*
X163692282Y-86634911D01*
X163649455Y-86514000D01*
X163095000Y-86514000D01*
X163095000Y-86534000D01*
X162787000Y-86534000D01*
X162787000Y-86514000D01*
X162232545Y-86514000D01*
X162189718Y-86634911D01*
X162215363Y-86696851D01*
X162295022Y-86831943D01*
X162399506Y-86948899D01*
X162457072Y-86992236D01*
X162372578Y-87061578D01*
X162272607Y-87183394D01*
X162247695Y-87230000D01*
X162090685Y-87230000D01*
X161690000Y-86829315D01*
X161690000Y-85364911D01*
X162189718Y-85364911D01*
X162215363Y-85426851D01*
X162295022Y-85561943D01*
X162399506Y-85678899D01*
X162460742Y-85725000D01*
X162399506Y-85771101D01*
X162295022Y-85888057D01*
X162215363Y-86023149D01*
X162189718Y-86085089D01*
X162232545Y-86206000D01*
X162787000Y-86206000D01*
X162787000Y-85244000D01*
X163095000Y-85244000D01*
X163095000Y-86206000D01*
X163649455Y-86206000D01*
X163692282Y-86085089D01*
X163666637Y-86023149D01*
X163586978Y-85888057D01*
X163482494Y-85771101D01*
X163421258Y-85725000D01*
X163482494Y-85678899D01*
X163586978Y-85561943D01*
X163666637Y-85426851D01*
X163692282Y-85364911D01*
X163649455Y-85244000D01*
X163095000Y-85244000D01*
X162787000Y-85244000D01*
X162232545Y-85244000D01*
X162189718Y-85364911D01*
X161690000Y-85364911D01*
X161690000Y-82550000D01*
X162137130Y-82550000D01*
X162152576Y-82706827D01*
X162198321Y-82857628D01*
X162272607Y-82996606D01*
X162372578Y-83118422D01*
X162453704Y-83185000D01*
X162372578Y-83251578D01*
X162272607Y-83373394D01*
X162198321Y-83512372D01*
X162152576Y-83663173D01*
X162137130Y-83820000D01*
X162152576Y-83976827D01*
X162198321Y-84127628D01*
X162272607Y-84266606D01*
X162372578Y-84388422D01*
X162457072Y-84457764D01*
X162399506Y-84501101D01*
X162295022Y-84618057D01*
X162215363Y-84753149D01*
X162189718Y-84815089D01*
X162232545Y-84936000D01*
X162787000Y-84936000D01*
X162787000Y-84916000D01*
X163095000Y-84916000D01*
X163095000Y-84936000D01*
X163649455Y-84936000D01*
X163692282Y-84815089D01*
X163666637Y-84753149D01*
X163586978Y-84618057D01*
X163482494Y-84501101D01*
X163424928Y-84457764D01*
X163509422Y-84388422D01*
X163609393Y-84266606D01*
X163634305Y-84220000D01*
X164680315Y-84220000D01*
X167681000Y-87220686D01*
X167681001Y-89446815D01*
X167512587Y-89516574D01*
X167316045Y-89647899D01*
X167148899Y-89815045D01*
X167017574Y-90011587D01*
X166927116Y-90229973D01*
X166881000Y-90461810D01*
X166881000Y-90698190D01*
X166927116Y-90930027D01*
X167017574Y-91148413D01*
X167148899Y-91344955D01*
X167316045Y-91512101D01*
X167512587Y-91643426D01*
X167730973Y-91733884D01*
X167962810Y-91780000D01*
X168199190Y-91780000D01*
X168431027Y-91733884D01*
X168649413Y-91643426D01*
X168845955Y-91512101D01*
X169013101Y-91344955D01*
X169144426Y-91148413D01*
X169234884Y-90930027D01*
X169281000Y-90698190D01*
X169281000Y-90686929D01*
X169379944Y-90686929D01*
X169423883Y-90919189D01*
X169512289Y-91138414D01*
X169522953Y-91158362D01*
X169679954Y-91263257D01*
X170363211Y-90580000D01*
X170798789Y-90580000D01*
X171482046Y-91263257D01*
X171639047Y-91158362D01*
X171731550Y-90940834D01*
X171779838Y-90709439D01*
X171782056Y-90473071D01*
X171738117Y-90240811D01*
X171649711Y-90021586D01*
X171639047Y-90001638D01*
X171482046Y-89896743D01*
X170798789Y-90580000D01*
X170363211Y-90580000D01*
X169679954Y-89896743D01*
X169522953Y-90001638D01*
X169430450Y-90219166D01*
X169382162Y-90450561D01*
X169379944Y-90686929D01*
X169281000Y-90686929D01*
X169281000Y-90461810D01*
X169234884Y-90229973D01*
X169144426Y-90011587D01*
X169013101Y-89815045D01*
X168877010Y-89678954D01*
X169897743Y-89678954D01*
X170581000Y-90362211D01*
X171264257Y-89678954D01*
X171159362Y-89521953D01*
X170941834Y-89429450D01*
X170710439Y-89381162D01*
X170474071Y-89378944D01*
X170241811Y-89422883D01*
X170022586Y-89511289D01*
X170002638Y-89521953D01*
X169897743Y-89678954D01*
X168877010Y-89678954D01*
X168845955Y-89647899D01*
X168649413Y-89516574D01*
X168481000Y-89446815D01*
X168481000Y-88916322D01*
X172112466Y-88916322D01*
X172350160Y-89186106D01*
X172755428Y-89388645D01*
X173192422Y-89508229D01*
X173644349Y-89540261D01*
X174093841Y-89483512D01*
X174523626Y-89340161D01*
X174811840Y-89186106D01*
X175049534Y-88916322D01*
X173581000Y-87447789D01*
X172112466Y-88916322D01*
X168481000Y-88916322D01*
X168481000Y-87293349D01*
X171270739Y-87293349D01*
X171327488Y-87742841D01*
X171470839Y-88172626D01*
X171624894Y-88460840D01*
X171894678Y-88698534D01*
X173363211Y-87230000D01*
X173798789Y-87230000D01*
X175267322Y-88698534D01*
X175537106Y-88460840D01*
X175739645Y-88055572D01*
X175859229Y-87618578D01*
X175891261Y-87166651D01*
X175834512Y-86717159D01*
X175691161Y-86287374D01*
X175537106Y-85999160D01*
X175267322Y-85761466D01*
X173798789Y-87230000D01*
X173363211Y-87230000D01*
X171894678Y-85761466D01*
X171624894Y-85999160D01*
X171422355Y-86404428D01*
X171302771Y-86841422D01*
X171270739Y-87293349D01*
X168481000Y-87293349D01*
X168481000Y-87074646D01*
X168482935Y-87055000D01*
X168475212Y-86976586D01*
X168452340Y-86901185D01*
X168415197Y-86831697D01*
X168377735Y-86786049D01*
X168377733Y-86786047D01*
X168365211Y-86770789D01*
X168349954Y-86758268D01*
X167135364Y-85543678D01*
X172112466Y-85543678D01*
X173581000Y-87012211D01*
X175049534Y-85543678D01*
X174811840Y-85273894D01*
X174406572Y-85071355D01*
X173969578Y-84951771D01*
X173517651Y-84919739D01*
X173068159Y-84976488D01*
X172638374Y-85119839D01*
X172350160Y-85273894D01*
X172112466Y-85543678D01*
X167135364Y-85543678D01*
X165142737Y-83551052D01*
X165130211Y-83535789D01*
X165069303Y-83485803D01*
X164999814Y-83448660D01*
X164924414Y-83425788D01*
X164865647Y-83420000D01*
X164865646Y-83420000D01*
X164846000Y-83418065D01*
X164826354Y-83420000D01*
X163634305Y-83420000D01*
X163609393Y-83373394D01*
X163603590Y-83366322D01*
X172112466Y-83366322D01*
X172350160Y-83636106D01*
X172755428Y-83838645D01*
X173192422Y-83958229D01*
X173644349Y-83990261D01*
X174093841Y-83933512D01*
X174523626Y-83790161D01*
X174811840Y-83636106D01*
X175049534Y-83366322D01*
X173581000Y-81897789D01*
X172112466Y-83366322D01*
X163603590Y-83366322D01*
X163509422Y-83251578D01*
X163428296Y-83185000D01*
X163509422Y-83118422D01*
X163609393Y-82996606D01*
X163683679Y-82857628D01*
X163729424Y-82706827D01*
X163744870Y-82550000D01*
X163729424Y-82393173D01*
X163683679Y-82242372D01*
X163609393Y-82103394D01*
X163509422Y-81981578D01*
X163424928Y-81912236D01*
X163482494Y-81868899D01*
X163586978Y-81751943D01*
X163592045Y-81743349D01*
X171270739Y-81743349D01*
X171327488Y-82192841D01*
X171470839Y-82622626D01*
X171624894Y-82910840D01*
X171894678Y-83148534D01*
X173363211Y-81680000D01*
X173798789Y-81680000D01*
X175267322Y-83148534D01*
X175537106Y-82910840D01*
X175739645Y-82505572D01*
X175859229Y-82068578D01*
X175891261Y-81616651D01*
X175834512Y-81167159D01*
X175691161Y-80737374D01*
X175537106Y-80449160D01*
X175267322Y-80211466D01*
X173798789Y-81680000D01*
X173363211Y-81680000D01*
X171894678Y-80211466D01*
X171624894Y-80449160D01*
X171422355Y-80854428D01*
X171302771Y-81291422D01*
X171270739Y-81743349D01*
X163592045Y-81743349D01*
X163666637Y-81616851D01*
X163692282Y-81554911D01*
X163649455Y-81434000D01*
X163095000Y-81434000D01*
X163095000Y-81454000D01*
X162787000Y-81454000D01*
X162787000Y-81434000D01*
X162232545Y-81434000D01*
X162189718Y-81554911D01*
X162215363Y-81616851D01*
X162295022Y-81751943D01*
X162399506Y-81868899D01*
X162457072Y-81912236D01*
X162372578Y-81981578D01*
X162272607Y-82103394D01*
X162198321Y-82242372D01*
X162152576Y-82393173D01*
X162137130Y-82550000D01*
X161690000Y-82550000D01*
X161690000Y-79510000D01*
X162139549Y-79510000D01*
X162139549Y-80510000D01*
X162145341Y-80568810D01*
X162162496Y-80625360D01*
X162190353Y-80677477D01*
X162227842Y-80723158D01*
X162273523Y-80760647D01*
X162316740Y-80783747D01*
X162295022Y-80808057D01*
X162215363Y-80943149D01*
X162189718Y-81005089D01*
X162232545Y-81126000D01*
X162787000Y-81126000D01*
X162787000Y-81106000D01*
X163095000Y-81106000D01*
X163095000Y-81126000D01*
X163649455Y-81126000D01*
X163692282Y-81005089D01*
X163666637Y-80943149D01*
X163586978Y-80808057D01*
X163565260Y-80783747D01*
X163608477Y-80760647D01*
X163654158Y-80723158D01*
X163691647Y-80677477D01*
X163719504Y-80625360D01*
X163736659Y-80568810D01*
X163742451Y-80510000D01*
X163742451Y-79993678D01*
X172112466Y-79993678D01*
X173581000Y-81462211D01*
X175049534Y-79993678D01*
X174811840Y-79723894D01*
X174406572Y-79521355D01*
X173969578Y-79401771D01*
X173517651Y-79369739D01*
X173068159Y-79426488D01*
X172638374Y-79569839D01*
X172350160Y-79723894D01*
X172112466Y-79993678D01*
X163742451Y-79993678D01*
X163742451Y-79510000D01*
X163736659Y-79451190D01*
X163719504Y-79394640D01*
X163691647Y-79342523D01*
X163654158Y-79296842D01*
X163608477Y-79259353D01*
X163556360Y-79231496D01*
X163499810Y-79214341D01*
X163441000Y-79208549D01*
X163341000Y-79208549D01*
X163341000Y-78211810D01*
X166881000Y-78211810D01*
X166881000Y-78448190D01*
X166927116Y-78680027D01*
X167017574Y-78898413D01*
X167148899Y-79094955D01*
X167316045Y-79262101D01*
X167512587Y-79393426D01*
X167730973Y-79483884D01*
X167962810Y-79530000D01*
X168199190Y-79530000D01*
X168431027Y-79483884D01*
X168649413Y-79393426D01*
X168845955Y-79262101D01*
X169013101Y-79094955D01*
X169144426Y-78898413D01*
X169234884Y-78680027D01*
X169281000Y-78448190D01*
X169281000Y-78211810D01*
X169234884Y-77979973D01*
X169144426Y-77761587D01*
X169013101Y-77565045D01*
X168845955Y-77397899D01*
X168649413Y-77266574D01*
X168431027Y-77176116D01*
X168199190Y-77130000D01*
X167962810Y-77130000D01*
X167730973Y-77176116D01*
X167512587Y-77266574D01*
X167316045Y-77397899D01*
X167148899Y-77565045D01*
X167017574Y-77761587D01*
X166927116Y-77979973D01*
X166881000Y-78211810D01*
X163341000Y-78211810D01*
X163341000Y-76111810D01*
X169381000Y-76111810D01*
X169381000Y-76348190D01*
X169427116Y-76580027D01*
X169517574Y-76798413D01*
X169648899Y-76994955D01*
X169816045Y-77162101D01*
X169992494Y-77280000D01*
X169816045Y-77397899D01*
X169648899Y-77565045D01*
X169517574Y-77761587D01*
X169427116Y-77979973D01*
X169381000Y-78211810D01*
X169381000Y-78448190D01*
X169427116Y-78680027D01*
X169517574Y-78898413D01*
X169648899Y-79094955D01*
X169816045Y-79262101D01*
X170012587Y-79393426D01*
X170230973Y-79483884D01*
X170462810Y-79530000D01*
X170699190Y-79530000D01*
X170931027Y-79483884D01*
X171149413Y-79393426D01*
X171345955Y-79262101D01*
X171513101Y-79094955D01*
X171644426Y-78898413D01*
X171734884Y-78680027D01*
X171781000Y-78448190D01*
X171781000Y-78211810D01*
X171734884Y-77979973D01*
X171644426Y-77761587D01*
X171513101Y-77565045D01*
X171345955Y-77397899D01*
X171169506Y-77280000D01*
X171345955Y-77162101D01*
X171513101Y-76994955D01*
X171644426Y-76798413D01*
X171719850Y-76616322D01*
X172912466Y-76616322D01*
X173150160Y-76886106D01*
X173555428Y-77088645D01*
X173992422Y-77208229D01*
X174444349Y-77240261D01*
X174893841Y-77183512D01*
X175323626Y-77040161D01*
X175611840Y-76886106D01*
X175849534Y-76616322D01*
X174381000Y-75147789D01*
X172912466Y-76616322D01*
X171719850Y-76616322D01*
X171734884Y-76580027D01*
X171781000Y-76348190D01*
X171781000Y-76111810D01*
X171734884Y-75879973D01*
X171644426Y-75661587D01*
X171513101Y-75465045D01*
X171345955Y-75297899D01*
X171149413Y-75166574D01*
X170931027Y-75076116D01*
X170699190Y-75030000D01*
X170462810Y-75030000D01*
X170230973Y-75076116D01*
X170012587Y-75166574D01*
X169816045Y-75297899D01*
X169648899Y-75465045D01*
X169517574Y-75661587D01*
X169427116Y-75879973D01*
X169381000Y-76111810D01*
X163341000Y-76111810D01*
X163341000Y-74993349D01*
X172070739Y-74993349D01*
X172127488Y-75442841D01*
X172270839Y-75872626D01*
X172424894Y-76160840D01*
X172694678Y-76398534D01*
X174163211Y-74930000D01*
X174598789Y-74930000D01*
X176067322Y-76398534D01*
X176337106Y-76160840D01*
X176539645Y-75755572D01*
X176659229Y-75318578D01*
X176691261Y-74866651D01*
X176634512Y-74417159D01*
X176491161Y-73987374D01*
X176337106Y-73699160D01*
X176067322Y-73461466D01*
X174598789Y-74930000D01*
X174163211Y-74930000D01*
X172694678Y-73461466D01*
X172424894Y-73699160D01*
X172222355Y-74104428D01*
X172102771Y-74541422D01*
X172070739Y-74993349D01*
X163341000Y-74993349D01*
X163341000Y-73444685D01*
X164855685Y-71930000D01*
X166947815Y-71930000D01*
X167017574Y-72098413D01*
X167148899Y-72294955D01*
X167316045Y-72462101D01*
X167512587Y-72593426D01*
X167730973Y-72683884D01*
X167962810Y-72730000D01*
X168199190Y-72730000D01*
X168431027Y-72683884D01*
X168649413Y-72593426D01*
X168845955Y-72462101D01*
X169013101Y-72294955D01*
X169144426Y-72098413D01*
X169234884Y-71880027D01*
X169281000Y-71648190D01*
X169281000Y-71636929D01*
X169379944Y-71636929D01*
X169423883Y-71869189D01*
X169512289Y-72088414D01*
X169522953Y-72108362D01*
X169679954Y-72213257D01*
X170363211Y-71530000D01*
X170798789Y-71530000D01*
X171482046Y-72213257D01*
X171639047Y-72108362D01*
X171731550Y-71890834D01*
X171779838Y-71659439D01*
X171782056Y-71423071D01*
X171738117Y-71190811D01*
X171649711Y-70971586D01*
X171639047Y-70951638D01*
X171482046Y-70846743D01*
X170798789Y-71530000D01*
X170363211Y-71530000D01*
X169679954Y-70846743D01*
X169522953Y-70951638D01*
X169430450Y-71169166D01*
X169382162Y-71400561D01*
X169379944Y-71636929D01*
X169281000Y-71636929D01*
X169281000Y-71411810D01*
X169234884Y-71179973D01*
X169144426Y-70961587D01*
X169013101Y-70765045D01*
X168877010Y-70628954D01*
X169897743Y-70628954D01*
X170581000Y-71312211D01*
X171264257Y-70628954D01*
X171159362Y-70471953D01*
X170941834Y-70379450D01*
X170710439Y-70331162D01*
X170474071Y-70328944D01*
X170241811Y-70372883D01*
X170022586Y-70461289D01*
X170002638Y-70471953D01*
X169897743Y-70628954D01*
X168877010Y-70628954D01*
X168845955Y-70597899D01*
X168649413Y-70466574D01*
X168431027Y-70376116D01*
X168199190Y-70330000D01*
X167962810Y-70330000D01*
X167730973Y-70376116D01*
X167512587Y-70466574D01*
X167316045Y-70597899D01*
X167148899Y-70765045D01*
X167017574Y-70961587D01*
X166947815Y-71130000D01*
X164709647Y-71130000D01*
X164690000Y-71128065D01*
X164670353Y-71130000D01*
X164611586Y-71135788D01*
X164536186Y-71158660D01*
X164466697Y-71195803D01*
X164405789Y-71245789D01*
X164393263Y-71261052D01*
X162672048Y-72982267D01*
X162656790Y-72994789D01*
X162644268Y-73010047D01*
X162644265Y-73010050D01*
X162606803Y-73055698D01*
X162569661Y-73125186D01*
X162546788Y-73200587D01*
X162539065Y-73279000D01*
X162541001Y-73298656D01*
X162541000Y-79208549D01*
X162441000Y-79208549D01*
X162382190Y-79214341D01*
X162325640Y-79231496D01*
X162273523Y-79259353D01*
X162227842Y-79296842D01*
X162190353Y-79342523D01*
X162162496Y-79394640D01*
X162145341Y-79451190D01*
X162139549Y-79510000D01*
X161690000Y-79510000D01*
X161690000Y-71920685D01*
X163360686Y-70250000D01*
X171157315Y-70250000D01*
X171812001Y-70904687D01*
X171812000Y-72097314D01*
X171265304Y-72644010D01*
X171166210Y-72577797D01*
X171264257Y-72431046D01*
X170581000Y-71747789D01*
X169897743Y-72431046D01*
X169995790Y-72577797D01*
X169816045Y-72697899D01*
X169648899Y-72865045D01*
X169517574Y-73061587D01*
X169427116Y-73279973D01*
X169381000Y-73511810D01*
X169381000Y-73748190D01*
X169427116Y-73980027D01*
X169517574Y-74198413D01*
X169648899Y-74394955D01*
X169816045Y-74562101D01*
X170012587Y-74693426D01*
X170230973Y-74783884D01*
X170462810Y-74830000D01*
X170699190Y-74830000D01*
X170931027Y-74783884D01*
X171149413Y-74693426D01*
X171345955Y-74562101D01*
X171513101Y-74394955D01*
X171644426Y-74198413D01*
X171734884Y-73980027D01*
X171781000Y-73748190D01*
X171781000Y-73511810D01*
X171739169Y-73301516D01*
X171797007Y-73243678D01*
X172912466Y-73243678D01*
X174381000Y-74712211D01*
X175849534Y-73243678D01*
X175611840Y-72973894D01*
X175206572Y-72771355D01*
X174769578Y-72651771D01*
X174317651Y-72619739D01*
X173868159Y-72676488D01*
X173438374Y-72819839D01*
X173150160Y-72973894D01*
X172912466Y-73243678D01*
X171797007Y-73243678D01*
X172480954Y-72559732D01*
X172496211Y-72547211D01*
X172546197Y-72486303D01*
X172583340Y-72416814D01*
X172606212Y-72341414D01*
X172612000Y-72282647D01*
X172612000Y-72282646D01*
X172613935Y-72263000D01*
X172612000Y-72243354D01*
X172612000Y-70758647D01*
X172613935Y-70739000D01*
X172606212Y-70660586D01*
X172583340Y-70585185D01*
X172546197Y-70515697D01*
X172508735Y-70470049D01*
X172508733Y-70470047D01*
X172496211Y-70454789D01*
X172480953Y-70442267D01*
X171905008Y-69866322D01*
X172112466Y-69866322D01*
X172350160Y-70136106D01*
X172755428Y-70338645D01*
X173192422Y-70458229D01*
X173644349Y-70490261D01*
X174093841Y-70433512D01*
X174523626Y-70290161D01*
X174811840Y-70136106D01*
X175049534Y-69866322D01*
X173581000Y-68397789D01*
X172112466Y-69866322D01*
X171905008Y-69866322D01*
X171619737Y-69581052D01*
X171607211Y-69565789D01*
X171546303Y-69515803D01*
X171476814Y-69478660D01*
X171401414Y-69455788D01*
X171342647Y-69450000D01*
X171342646Y-69450000D01*
X171323000Y-69448065D01*
X171303354Y-69450000D01*
X163214647Y-69450000D01*
X163195000Y-69448065D01*
X163116586Y-69455788D01*
X163041186Y-69478660D01*
X162971697Y-69515803D01*
X162926049Y-69553265D01*
X162926047Y-69553267D01*
X162910789Y-69565789D01*
X162898267Y-69581047D01*
X161021052Y-71458263D01*
X161005789Y-71470789D01*
X160955803Y-71531698D01*
X160918660Y-71601187D01*
X160916468Y-71608414D01*
X160895788Y-71676587D01*
X160888065Y-71755000D01*
X136900000Y-71755000D01*
X136900000Y-68243349D01*
X171270739Y-68243349D01*
X171327488Y-68692841D01*
X171470839Y-69122626D01*
X171624894Y-69410840D01*
X171894678Y-69648534D01*
X173363211Y-68180000D01*
X173798789Y-68180000D01*
X175267322Y-69648534D01*
X175537106Y-69410840D01*
X175739645Y-69005572D01*
X175859229Y-68568578D01*
X175891261Y-68116651D01*
X175834512Y-67667159D01*
X175691161Y-67237374D01*
X175537106Y-66949160D01*
X175267322Y-66711466D01*
X173798789Y-68180000D01*
X173363211Y-68180000D01*
X171894678Y-66711466D01*
X171624894Y-66949160D01*
X171422355Y-67354428D01*
X171302771Y-67791422D01*
X171270739Y-68243349D01*
X136900000Y-68243349D01*
X136900000Y-66693337D01*
X136919576Y-66493678D01*
X172112466Y-66493678D01*
X173581000Y-67962211D01*
X175049534Y-66493678D01*
X174811840Y-66223894D01*
X174406572Y-66021355D01*
X173969578Y-65901771D01*
X173517651Y-65869739D01*
X173068159Y-65926488D01*
X172638374Y-66069839D01*
X172350160Y-66223894D01*
X172112466Y-66493678D01*
X136919576Y-66493678D01*
X136930902Y-66378174D01*
X137017109Y-66092645D01*
X137157129Y-65829305D01*
X137345633Y-65598176D01*
X137575443Y-65408062D01*
X137837800Y-65266207D01*
X138122711Y-65178012D01*
X138436795Y-65145000D01*
X177146663Y-65145000D01*
X177461826Y-65175902D01*
X177461826Y-65175902D01*
G37*
X177461826Y-65175902D02*
X177747355Y-65262109D01*
X178010695Y-65402129D01*
X178241824Y-65590633D01*
X178431938Y-65820443D01*
X178573793Y-66082800D01*
X178661988Y-66367711D01*
X178695001Y-66681805D01*
X178695000Y-102216663D01*
X178664098Y-102531826D01*
X178577892Y-102817354D01*
X178437872Y-103080694D01*
X178249368Y-103311822D01*
X178019560Y-103501937D01*
X177757202Y-103643793D01*
X177472289Y-103731988D01*
X177158206Y-103765000D01*
X138448337Y-103765000D01*
X138133174Y-103734098D01*
X137847646Y-103647892D01*
X137584306Y-103507872D01*
X137353178Y-103319368D01*
X137163063Y-103089560D01*
X137021207Y-102827202D01*
X136933012Y-102542289D01*
X136919773Y-102416322D01*
X172112466Y-102416322D01*
X172350160Y-102686106D01*
X172755428Y-102888645D01*
X173192422Y-103008229D01*
X173644349Y-103040261D01*
X174093841Y-102983512D01*
X174523626Y-102840161D01*
X174811840Y-102686106D01*
X175049534Y-102416322D01*
X173581000Y-100947789D01*
X172112466Y-102416322D01*
X136919773Y-102416322D01*
X136900000Y-102228206D01*
X136900000Y-100793349D01*
X171270739Y-100793349D01*
X171327488Y-101242841D01*
X171470839Y-101672626D01*
X171624894Y-101960840D01*
X171894678Y-102198534D01*
X173363211Y-100730000D01*
X173798789Y-100730000D01*
X175267322Y-102198534D01*
X175537106Y-101960840D01*
X175739645Y-101555572D01*
X175859229Y-101118578D01*
X175891261Y-100666651D01*
X175834512Y-100217159D01*
X175691161Y-99787374D01*
X175537106Y-99499160D01*
X175267322Y-99261466D01*
X173798789Y-100730000D01*
X173363211Y-100730000D01*
X171894678Y-99261466D01*
X171624894Y-99499160D01*
X171422355Y-99904428D01*
X171302771Y-100341422D01*
X171270739Y-100793349D01*
X136900000Y-100793349D01*
X136900000Y-99043678D01*
X172112466Y-99043678D01*
X173581000Y-100512211D01*
X175049534Y-99043678D01*
X174811840Y-98773894D01*
X174406572Y-98571355D01*
X173969578Y-98451771D01*
X173517651Y-98419739D01*
X173068159Y-98476488D01*
X172638374Y-98619839D01*
X172350160Y-98773894D01*
X172112466Y-99043678D01*
X136900000Y-99043678D01*
X136900000Y-97261810D01*
X166881000Y-97261810D01*
X166881000Y-97498190D01*
X166927116Y-97730027D01*
X167017574Y-97948413D01*
X167148899Y-98144955D01*
X167316045Y-98312101D01*
X167512587Y-98443426D01*
X167730973Y-98533884D01*
X167962810Y-98580000D01*
X168199190Y-98580000D01*
X168431027Y-98533884D01*
X168649413Y-98443426D01*
X168845955Y-98312101D01*
X169013101Y-98144955D01*
X169144426Y-97948413D01*
X169234884Y-97730027D01*
X169281000Y-97498190D01*
X169281000Y-97261810D01*
X169234884Y-97029973D01*
X169144426Y-96811587D01*
X169013101Y-96615045D01*
X168845955Y-96447899D01*
X168649413Y-96316574D01*
X168431027Y-96226116D01*
X168199190Y-96180000D01*
X167962810Y-96180000D01*
X167730973Y-96226116D01*
X167512587Y-96316574D01*
X167316045Y-96447899D01*
X167148899Y-96615045D01*
X167017574Y-96811587D01*
X166927116Y-97029973D01*
X166881000Y-97261810D01*
X136900000Y-97261810D01*
X136900000Y-95161810D01*
X169381000Y-95161810D01*
X169381000Y-95398190D01*
X169427116Y-95630027D01*
X169517574Y-95848413D01*
X169648899Y-96044955D01*
X169816045Y-96212101D01*
X169992494Y-96330000D01*
X169816045Y-96447899D01*
X169648899Y-96615045D01*
X169517574Y-96811587D01*
X169427116Y-97029973D01*
X169381000Y-97261810D01*
X169381000Y-97498190D01*
X169427116Y-97730027D01*
X169517574Y-97948413D01*
X169648899Y-98144955D01*
X169816045Y-98312101D01*
X170012587Y-98443426D01*
X170230973Y-98533884D01*
X170462810Y-98580000D01*
X170699190Y-98580000D01*
X170931027Y-98533884D01*
X171149413Y-98443426D01*
X171345955Y-98312101D01*
X171513101Y-98144955D01*
X171644426Y-97948413D01*
X171734884Y-97730027D01*
X171781000Y-97498190D01*
X171781000Y-97261810D01*
X171734884Y-97029973D01*
X171644426Y-96811587D01*
X171513101Y-96615045D01*
X171345955Y-96447899D01*
X171169506Y-96330000D01*
X171345955Y-96212101D01*
X171513101Y-96044955D01*
X171644426Y-95848413D01*
X171719850Y-95666322D01*
X172912466Y-95666322D01*
X173150160Y-95936106D01*
X173555428Y-96138645D01*
X173992422Y-96258229D01*
X174444349Y-96290261D01*
X174893841Y-96233512D01*
X175323626Y-96090161D01*
X175611840Y-95936106D01*
X175849534Y-95666322D01*
X174381000Y-94197789D01*
X172912466Y-95666322D01*
X171719850Y-95666322D01*
X171734884Y-95630027D01*
X171781000Y-95398190D01*
X171781000Y-95161810D01*
X171734884Y-94929973D01*
X171644426Y-94711587D01*
X171513101Y-94515045D01*
X171345955Y-94347899D01*
X171149413Y-94216574D01*
X170931027Y-94126116D01*
X170699190Y-94080000D01*
X170462810Y-94080000D01*
X170230973Y-94126116D01*
X170012587Y-94216574D01*
X169816045Y-94347899D01*
X169648899Y-94515045D01*
X169517574Y-94711587D01*
X169427116Y-94929973D01*
X169381000Y-95161810D01*
X136900000Y-95161810D01*
X136900000Y-94043349D01*
X172070739Y-94043349D01*
X172127488Y-94492841D01*
X172270839Y-94922626D01*
X172424894Y-95210840D01*
X172694678Y-95448534D01*
X174163211Y-93980000D01*
X174598789Y-93980000D01*
X176067322Y-95448534D01*
X176337106Y-95210840D01*
X176539645Y-94805572D01*
X176659229Y-94368578D01*
X176691261Y-93916651D01*
X176634512Y-93467159D01*
X176491161Y-93037374D01*
X176337106Y-92749160D01*
X176067322Y-92511466D01*
X174598789Y-93980000D01*
X174163211Y-93980000D01*
X172694678Y-92511466D01*
X172424894Y-92749160D01*
X172222355Y-93154428D01*
X172102771Y-93591422D01*
X172070739Y-94043349D01*
X136900000Y-94043349D01*
X136900000Y-90188418D01*
X139325000Y-90188418D01*
X139325129Y-90189724D01*
X139325195Y-90199221D01*
X139326976Y-90216164D01*
X139326976Y-90233191D01*
X139327523Y-90238399D01*
X139368966Y-90607873D01*
X139376041Y-90641156D01*
X139382635Y-90674458D01*
X139384182Y-90679461D01*
X139496600Y-91033847D01*
X139510003Y-91065117D01*
X139522942Y-91096511D01*
X139525432Y-91101117D01*
X139704544Y-91426920D01*
X139723766Y-91454992D01*
X139742555Y-91483272D01*
X139745892Y-91487307D01*
X139984874Y-91772115D01*
X140009166Y-91795904D01*
X140033107Y-91820012D01*
X140037164Y-91823322D01*
X140326915Y-92056287D01*
X140355356Y-92074898D01*
X140383533Y-92093904D01*
X140388156Y-92096362D01*
X140717638Y-92268611D01*
X140749145Y-92281340D01*
X140780484Y-92294514D01*
X140785496Y-92296028D01*
X141142161Y-92401000D01*
X141175595Y-92407378D01*
X141208840Y-92414202D01*
X141214051Y-92414714D01*
X141584311Y-92448411D01*
X141618370Y-92448173D01*
X141652286Y-92448410D01*
X141657497Y-92447900D01*
X142027252Y-92409037D01*
X142060603Y-92402191D01*
X142093931Y-92395833D01*
X142098944Y-92394320D01*
X142454108Y-92284378D01*
X142485456Y-92271200D01*
X142516952Y-92258475D01*
X142521576Y-92256017D01*
X142848620Y-92079186D01*
X142876832Y-92060157D01*
X142905238Y-92041568D01*
X142909296Y-92038259D01*
X143195766Y-91801271D01*
X143219725Y-91777143D01*
X143243998Y-91753374D01*
X143247336Y-91749339D01*
X143482319Y-91461222D01*
X143501142Y-91432890D01*
X143520330Y-91404868D01*
X143522820Y-91400263D01*
X143697366Y-91071990D01*
X143710334Y-91040527D01*
X143723706Y-91009328D01*
X143725255Y-91004326D01*
X143832715Y-90648404D01*
X143839322Y-90615035D01*
X143846383Y-90581817D01*
X143846930Y-90576609D01*
X143883210Y-90206594D01*
X143885000Y-90188419D01*
X143885000Y-90188418D01*
X146310000Y-90188418D01*
X146310129Y-90189724D01*
X146310195Y-90199221D01*
X146311976Y-90216164D01*
X146311976Y-90233191D01*
X146312523Y-90238399D01*
X146353966Y-90607873D01*
X146361041Y-90641156D01*
X146367635Y-90674458D01*
X146369182Y-90679461D01*
X146481600Y-91033847D01*
X146495003Y-91065117D01*
X146507942Y-91096511D01*
X146510432Y-91101117D01*
X146689544Y-91426920D01*
X146708766Y-91454992D01*
X146727555Y-91483272D01*
X146730892Y-91487307D01*
X146969874Y-91772115D01*
X146994166Y-91795904D01*
X147018107Y-91820012D01*
X147022164Y-91823322D01*
X147311915Y-92056287D01*
X147340356Y-92074898D01*
X147368533Y-92093904D01*
X147373156Y-92096362D01*
X147702638Y-92268611D01*
X147734145Y-92281340D01*
X147765484Y-92294514D01*
X147770496Y-92296028D01*
X148127161Y-92401000D01*
X148160595Y-92407378D01*
X148193840Y-92414202D01*
X148199051Y-92414714D01*
X148569311Y-92448411D01*
X148603370Y-92448173D01*
X148637286Y-92448410D01*
X148642497Y-92447900D01*
X149012252Y-92409037D01*
X149045603Y-92402191D01*
X149078931Y-92395833D01*
X149083944Y-92394320D01*
X149439108Y-92284378D01*
X149470456Y-92271200D01*
X149501952Y-92258475D01*
X149506576Y-92256017D01*
X149833620Y-92079186D01*
X149861832Y-92060157D01*
X149890238Y-92041568D01*
X149894296Y-92038259D01*
X150180766Y-91801271D01*
X150204725Y-91777143D01*
X150228998Y-91753374D01*
X150232336Y-91749339D01*
X150467319Y-91461222D01*
X150486142Y-91432890D01*
X150505330Y-91404868D01*
X150507820Y-91400263D01*
X150682366Y-91071990D01*
X150695334Y-91040527D01*
X150708706Y-91009328D01*
X150710255Y-91004326D01*
X150817715Y-90648404D01*
X150824322Y-90615035D01*
X150831383Y-90581817D01*
X150831930Y-90576609D01*
X150868210Y-90206594D01*
X150870000Y-90188419D01*
X150870000Y-90188418D01*
X153295000Y-90188418D01*
X153295129Y-90189724D01*
X153295195Y-90199221D01*
X153296976Y-90216164D01*
X153296976Y-90233191D01*
X153297523Y-90238399D01*
X153338966Y-90607873D01*
X153346041Y-90641156D01*
X153352635Y-90674458D01*
X153354182Y-90679461D01*
X153466600Y-91033847D01*
X153480003Y-91065117D01*
X153492942Y-91096511D01*
X153495432Y-91101117D01*
X153674544Y-91426920D01*
X153693766Y-91454992D01*
X153712555Y-91483272D01*
X153715892Y-91487307D01*
X153954874Y-91772115D01*
X153979166Y-91795904D01*
X154003107Y-91820012D01*
X154007164Y-91823322D01*
X154296915Y-92056287D01*
X154325356Y-92074898D01*
X154353533Y-92093904D01*
X154358156Y-92096362D01*
X154687638Y-92268611D01*
X154719145Y-92281340D01*
X154750484Y-92294514D01*
X154755496Y-92296028D01*
X155112161Y-92401000D01*
X155145595Y-92407378D01*
X155178840Y-92414202D01*
X155184051Y-92414714D01*
X155554311Y-92448411D01*
X155588370Y-92448173D01*
X155622286Y-92448410D01*
X155627497Y-92447900D01*
X155997252Y-92409037D01*
X156030603Y-92402191D01*
X156063931Y-92395833D01*
X156068944Y-92394320D01*
X156424108Y-92284378D01*
X156455456Y-92271200D01*
X156486952Y-92258475D01*
X156491576Y-92256017D01*
X156818620Y-92079186D01*
X156846832Y-92060157D01*
X156875238Y-92041568D01*
X156879296Y-92038259D01*
X157165766Y-91801271D01*
X157189725Y-91777143D01*
X157213998Y-91753374D01*
X157217336Y-91749339D01*
X157452319Y-91461222D01*
X157471142Y-91432890D01*
X157490330Y-91404868D01*
X157492820Y-91400263D01*
X157667366Y-91071990D01*
X157680334Y-91040527D01*
X157693706Y-91009328D01*
X157695255Y-91004326D01*
X157802715Y-90648404D01*
X157809322Y-90615035D01*
X157816383Y-90581817D01*
X157816930Y-90576609D01*
X157853210Y-90206594D01*
X157855000Y-90188419D01*
X157855000Y-78721581D01*
X157854871Y-78720275D01*
X157854805Y-78710780D01*
X157853024Y-78693837D01*
X157853024Y-78676809D01*
X157852477Y-78671601D01*
X157811034Y-78302127D01*
X157803961Y-78268852D01*
X157797365Y-78235541D01*
X157795817Y-78230539D01*
X157683400Y-77876152D01*
X157669987Y-77844857D01*
X157657058Y-77813489D01*
X157654568Y-77808883D01*
X157475456Y-77483080D01*
X157456246Y-77455025D01*
X157437445Y-77426727D01*
X157434108Y-77422693D01*
X157195126Y-77137885D01*
X157170833Y-77114096D01*
X157146893Y-77089988D01*
X157142835Y-77086678D01*
X156853085Y-76853712D01*
X156824618Y-76835084D01*
X156796467Y-76816096D01*
X156791844Y-76813637D01*
X156462362Y-76641389D01*
X156430840Y-76628653D01*
X156399517Y-76615486D01*
X156394504Y-76613972D01*
X156037839Y-76509000D01*
X156004405Y-76502622D01*
X155971160Y-76495798D01*
X155965949Y-76495286D01*
X155595689Y-76461589D01*
X155561630Y-76461827D01*
X155527714Y-76461590D01*
X155522503Y-76462100D01*
X155152749Y-76500963D01*
X155119411Y-76507807D01*
X155086069Y-76514167D01*
X155081056Y-76515680D01*
X154725892Y-76625622D01*
X154694555Y-76638795D01*
X154663048Y-76651525D01*
X154658424Y-76653983D01*
X154331379Y-76830815D01*
X154303179Y-76849836D01*
X154274761Y-76868432D01*
X154270703Y-76871741D01*
X153984234Y-77108730D01*
X153960294Y-77132838D01*
X153936002Y-77156626D01*
X153932664Y-77160661D01*
X153697681Y-77448778D01*
X153678858Y-77477110D01*
X153659670Y-77505132D01*
X153657180Y-77509737D01*
X153482635Y-77838009D01*
X153469686Y-77869426D01*
X153456294Y-77900672D01*
X153454745Y-77905674D01*
X153347285Y-78261597D01*
X153340678Y-78294965D01*
X153333617Y-78328184D01*
X153333070Y-78333391D01*
X153296790Y-78703407D01*
X153296790Y-78703416D01*
X153295001Y-78721581D01*
X153295000Y-90188418D01*
X150870000Y-90188418D01*
X150870000Y-78721581D01*
X150869871Y-78720275D01*
X150869805Y-78710780D01*
X150868024Y-78693837D01*
X150868024Y-78676809D01*
X150867477Y-78671601D01*
X150826034Y-78302127D01*
X150818961Y-78268852D01*
X150812365Y-78235541D01*
X150810817Y-78230539D01*
X150698400Y-77876152D01*
X150684987Y-77844857D01*
X150672058Y-77813489D01*
X150669568Y-77808883D01*
X150490456Y-77483080D01*
X150471246Y-77455025D01*
X150452445Y-77426727D01*
X150449108Y-77422693D01*
X150210126Y-77137885D01*
X150185833Y-77114096D01*
X150161893Y-77089988D01*
X150157835Y-77086678D01*
X149868085Y-76853712D01*
X149839618Y-76835084D01*
X149811467Y-76816096D01*
X149806844Y-76813637D01*
X149477362Y-76641389D01*
X149445840Y-76628653D01*
X149414517Y-76615486D01*
X149409504Y-76613972D01*
X149052839Y-76509000D01*
X149019405Y-76502622D01*
X148986160Y-76495798D01*
X148980949Y-76495286D01*
X148610689Y-76461589D01*
X148576630Y-76461827D01*
X148542714Y-76461590D01*
X148537503Y-76462100D01*
X148167749Y-76500963D01*
X148134411Y-76507807D01*
X148101069Y-76514167D01*
X148096056Y-76515680D01*
X147740892Y-76625622D01*
X147709555Y-76638795D01*
X147678048Y-76651525D01*
X147673424Y-76653983D01*
X147346379Y-76830815D01*
X147318179Y-76849836D01*
X147289761Y-76868432D01*
X147285703Y-76871741D01*
X146999234Y-77108730D01*
X146975294Y-77132838D01*
X146951002Y-77156626D01*
X146947664Y-77160661D01*
X146712681Y-77448778D01*
X146693858Y-77477110D01*
X146674670Y-77505132D01*
X146672180Y-77509737D01*
X146497635Y-77838009D01*
X146484686Y-77869426D01*
X146471294Y-77900672D01*
X146469745Y-77905674D01*
X146362285Y-78261597D01*
X146355678Y-78294965D01*
X146348617Y-78328184D01*
X146348070Y-78333391D01*
X146311790Y-78703407D01*
X146311790Y-78703416D01*
X146310001Y-78721581D01*
X146310000Y-90188418D01*
X143885000Y-90188418D01*
X143885000Y-78721581D01*
X143884871Y-78720275D01*
X143884805Y-78710780D01*
X143883024Y-78693837D01*
X143883024Y-78676809D01*
X143882477Y-78671601D01*
X143841034Y-78302127D01*
X143833961Y-78268852D01*
X143827365Y-78235541D01*
X143825817Y-78230539D01*
X143713400Y-77876152D01*
X143699987Y-77844857D01*
X143687058Y-77813489D01*
X143684568Y-77808883D01*
X143505456Y-77483080D01*
X143486246Y-77455025D01*
X143467445Y-77426727D01*
X143464108Y-77422693D01*
X143225126Y-77137885D01*
X143200833Y-77114096D01*
X143176893Y-77089988D01*
X143172835Y-77086678D01*
X142883085Y-76853712D01*
X142854618Y-76835084D01*
X142826467Y-76816096D01*
X142821844Y-76813637D01*
X142492362Y-76641389D01*
X142460840Y-76628653D01*
X142429517Y-76615486D01*
X142424504Y-76613972D01*
X142067839Y-76509000D01*
X142034405Y-76502622D01*
X142001160Y-76495798D01*
X141995949Y-76495286D01*
X141625689Y-76461589D01*
X141591630Y-76461827D01*
X141557714Y-76461590D01*
X141552503Y-76462100D01*
X141182749Y-76500963D01*
X141149411Y-76507807D01*
X141116069Y-76514167D01*
X141111056Y-76515680D01*
X140755892Y-76625622D01*
X140724555Y-76638795D01*
X140693048Y-76651525D01*
X140688424Y-76653983D01*
X140361379Y-76830815D01*
X140333179Y-76849836D01*
X140304761Y-76868432D01*
X140300703Y-76871741D01*
X140014234Y-77108730D01*
X139990294Y-77132838D01*
X139966002Y-77156626D01*
X139962664Y-77160661D01*
X139727681Y-77448778D01*
X139708858Y-77477110D01*
X139689670Y-77505132D01*
X139687180Y-77509737D01*
X139512635Y-77838009D01*
X139499686Y-77869426D01*
X139486294Y-77900672D01*
X139484745Y-77905674D01*
X139377285Y-78261597D01*
X139370678Y-78294965D01*
X139363617Y-78328184D01*
X139363070Y-78333391D01*
X139326790Y-78703407D01*
X139326790Y-78703416D01*
X139325001Y-78721581D01*
X139325000Y-90188418D01*
X136900000Y-90188418D01*
X136900000Y-71755000D01*
X160888065Y-71755000D01*
X160890000Y-71774646D01*
X160890001Y-86975343D01*
X160888065Y-86995000D01*
X160895788Y-87073413D01*
X160918661Y-87148814D01*
X160955803Y-87218302D01*
X160993265Y-87263950D01*
X160993268Y-87263953D01*
X161005790Y-87279211D01*
X161021048Y-87291733D01*
X161628263Y-87898948D01*
X161640789Y-87914211D01*
X161656050Y-87926735D01*
X161701697Y-87964197D01*
X161771186Y-88001340D01*
X161846586Y-88024212D01*
X161925000Y-88031935D01*
X161944647Y-88030000D01*
X162247695Y-88030000D01*
X162272607Y-88076606D01*
X162372578Y-88198422D01*
X162453704Y-88265000D01*
X162372578Y-88331578D01*
X162272607Y-88453394D01*
X162198321Y-88592372D01*
X162152576Y-88743173D01*
X162137130Y-88900000D01*
X162152576Y-89056827D01*
X162198321Y-89207628D01*
X162272607Y-89346606D01*
X162372578Y-89468422D01*
X162494394Y-89568393D01*
X162633372Y-89642679D01*
X162784173Y-89688424D01*
X162901707Y-89700000D01*
X162980293Y-89700000D01*
X163097827Y-89688424D01*
X163248628Y-89642679D01*
X163387606Y-89568393D01*
X163509422Y-89468422D01*
X163609393Y-89346606D01*
X163634305Y-89300000D01*
X163664315Y-89300000D01*
X167313267Y-92948953D01*
X167325789Y-92964211D01*
X167341047Y-92976733D01*
X167341049Y-92976735D01*
X167372982Y-93002941D01*
X167386697Y-93014197D01*
X167456186Y-93051340D01*
X167531586Y-93074212D01*
X167590353Y-93080000D01*
X167590363Y-93080000D01*
X167609999Y-93081934D01*
X167629635Y-93080000D01*
X169447815Y-93080000D01*
X169517574Y-93248413D01*
X169648899Y-93444955D01*
X169816045Y-93612101D01*
X170012587Y-93743426D01*
X170230973Y-93833884D01*
X170462810Y-93880000D01*
X170699190Y-93880000D01*
X170931027Y-93833884D01*
X171149413Y-93743426D01*
X171345955Y-93612101D01*
X171513101Y-93444955D01*
X171644426Y-93248413D01*
X171734884Y-93030027D01*
X171781000Y-92798190D01*
X171781000Y-92561810D01*
X171734884Y-92329973D01*
X171719851Y-92293678D01*
X172912466Y-92293678D01*
X174381000Y-93762211D01*
X175849534Y-92293678D01*
X175611840Y-92023894D01*
X175206572Y-91821355D01*
X174769578Y-91701771D01*
X174317651Y-91669739D01*
X173868159Y-91726488D01*
X173438374Y-91869839D01*
X173150160Y-92023894D01*
X172912466Y-92293678D01*
X171719851Y-92293678D01*
X171644426Y-92111587D01*
X171513101Y-91915045D01*
X171345955Y-91747899D01*
X171166210Y-91627797D01*
X171264257Y-91481046D01*
X170581000Y-90797789D01*
X169897743Y-91481046D01*
X169995790Y-91627797D01*
X169816045Y-91747899D01*
X169648899Y-91915045D01*
X169517574Y-92111587D01*
X169447815Y-92280000D01*
X167775686Y-92280000D01*
X164126737Y-88631052D01*
X164114211Y-88615789D01*
X164053303Y-88565803D01*
X163983814Y-88528660D01*
X163908414Y-88505788D01*
X163849647Y-88500000D01*
X163849646Y-88500000D01*
X163830000Y-88498065D01*
X163810354Y-88500000D01*
X163634305Y-88500000D01*
X163609393Y-88453394D01*
X163509422Y-88331578D01*
X163428296Y-88265000D01*
X163509422Y-88198422D01*
X163609393Y-88076606D01*
X163683679Y-87937628D01*
X163729424Y-87786827D01*
X163744870Y-87630000D01*
X163729424Y-87473173D01*
X163683679Y-87322372D01*
X163609393Y-87183394D01*
X163509422Y-87061578D01*
X163424928Y-86992236D01*
X163482494Y-86948899D01*
X163586978Y-86831943D01*
X163666637Y-86696851D01*
X163692282Y-86634911D01*
X163649455Y-86514000D01*
X163095000Y-86514000D01*
X163095000Y-86534000D01*
X162787000Y-86534000D01*
X162787000Y-86514000D01*
X162232545Y-86514000D01*
X162189718Y-86634911D01*
X162215363Y-86696851D01*
X162295022Y-86831943D01*
X162399506Y-86948899D01*
X162457072Y-86992236D01*
X162372578Y-87061578D01*
X162272607Y-87183394D01*
X162247695Y-87230000D01*
X162090685Y-87230000D01*
X161690000Y-86829315D01*
X161690000Y-85364911D01*
X162189718Y-85364911D01*
X162215363Y-85426851D01*
X162295022Y-85561943D01*
X162399506Y-85678899D01*
X162460742Y-85725000D01*
X162399506Y-85771101D01*
X162295022Y-85888057D01*
X162215363Y-86023149D01*
X162189718Y-86085089D01*
X162232545Y-86206000D01*
X162787000Y-86206000D01*
X162787000Y-85244000D01*
X163095000Y-85244000D01*
X163095000Y-86206000D01*
X163649455Y-86206000D01*
X163692282Y-86085089D01*
X163666637Y-86023149D01*
X163586978Y-85888057D01*
X163482494Y-85771101D01*
X163421258Y-85725000D01*
X163482494Y-85678899D01*
X163586978Y-85561943D01*
X163666637Y-85426851D01*
X163692282Y-85364911D01*
X163649455Y-85244000D01*
X163095000Y-85244000D01*
X162787000Y-85244000D01*
X162232545Y-85244000D01*
X162189718Y-85364911D01*
X161690000Y-85364911D01*
X161690000Y-82550000D01*
X162137130Y-82550000D01*
X162152576Y-82706827D01*
X162198321Y-82857628D01*
X162272607Y-82996606D01*
X162372578Y-83118422D01*
X162453704Y-83185000D01*
X162372578Y-83251578D01*
X162272607Y-83373394D01*
X162198321Y-83512372D01*
X162152576Y-83663173D01*
X162137130Y-83820000D01*
X162152576Y-83976827D01*
X162198321Y-84127628D01*
X162272607Y-84266606D01*
X162372578Y-84388422D01*
X162457072Y-84457764D01*
X162399506Y-84501101D01*
X162295022Y-84618057D01*
X162215363Y-84753149D01*
X162189718Y-84815089D01*
X162232545Y-84936000D01*
X162787000Y-84936000D01*
X162787000Y-84916000D01*
X163095000Y-84916000D01*
X163095000Y-84936000D01*
X163649455Y-84936000D01*
X163692282Y-84815089D01*
X163666637Y-84753149D01*
X163586978Y-84618057D01*
X163482494Y-84501101D01*
X163424928Y-84457764D01*
X163509422Y-84388422D01*
X163609393Y-84266606D01*
X163634305Y-84220000D01*
X164680315Y-84220000D01*
X167681000Y-87220686D01*
X167681001Y-89446815D01*
X167512587Y-89516574D01*
X167316045Y-89647899D01*
X167148899Y-89815045D01*
X167017574Y-90011587D01*
X166927116Y-90229973D01*
X166881000Y-90461810D01*
X166881000Y-90698190D01*
X166927116Y-90930027D01*
X167017574Y-91148413D01*
X167148899Y-91344955D01*
X167316045Y-91512101D01*
X167512587Y-91643426D01*
X167730973Y-91733884D01*
X167962810Y-91780000D01*
X168199190Y-91780000D01*
X168431027Y-91733884D01*
X168649413Y-91643426D01*
X168845955Y-91512101D01*
X169013101Y-91344955D01*
X169144426Y-91148413D01*
X169234884Y-90930027D01*
X169281000Y-90698190D01*
X169281000Y-90686929D01*
X169379944Y-90686929D01*
X169423883Y-90919189D01*
X169512289Y-91138414D01*
X169522953Y-91158362D01*
X169679954Y-91263257D01*
X170363211Y-90580000D01*
X170798789Y-90580000D01*
X171482046Y-91263257D01*
X171639047Y-91158362D01*
X171731550Y-90940834D01*
X171779838Y-90709439D01*
X171782056Y-90473071D01*
X171738117Y-90240811D01*
X171649711Y-90021586D01*
X171639047Y-90001638D01*
X171482046Y-89896743D01*
X170798789Y-90580000D01*
X170363211Y-90580000D01*
X169679954Y-89896743D01*
X169522953Y-90001638D01*
X169430450Y-90219166D01*
X169382162Y-90450561D01*
X169379944Y-90686929D01*
X169281000Y-90686929D01*
X169281000Y-90461810D01*
X169234884Y-90229973D01*
X169144426Y-90011587D01*
X169013101Y-89815045D01*
X168877010Y-89678954D01*
X169897743Y-89678954D01*
X170581000Y-90362211D01*
X171264257Y-89678954D01*
X171159362Y-89521953D01*
X170941834Y-89429450D01*
X170710439Y-89381162D01*
X170474071Y-89378944D01*
X170241811Y-89422883D01*
X170022586Y-89511289D01*
X170002638Y-89521953D01*
X169897743Y-89678954D01*
X168877010Y-89678954D01*
X168845955Y-89647899D01*
X168649413Y-89516574D01*
X168481000Y-89446815D01*
X168481000Y-88916322D01*
X172112466Y-88916322D01*
X172350160Y-89186106D01*
X172755428Y-89388645D01*
X173192422Y-89508229D01*
X173644349Y-89540261D01*
X174093841Y-89483512D01*
X174523626Y-89340161D01*
X174811840Y-89186106D01*
X175049534Y-88916322D01*
X173581000Y-87447789D01*
X172112466Y-88916322D01*
X168481000Y-88916322D01*
X168481000Y-87293349D01*
X171270739Y-87293349D01*
X171327488Y-87742841D01*
X171470839Y-88172626D01*
X171624894Y-88460840D01*
X171894678Y-88698534D01*
X173363211Y-87230000D01*
X173798789Y-87230000D01*
X175267322Y-88698534D01*
X175537106Y-88460840D01*
X175739645Y-88055572D01*
X175859229Y-87618578D01*
X175891261Y-87166651D01*
X175834512Y-86717159D01*
X175691161Y-86287374D01*
X175537106Y-85999160D01*
X175267322Y-85761466D01*
X173798789Y-87230000D01*
X173363211Y-87230000D01*
X171894678Y-85761466D01*
X171624894Y-85999160D01*
X171422355Y-86404428D01*
X171302771Y-86841422D01*
X171270739Y-87293349D01*
X168481000Y-87293349D01*
X168481000Y-87074646D01*
X168482935Y-87055000D01*
X168475212Y-86976586D01*
X168452340Y-86901185D01*
X168415197Y-86831697D01*
X168377735Y-86786049D01*
X168377733Y-86786047D01*
X168365211Y-86770789D01*
X168349954Y-86758268D01*
X167135364Y-85543678D01*
X172112466Y-85543678D01*
X173581000Y-87012211D01*
X175049534Y-85543678D01*
X174811840Y-85273894D01*
X174406572Y-85071355D01*
X173969578Y-84951771D01*
X173517651Y-84919739D01*
X173068159Y-84976488D01*
X172638374Y-85119839D01*
X172350160Y-85273894D01*
X172112466Y-85543678D01*
X167135364Y-85543678D01*
X165142737Y-83551052D01*
X165130211Y-83535789D01*
X165069303Y-83485803D01*
X164999814Y-83448660D01*
X164924414Y-83425788D01*
X164865647Y-83420000D01*
X164865646Y-83420000D01*
X164846000Y-83418065D01*
X164826354Y-83420000D01*
X163634305Y-83420000D01*
X163609393Y-83373394D01*
X163603590Y-83366322D01*
X172112466Y-83366322D01*
X172350160Y-83636106D01*
X172755428Y-83838645D01*
X173192422Y-83958229D01*
X173644349Y-83990261D01*
X174093841Y-83933512D01*
X174523626Y-83790161D01*
X174811840Y-83636106D01*
X175049534Y-83366322D01*
X173581000Y-81897789D01*
X172112466Y-83366322D01*
X163603590Y-83366322D01*
X163509422Y-83251578D01*
X163428296Y-83185000D01*
X163509422Y-83118422D01*
X163609393Y-82996606D01*
X163683679Y-82857628D01*
X163729424Y-82706827D01*
X163744870Y-82550000D01*
X163729424Y-82393173D01*
X163683679Y-82242372D01*
X163609393Y-82103394D01*
X163509422Y-81981578D01*
X163424928Y-81912236D01*
X163482494Y-81868899D01*
X163586978Y-81751943D01*
X163592045Y-81743349D01*
X171270739Y-81743349D01*
X171327488Y-82192841D01*
X171470839Y-82622626D01*
X171624894Y-82910840D01*
X171894678Y-83148534D01*
X173363211Y-81680000D01*
X173798789Y-81680000D01*
X175267322Y-83148534D01*
X175537106Y-82910840D01*
X175739645Y-82505572D01*
X175859229Y-82068578D01*
X175891261Y-81616651D01*
X175834512Y-81167159D01*
X175691161Y-80737374D01*
X175537106Y-80449160D01*
X175267322Y-80211466D01*
X173798789Y-81680000D01*
X173363211Y-81680000D01*
X171894678Y-80211466D01*
X171624894Y-80449160D01*
X171422355Y-80854428D01*
X171302771Y-81291422D01*
X171270739Y-81743349D01*
X163592045Y-81743349D01*
X163666637Y-81616851D01*
X163692282Y-81554911D01*
X163649455Y-81434000D01*
X163095000Y-81434000D01*
X163095000Y-81454000D01*
X162787000Y-81454000D01*
X162787000Y-81434000D01*
X162232545Y-81434000D01*
X162189718Y-81554911D01*
X162215363Y-81616851D01*
X162295022Y-81751943D01*
X162399506Y-81868899D01*
X162457072Y-81912236D01*
X162372578Y-81981578D01*
X162272607Y-82103394D01*
X162198321Y-82242372D01*
X162152576Y-82393173D01*
X162137130Y-82550000D01*
X161690000Y-82550000D01*
X161690000Y-79510000D01*
X162139549Y-79510000D01*
X162139549Y-80510000D01*
X162145341Y-80568810D01*
X162162496Y-80625360D01*
X162190353Y-80677477D01*
X162227842Y-80723158D01*
X162273523Y-80760647D01*
X162316740Y-80783747D01*
X162295022Y-80808057D01*
X162215363Y-80943149D01*
X162189718Y-81005089D01*
X162232545Y-81126000D01*
X162787000Y-81126000D01*
X162787000Y-81106000D01*
X163095000Y-81106000D01*
X163095000Y-81126000D01*
X163649455Y-81126000D01*
X163692282Y-81005089D01*
X163666637Y-80943149D01*
X163586978Y-80808057D01*
X163565260Y-80783747D01*
X163608477Y-80760647D01*
X163654158Y-80723158D01*
X163691647Y-80677477D01*
X163719504Y-80625360D01*
X163736659Y-80568810D01*
X163742451Y-80510000D01*
X163742451Y-79993678D01*
X172112466Y-79993678D01*
X173581000Y-81462211D01*
X175049534Y-79993678D01*
X174811840Y-79723894D01*
X174406572Y-79521355D01*
X173969578Y-79401771D01*
X173517651Y-79369739D01*
X173068159Y-79426488D01*
X172638374Y-79569839D01*
X172350160Y-79723894D01*
X172112466Y-79993678D01*
X163742451Y-79993678D01*
X163742451Y-79510000D01*
X163736659Y-79451190D01*
X163719504Y-79394640D01*
X163691647Y-79342523D01*
X163654158Y-79296842D01*
X163608477Y-79259353D01*
X163556360Y-79231496D01*
X163499810Y-79214341D01*
X163441000Y-79208549D01*
X163341000Y-79208549D01*
X163341000Y-78211810D01*
X166881000Y-78211810D01*
X166881000Y-78448190D01*
X166927116Y-78680027D01*
X167017574Y-78898413D01*
X167148899Y-79094955D01*
X167316045Y-79262101D01*
X167512587Y-79393426D01*
X167730973Y-79483884D01*
X167962810Y-79530000D01*
X168199190Y-79530000D01*
X168431027Y-79483884D01*
X168649413Y-79393426D01*
X168845955Y-79262101D01*
X169013101Y-79094955D01*
X169144426Y-78898413D01*
X169234884Y-78680027D01*
X169281000Y-78448190D01*
X169281000Y-78211810D01*
X169234884Y-77979973D01*
X169144426Y-77761587D01*
X169013101Y-77565045D01*
X168845955Y-77397899D01*
X168649413Y-77266574D01*
X168431027Y-77176116D01*
X168199190Y-77130000D01*
X167962810Y-77130000D01*
X167730973Y-77176116D01*
X167512587Y-77266574D01*
X167316045Y-77397899D01*
X167148899Y-77565045D01*
X167017574Y-77761587D01*
X166927116Y-77979973D01*
X166881000Y-78211810D01*
X163341000Y-78211810D01*
X163341000Y-76111810D01*
X169381000Y-76111810D01*
X169381000Y-76348190D01*
X169427116Y-76580027D01*
X169517574Y-76798413D01*
X169648899Y-76994955D01*
X169816045Y-77162101D01*
X169992494Y-77280000D01*
X169816045Y-77397899D01*
X169648899Y-77565045D01*
X169517574Y-77761587D01*
X169427116Y-77979973D01*
X169381000Y-78211810D01*
X169381000Y-78448190D01*
X169427116Y-78680027D01*
X169517574Y-78898413D01*
X169648899Y-79094955D01*
X169816045Y-79262101D01*
X170012587Y-79393426D01*
X170230973Y-79483884D01*
X170462810Y-79530000D01*
X170699190Y-79530000D01*
X170931027Y-79483884D01*
X171149413Y-79393426D01*
X171345955Y-79262101D01*
X171513101Y-79094955D01*
X171644426Y-78898413D01*
X171734884Y-78680027D01*
X171781000Y-78448190D01*
X171781000Y-78211810D01*
X171734884Y-77979973D01*
X171644426Y-77761587D01*
X171513101Y-77565045D01*
X171345955Y-77397899D01*
X171169506Y-77280000D01*
X171345955Y-77162101D01*
X171513101Y-76994955D01*
X171644426Y-76798413D01*
X171719850Y-76616322D01*
X172912466Y-76616322D01*
X173150160Y-76886106D01*
X173555428Y-77088645D01*
X173992422Y-77208229D01*
X174444349Y-77240261D01*
X174893841Y-77183512D01*
X175323626Y-77040161D01*
X175611840Y-76886106D01*
X175849534Y-76616322D01*
X174381000Y-75147789D01*
X172912466Y-76616322D01*
X171719850Y-76616322D01*
X171734884Y-76580027D01*
X171781000Y-76348190D01*
X171781000Y-76111810D01*
X171734884Y-75879973D01*
X171644426Y-75661587D01*
X171513101Y-75465045D01*
X171345955Y-75297899D01*
X171149413Y-75166574D01*
X170931027Y-75076116D01*
X170699190Y-75030000D01*
X170462810Y-75030000D01*
X170230973Y-75076116D01*
X170012587Y-75166574D01*
X169816045Y-75297899D01*
X169648899Y-75465045D01*
X169517574Y-75661587D01*
X169427116Y-75879973D01*
X169381000Y-76111810D01*
X163341000Y-76111810D01*
X163341000Y-74993349D01*
X172070739Y-74993349D01*
X172127488Y-75442841D01*
X172270839Y-75872626D01*
X172424894Y-76160840D01*
X172694678Y-76398534D01*
X174163211Y-74930000D01*
X174598789Y-74930000D01*
X176067322Y-76398534D01*
X176337106Y-76160840D01*
X176539645Y-75755572D01*
X176659229Y-75318578D01*
X176691261Y-74866651D01*
X176634512Y-74417159D01*
X176491161Y-73987374D01*
X176337106Y-73699160D01*
X176067322Y-73461466D01*
X174598789Y-74930000D01*
X174163211Y-74930000D01*
X172694678Y-73461466D01*
X172424894Y-73699160D01*
X172222355Y-74104428D01*
X172102771Y-74541422D01*
X172070739Y-74993349D01*
X163341000Y-74993349D01*
X163341000Y-73444685D01*
X164855685Y-71930000D01*
X166947815Y-71930000D01*
X167017574Y-72098413D01*
X167148899Y-72294955D01*
X167316045Y-72462101D01*
X167512587Y-72593426D01*
X167730973Y-72683884D01*
X167962810Y-72730000D01*
X168199190Y-72730000D01*
X168431027Y-72683884D01*
X168649413Y-72593426D01*
X168845955Y-72462101D01*
X169013101Y-72294955D01*
X169144426Y-72098413D01*
X169234884Y-71880027D01*
X169281000Y-71648190D01*
X169281000Y-71636929D01*
X169379944Y-71636929D01*
X169423883Y-71869189D01*
X169512289Y-72088414D01*
X169522953Y-72108362D01*
X169679954Y-72213257D01*
X170363211Y-71530000D01*
X170798789Y-71530000D01*
X171482046Y-72213257D01*
X171639047Y-72108362D01*
X171731550Y-71890834D01*
X171779838Y-71659439D01*
X171782056Y-71423071D01*
X171738117Y-71190811D01*
X171649711Y-70971586D01*
X171639047Y-70951638D01*
X171482046Y-70846743D01*
X170798789Y-71530000D01*
X170363211Y-71530000D01*
X169679954Y-70846743D01*
X169522953Y-70951638D01*
X169430450Y-71169166D01*
X169382162Y-71400561D01*
X169379944Y-71636929D01*
X169281000Y-71636929D01*
X169281000Y-71411810D01*
X169234884Y-71179973D01*
X169144426Y-70961587D01*
X169013101Y-70765045D01*
X168877010Y-70628954D01*
X169897743Y-70628954D01*
X170581000Y-71312211D01*
X171264257Y-70628954D01*
X171159362Y-70471953D01*
X170941834Y-70379450D01*
X170710439Y-70331162D01*
X170474071Y-70328944D01*
X170241811Y-70372883D01*
X170022586Y-70461289D01*
X170002638Y-70471953D01*
X169897743Y-70628954D01*
X168877010Y-70628954D01*
X168845955Y-70597899D01*
X168649413Y-70466574D01*
X168431027Y-70376116D01*
X168199190Y-70330000D01*
X167962810Y-70330000D01*
X167730973Y-70376116D01*
X167512587Y-70466574D01*
X167316045Y-70597899D01*
X167148899Y-70765045D01*
X167017574Y-70961587D01*
X166947815Y-71130000D01*
X164709647Y-71130000D01*
X164690000Y-71128065D01*
X164670353Y-71130000D01*
X164611586Y-71135788D01*
X164536186Y-71158660D01*
X164466697Y-71195803D01*
X164405789Y-71245789D01*
X164393263Y-71261052D01*
X162672048Y-72982267D01*
X162656790Y-72994789D01*
X162644268Y-73010047D01*
X162644265Y-73010050D01*
X162606803Y-73055698D01*
X162569661Y-73125186D01*
X162546788Y-73200587D01*
X162539065Y-73279000D01*
X162541001Y-73298656D01*
X162541000Y-79208549D01*
X162441000Y-79208549D01*
X162382190Y-79214341D01*
X162325640Y-79231496D01*
X162273523Y-79259353D01*
X162227842Y-79296842D01*
X162190353Y-79342523D01*
X162162496Y-79394640D01*
X162145341Y-79451190D01*
X162139549Y-79510000D01*
X161690000Y-79510000D01*
X161690000Y-71920685D01*
X163360686Y-70250000D01*
X171157315Y-70250000D01*
X171812001Y-70904687D01*
X171812000Y-72097314D01*
X171265304Y-72644010D01*
X171166210Y-72577797D01*
X171264257Y-72431046D01*
X170581000Y-71747789D01*
X169897743Y-72431046D01*
X169995790Y-72577797D01*
X169816045Y-72697899D01*
X169648899Y-72865045D01*
X169517574Y-73061587D01*
X169427116Y-73279973D01*
X169381000Y-73511810D01*
X169381000Y-73748190D01*
X169427116Y-73980027D01*
X169517574Y-74198413D01*
X169648899Y-74394955D01*
X169816045Y-74562101D01*
X170012587Y-74693426D01*
X170230973Y-74783884D01*
X170462810Y-74830000D01*
X170699190Y-74830000D01*
X170931027Y-74783884D01*
X171149413Y-74693426D01*
X171345955Y-74562101D01*
X171513101Y-74394955D01*
X171644426Y-74198413D01*
X171734884Y-73980027D01*
X171781000Y-73748190D01*
X171781000Y-73511810D01*
X171739169Y-73301516D01*
X171797007Y-73243678D01*
X172912466Y-73243678D01*
X174381000Y-74712211D01*
X175849534Y-73243678D01*
X175611840Y-72973894D01*
X175206572Y-72771355D01*
X174769578Y-72651771D01*
X174317651Y-72619739D01*
X173868159Y-72676488D01*
X173438374Y-72819839D01*
X173150160Y-72973894D01*
X172912466Y-73243678D01*
X171797007Y-73243678D01*
X172480954Y-72559732D01*
X172496211Y-72547211D01*
X172546197Y-72486303D01*
X172583340Y-72416814D01*
X172606212Y-72341414D01*
X172612000Y-72282647D01*
X172612000Y-72282646D01*
X172613935Y-72263000D01*
X172612000Y-72243354D01*
X172612000Y-70758647D01*
X172613935Y-70739000D01*
X172606212Y-70660586D01*
X172583340Y-70585185D01*
X172546197Y-70515697D01*
X172508735Y-70470049D01*
X172508733Y-70470047D01*
X172496211Y-70454789D01*
X172480953Y-70442267D01*
X171905008Y-69866322D01*
X172112466Y-69866322D01*
X172350160Y-70136106D01*
X172755428Y-70338645D01*
X173192422Y-70458229D01*
X173644349Y-70490261D01*
X174093841Y-70433512D01*
X174523626Y-70290161D01*
X174811840Y-70136106D01*
X175049534Y-69866322D01*
X173581000Y-68397789D01*
X172112466Y-69866322D01*
X171905008Y-69866322D01*
X171619737Y-69581052D01*
X171607211Y-69565789D01*
X171546303Y-69515803D01*
X171476814Y-69478660D01*
X171401414Y-69455788D01*
X171342647Y-69450000D01*
X171342646Y-69450000D01*
X171323000Y-69448065D01*
X171303354Y-69450000D01*
X163214647Y-69450000D01*
X163195000Y-69448065D01*
X163116586Y-69455788D01*
X163041186Y-69478660D01*
X162971697Y-69515803D01*
X162926049Y-69553265D01*
X162926047Y-69553267D01*
X162910789Y-69565789D01*
X162898267Y-69581047D01*
X161021052Y-71458263D01*
X161005789Y-71470789D01*
X160955803Y-71531698D01*
X160918660Y-71601187D01*
X160916468Y-71608414D01*
X160895788Y-71676587D01*
X160888065Y-71755000D01*
X136900000Y-71755000D01*
X136900000Y-68243349D01*
X171270739Y-68243349D01*
X171327488Y-68692841D01*
X171470839Y-69122626D01*
X171624894Y-69410840D01*
X171894678Y-69648534D01*
X173363211Y-68180000D01*
X173798789Y-68180000D01*
X175267322Y-69648534D01*
X175537106Y-69410840D01*
X175739645Y-69005572D01*
X175859229Y-68568578D01*
X175891261Y-68116651D01*
X175834512Y-67667159D01*
X175691161Y-67237374D01*
X175537106Y-66949160D01*
X175267322Y-66711466D01*
X173798789Y-68180000D01*
X173363211Y-68180000D01*
X171894678Y-66711466D01*
X171624894Y-66949160D01*
X171422355Y-67354428D01*
X171302771Y-67791422D01*
X171270739Y-68243349D01*
X136900000Y-68243349D01*
X136900000Y-66693337D01*
X136919576Y-66493678D01*
X172112466Y-66493678D01*
X173581000Y-67962211D01*
X175049534Y-66493678D01*
X174811840Y-66223894D01*
X174406572Y-66021355D01*
X173969578Y-65901771D01*
X173517651Y-65869739D01*
X173068159Y-65926488D01*
X172638374Y-66069839D01*
X172350160Y-66223894D01*
X172112466Y-66493678D01*
X136919576Y-66493678D01*
X136930902Y-66378174D01*
X137017109Y-66092645D01*
X137157129Y-65829305D01*
X137345633Y-65598176D01*
X137575443Y-65408062D01*
X137837800Y-65266207D01*
X138122711Y-65178012D01*
X138436795Y-65145000D01*
X177146663Y-65145000D01*
X177461826Y-65175902D01*
M02*
