G04 #@! TF.GenerationSoftware,KiCad,Pcbnew,(5.1.2-1)-1*
G04 #@! TF.CreationDate,2019-07-29T22:21:16-04:00*
G04 #@! TF.ProjectId,mouserial-keymouse,6d6f7573-6572-4696-916c-2d6b65796d6f,rev?*
G04 #@! TF.SameCoordinates,Original*
G04 #@! TF.FileFunction,Legend,Top*
G04 #@! TF.FilePolarity,Positive*
%FSLAX46Y46*%
G04 Gerber Fmt 4.6, Leading zero omitted, Abs format (unit mm)*
G04 Created by KiCad (PCBNEW (5.1.2-1)-1) date 2019-07-29 22:21:16*
%MOMM*%
%LPD*%
G04 APERTURE LIST*
%ADD10C,0.120000*%
%ADD11C,0.190500*%
%ADD12C,4.101600*%
%ADD13C,1.901600*%
%ADD14R,1.101600X1.101600*%
%ADD15O,1.101600X1.101600*%
%ADD16C,2.101600*%
G04 APERTURE END LIST*
D10*
X161831000Y-89595000D02*
X162633470Y-89595000D01*
X163248530Y-89595000D02*
X164051000Y-89595000D01*
X161831000Y-80770000D02*
X161831000Y-89595000D01*
X164051000Y-80770000D02*
X164051000Y-89595000D01*
X161831000Y-80770000D02*
X162377529Y-80770000D01*
X163504471Y-80770000D02*
X164051000Y-80770000D01*
X161831000Y-80010000D02*
X161831000Y-79250000D01*
X161831000Y-79250000D02*
X162941000Y-79250000D01*
D11*
X168492714Y-75156000D02*
X169037000Y-75156000D01*
X169145857Y-75192285D01*
X169218428Y-75264857D01*
X169254714Y-75373714D01*
X169254714Y-75446285D01*
X168565285Y-74829428D02*
X168529000Y-74793142D01*
X168492714Y-74720571D01*
X168492714Y-74539142D01*
X168529000Y-74466571D01*
X168565285Y-74430285D01*
X168637857Y-74394000D01*
X168710428Y-74394000D01*
X168819285Y-74430285D01*
X169254714Y-74865714D01*
X169254714Y-74394000D01*
X168492714Y-94206000D02*
X169037000Y-94206000D01*
X169145857Y-94242285D01*
X169218428Y-94314857D01*
X169254714Y-94423714D01*
X169254714Y-94496285D01*
X168492714Y-93915714D02*
X168492714Y-93444000D01*
X168783000Y-93698000D01*
X168783000Y-93589142D01*
X168819285Y-93516571D01*
X168855571Y-93480285D01*
X168928142Y-93444000D01*
X169109571Y-93444000D01*
X169182142Y-93480285D01*
X169218428Y-93516571D01*
X169254714Y-93589142D01*
X169254714Y-93806857D01*
X169218428Y-93879428D01*
X169182142Y-93915714D01*
%LPC*%
D12*
X174381000Y-74930000D03*
X173581000Y-68180000D03*
X173581000Y-81680000D03*
D13*
X170581000Y-71530000D03*
X170581000Y-78330000D03*
X168081000Y-78330000D03*
X168081000Y-71530000D03*
X170581000Y-73630000D03*
X170581000Y-76230000D03*
X170581000Y-95280000D03*
X170581000Y-92680000D03*
X168081000Y-90580000D03*
X168081000Y-97380000D03*
X170581000Y-97380000D03*
X170581000Y-90580000D03*
D12*
X173581000Y-100730000D03*
X173581000Y-87230000D03*
X174381000Y-93980000D03*
D14*
X162941000Y-80010000D03*
D15*
X162941000Y-81280000D03*
X162941000Y-82550000D03*
X162941000Y-83820000D03*
X162941000Y-85090000D03*
X162941000Y-86360000D03*
X162941000Y-87630000D03*
X162941000Y-88900000D03*
D16*
X138430000Y-66675000D03*
X138430000Y-102235000D03*
X177165000Y-102235000D03*
X177165000Y-66675000D03*
M02*
