G04 #@! TF.GenerationSoftware,KiCad,Pcbnew,(5.1.2-1)-1*
G04 #@! TF.CreationDate,2019-07-29T22:21:16-04:00*
G04 #@! TF.ProjectId,mouserial-keymouse,6d6f7573-6572-4696-916c-2d6b65796d6f,rev?*
G04 #@! TF.SameCoordinates,Original*
G04 #@! TF.FileFunction,Profile,NP*
%FSLAX46Y46*%
G04 Gerber Fmt 4.6, Leading zero omitted, Abs format (unit mm)*
G04 Created by KiCad (PCBNEW (5.1.2-1)-1) date 2019-07-29 22:21:16*
%MOMM*%
%LPD*%
G04 APERTURE LIST*
%ADD10C,0.150000*%
G04 APERTURE END LIST*
D10*
X138430000Y-104140000D02*
G75*
G02X136525000Y-102235000I0J1905000D01*
G01*
X179070000Y-102235000D02*
G75*
G02X177165000Y-104140000I-1905000J0D01*
G01*
X177165000Y-64770000D02*
G75*
G02X179070000Y-66675000I0J-1905000D01*
G01*
X136525000Y-66675000D02*
G75*
G02X138430000Y-64770000I1905000J0D01*
G01*
X139700000Y-78740000D02*
G75*
G02X143510000Y-78740000I1905000J0D01*
G01*
X139700000Y-90170000D02*
X139700000Y-78740000D01*
X143510000Y-90170000D02*
G75*
G02X139700000Y-90170000I-1905000J0D01*
G01*
X143510000Y-78740000D02*
X143510000Y-90170000D01*
X146685000Y-90170000D02*
X146685000Y-78740000D01*
X150495000Y-90170000D02*
G75*
G02X146685000Y-90170000I-1905000J0D01*
G01*
X150495000Y-78740000D02*
X150495000Y-90170000D01*
X146685000Y-78740000D02*
G75*
G02X150495000Y-78740000I1905000J0D01*
G01*
X138430000Y-104140000D02*
X177165000Y-104140000D01*
X179070000Y-102235000D02*
X179070000Y-66675000D01*
X153670000Y-90170000D02*
X153670000Y-78740000D01*
X157480000Y-78740000D02*
X157480000Y-90170000D01*
X157480000Y-90170000D02*
G75*
G02X153670000Y-90170000I-1905000J0D01*
G01*
X153670000Y-78740000D02*
G75*
G02X157480000Y-78740000I1905000J0D01*
G01*
X136525000Y-66675000D02*
X136525000Y-102235000D01*
X177165000Y-64770000D02*
X138430000Y-64770000D01*
M02*
