G04 #@! TF.GenerationSoftware,KiCad,Pcbnew,(5.1.2-1)-1*
G04 #@! TF.CreationDate,2019-07-29T02:23:31-04:00*
G04 #@! TF.ProjectId,mouserial-mouse,6d6f7573-6572-4696-916c-2d6d6f757365,rev?*
G04 #@! TF.SameCoordinates,Original*
G04 #@! TF.FileFunction,Profile,NP*
%FSLAX46Y46*%
G04 Gerber Fmt 4.6, Leading zero omitted, Abs format (unit mm)*
G04 Created by KiCad (PCBNEW (5.1.2-1)-1) date 2019-07-29 02:23:31*
%MOMM*%
%LPD*%
G04 APERTURE LIST*
%ADD10C,0.150000*%
G04 APERTURE END LIST*
D10*
X138430000Y-101600000D02*
X142875000Y-101600000D01*
X142875000Y-101600000D02*
G75*
G02X142875000Y-104140000I0J-1270000D01*
G01*
X142875000Y-104140000D02*
X138430000Y-104140000D01*
X138430000Y-104140000D02*
G75*
G02X138430000Y-101600000I0J1270000D01*
G01*
X133985000Y-106680000D02*
G75*
G02X132080000Y-104775000I0J1905000D01*
G01*
X179070000Y-104775000D02*
G75*
G02X177165000Y-106680000I-1905000J0D01*
G01*
X177165000Y-81280000D02*
G75*
G02X179070000Y-83185000I0J-1905000D01*
G01*
X132080000Y-83185000D02*
G75*
G02X133985000Y-81280000I1905000J0D01*
G01*
X138430000Y-86360000D02*
G75*
G02X138430000Y-83820000I0J1270000D01*
G01*
X142875000Y-86360000D02*
X138430000Y-86360000D01*
X142875000Y-83820000D02*
G75*
G02X142875000Y-86360000I0J-1270000D01*
G01*
X138430000Y-83820000D02*
X142875000Y-83820000D01*
X146685000Y-99695000D02*
X146685000Y-88265000D01*
X150495000Y-99695000D02*
G75*
G02X146685000Y-99695000I-1905000J0D01*
G01*
X150495000Y-88265000D02*
X150495000Y-99695000D01*
X146685000Y-88265000D02*
G75*
G02X150495000Y-88265000I1905000J0D01*
G01*
X133985000Y-106680000D02*
X177165000Y-106680000D01*
X179070000Y-104775000D02*
X179070000Y-83185000D01*
X154305000Y-99695000D02*
X154305000Y-88265000D01*
X158115000Y-88265000D02*
X158115000Y-99695000D01*
X158115000Y-99695000D02*
G75*
G02X154305000Y-99695000I-1905000J0D01*
G01*
X154305000Y-88265000D02*
G75*
G02X158115000Y-88265000I1905000J0D01*
G01*
X132080000Y-83185000D02*
X132080000Y-104775000D01*
X177165000Y-81280000D02*
X133985000Y-81280000D01*
M02*
