M48
; DRILL file {KiCad (5.1.2-1)-1} date Monday, July 29, 2019 at 02:23:32 AM
; FORMAT={-:-/ absolute / inch / decimal}
; #@! TF.CreationDate,2019-07-29T02:23:32-04:00
; #@! TF.GenerationSoftware,Kicad,Pcbnew,(5.1.2-1)-1
FMAT,2
INCH
T1C0.0157
T2C0.0394
T3C0.0413
T4C0.0906
%
G90
G05
T1
X6.475Y-3.435
X6.53Y-3.485
T2
X6.35Y-3.35
X6.35Y-3.45
X6.35Y-3.55
X6.35Y-3.65
X6.35Y-3.75
X6.35Y-3.85
X6.35Y-3.95
X6.35Y-4.05
X6.6174Y-3.5661
X6.6174Y-3.8339
X6.7158Y-3.5661
X6.7158Y-3.6488
X6.7158Y-3.7512
X6.7158Y-3.8339
T3
X6.975Y-3.275
X6.975Y-4.125
X5.275Y-3.275
X5.275Y-4.125
T4
X6.8339Y-3.4343
X6.8339Y-3.9657
X6.8654Y-3.7
T0
M30
