M48
; DRILL file {KiCad (5.1.2-1)-1} date Thursday, September 12, 2019 at 12:49:24 AM
; FORMAT={-:-/ absolute / inch / decimal}
; #@! TF.CreationDate,2019-09-12T00:49:24-04:00
; #@! TF.GenerationSoftware,Kicad,Pcbnew,(5.1.2-1)-1
FMAT,2
INCH
T1C0.0157
T2C0.0394
T3C0.0413
T4C0.0906
%
G90
G05
T1
X5.995Y-3.585
X6.05Y-3.535
X6.115Y-3.75
X6.3Y-3.75
X6.4Y-3.505
X6.485Y-3.55
X6.485Y-3.75
T2
X6.6174Y-3.5661
X6.6174Y-3.8339
X6.7158Y-3.5661
X6.7158Y-3.6488
X6.7158Y-3.7512
X6.7158Y-3.8339
T3
X6.05Y-4.025
X6.975Y-4.025
X6.05Y-3.375
X6.975Y-3.375
T4
X6.8339Y-3.4343
X6.8339Y-3.9657
X6.8654Y-3.7
T0
M30
