G04 #@! TF.GenerationSoftware,KiCad,Pcbnew,(5.1.2-1)-1*
G04 #@! TF.CreationDate,2019-07-29T02:23:31-04:00*
G04 #@! TF.ProjectId,mouserial-mouse,6d6f7573-6572-4696-916c-2d6d6f757365,rev?*
G04 #@! TF.SameCoordinates,Original*
G04 #@! TF.FileFunction,Copper,L2,Bot*
G04 #@! TF.FilePolarity,Positive*
%FSLAX46Y46*%
G04 Gerber Fmt 4.6, Leading zero omitted, Abs format (unit mm)*
G04 Created by KiCad (PCBNEW (5.1.2-1)-1) date 2019-07-29 02:23:31*
%MOMM*%
%LPD*%
G04 APERTURE LIST*
%ADD10C,1.800000*%
%ADD11C,4.000000*%
%ADD12C,0.100000*%
%ADD13C,1.050000*%
%ADD14C,1.200000*%
%ADD15C,1.000000*%
%ADD16C,2.000000*%
%ADD17R,1.700000X1.700000*%
%ADD18O,1.700000X1.700000*%
%ADD19C,0.800000*%
%ADD20C,0.800000*%
%ADD21C,0.200000*%
G04 APERTURE END LIST*
D10*
X170581000Y-95280000D03*
X170581000Y-92680000D03*
X168081000Y-90580000D03*
X168081000Y-97380000D03*
X170581000Y-97380000D03*
X170581000Y-90580000D03*
D11*
X173581000Y-100730000D03*
X173581000Y-87230000D03*
X174381000Y-93980000D03*
D12*
G36*
X164928229Y-89646264D02*
G01*
X164953711Y-89650044D01*
X164978700Y-89656303D01*
X165002954Y-89664982D01*
X165026242Y-89675996D01*
X165048337Y-89689239D01*
X165069028Y-89704585D01*
X165088116Y-89721884D01*
X165105415Y-89740972D01*
X165120761Y-89761663D01*
X165134004Y-89783758D01*
X165145018Y-89807046D01*
X165153697Y-89831300D01*
X165159956Y-89856289D01*
X165163736Y-89881771D01*
X165165000Y-89907500D01*
X165165000Y-90432500D01*
X165163736Y-90458229D01*
X165159956Y-90483711D01*
X165153697Y-90508700D01*
X165145018Y-90532954D01*
X165134004Y-90556242D01*
X165120761Y-90578337D01*
X165105415Y-90599028D01*
X165088116Y-90618116D01*
X165069028Y-90635415D01*
X165048337Y-90650761D01*
X165026242Y-90664004D01*
X165002954Y-90675018D01*
X164978700Y-90683697D01*
X164953711Y-90689956D01*
X164928229Y-90693736D01*
X164902500Y-90695000D01*
X164027500Y-90695000D01*
X164001771Y-90693736D01*
X163976289Y-90689956D01*
X163951300Y-90683697D01*
X163927046Y-90675018D01*
X163903758Y-90664004D01*
X163881663Y-90650761D01*
X163860972Y-90635415D01*
X163841884Y-90618116D01*
X163824585Y-90599028D01*
X163809239Y-90578337D01*
X163795996Y-90556242D01*
X163784982Y-90532954D01*
X163776303Y-90508700D01*
X163770044Y-90483711D01*
X163766264Y-90458229D01*
X163765000Y-90432500D01*
X163765000Y-89907500D01*
X163766264Y-89881771D01*
X163770044Y-89856289D01*
X163776303Y-89831300D01*
X163784982Y-89807046D01*
X163795996Y-89783758D01*
X163809239Y-89761663D01*
X163824585Y-89740972D01*
X163841884Y-89721884D01*
X163860972Y-89704585D01*
X163881663Y-89689239D01*
X163903758Y-89675996D01*
X163927046Y-89664982D01*
X163951300Y-89656303D01*
X163976289Y-89650044D01*
X164001771Y-89646264D01*
X164027500Y-89645000D01*
X164902500Y-89645000D01*
X164928229Y-89646264D01*
X164928229Y-89646264D01*
G37*
D13*
X164465000Y-90170000D03*
D12*
G36*
X164928229Y-87946264D02*
G01*
X164953711Y-87950044D01*
X164978700Y-87956303D01*
X165002954Y-87964982D01*
X165026242Y-87975996D01*
X165048337Y-87989239D01*
X165069028Y-88004585D01*
X165088116Y-88021884D01*
X165105415Y-88040972D01*
X165120761Y-88061663D01*
X165134004Y-88083758D01*
X165145018Y-88107046D01*
X165153697Y-88131300D01*
X165159956Y-88156289D01*
X165163736Y-88181771D01*
X165165000Y-88207500D01*
X165165000Y-88732500D01*
X165163736Y-88758229D01*
X165159956Y-88783711D01*
X165153697Y-88808700D01*
X165145018Y-88832954D01*
X165134004Y-88856242D01*
X165120761Y-88878337D01*
X165105415Y-88899028D01*
X165088116Y-88918116D01*
X165069028Y-88935415D01*
X165048337Y-88950761D01*
X165026242Y-88964004D01*
X165002954Y-88975018D01*
X164978700Y-88983697D01*
X164953711Y-88989956D01*
X164928229Y-88993736D01*
X164902500Y-88995000D01*
X164027500Y-88995000D01*
X164001771Y-88993736D01*
X163976289Y-88989956D01*
X163951300Y-88983697D01*
X163927046Y-88975018D01*
X163903758Y-88964004D01*
X163881663Y-88950761D01*
X163860972Y-88935415D01*
X163841884Y-88918116D01*
X163824585Y-88899028D01*
X163809239Y-88878337D01*
X163795996Y-88856242D01*
X163784982Y-88832954D01*
X163776303Y-88808700D01*
X163770044Y-88783711D01*
X163766264Y-88758229D01*
X163765000Y-88732500D01*
X163765000Y-88207500D01*
X163766264Y-88181771D01*
X163770044Y-88156289D01*
X163776303Y-88131300D01*
X163784982Y-88107046D01*
X163795996Y-88083758D01*
X163809239Y-88061663D01*
X163824585Y-88040972D01*
X163841884Y-88021884D01*
X163860972Y-88004585D01*
X163881663Y-87989239D01*
X163903758Y-87975996D01*
X163927046Y-87964982D01*
X163951300Y-87956303D01*
X163976289Y-87950044D01*
X164001771Y-87946264D01*
X164027500Y-87945000D01*
X164902500Y-87945000D01*
X164928229Y-87946264D01*
X164928229Y-87946264D01*
G37*
D13*
X164465000Y-88470000D03*
D12*
G36*
X165094405Y-91476445D02*
G01*
X165123527Y-91480764D01*
X165152085Y-91487918D01*
X165179805Y-91497836D01*
X165206419Y-91510424D01*
X165231671Y-91525559D01*
X165255318Y-91543097D01*
X165277132Y-91562868D01*
X165296903Y-91584682D01*
X165314441Y-91608329D01*
X165329576Y-91633581D01*
X165342164Y-91660195D01*
X165352082Y-91687915D01*
X165359236Y-91716473D01*
X165363555Y-91745595D01*
X165365000Y-91775000D01*
X165365000Y-92375000D01*
X165363555Y-92404405D01*
X165359236Y-92433527D01*
X165352082Y-92462085D01*
X165342164Y-92489805D01*
X165329576Y-92516419D01*
X165314441Y-92541671D01*
X165296903Y-92565318D01*
X165277132Y-92587132D01*
X165255318Y-92606903D01*
X165231671Y-92624441D01*
X165206419Y-92639576D01*
X165179805Y-92652164D01*
X165152085Y-92662082D01*
X165123527Y-92669236D01*
X165094405Y-92673555D01*
X165065000Y-92675000D01*
X163865000Y-92675000D01*
X163835595Y-92673555D01*
X163806473Y-92669236D01*
X163777915Y-92662082D01*
X163750195Y-92652164D01*
X163723581Y-92639576D01*
X163698329Y-92624441D01*
X163674682Y-92606903D01*
X163652868Y-92587132D01*
X163633097Y-92565318D01*
X163615559Y-92541671D01*
X163600424Y-92516419D01*
X163587836Y-92489805D01*
X163577918Y-92462085D01*
X163570764Y-92433527D01*
X163566445Y-92404405D01*
X163565000Y-92375000D01*
X163565000Y-91775000D01*
X163566445Y-91745595D01*
X163570764Y-91716473D01*
X163577918Y-91687915D01*
X163587836Y-91660195D01*
X163600424Y-91633581D01*
X163615559Y-91608329D01*
X163633097Y-91584682D01*
X163652868Y-91562868D01*
X163674682Y-91543097D01*
X163698329Y-91525559D01*
X163723581Y-91510424D01*
X163750195Y-91497836D01*
X163777915Y-91487918D01*
X163806473Y-91480764D01*
X163835595Y-91476445D01*
X163865000Y-91475000D01*
X165065000Y-91475000D01*
X165094405Y-91476445D01*
X165094405Y-91476445D01*
G37*
D14*
X164465000Y-92075000D03*
D12*
G36*
X165094405Y-94476445D02*
G01*
X165123527Y-94480764D01*
X165152085Y-94487918D01*
X165179805Y-94497836D01*
X165206419Y-94510424D01*
X165231671Y-94525559D01*
X165255318Y-94543097D01*
X165277132Y-94562868D01*
X165296903Y-94584682D01*
X165314441Y-94608329D01*
X165329576Y-94633581D01*
X165342164Y-94660195D01*
X165352082Y-94687915D01*
X165359236Y-94716473D01*
X165363555Y-94745595D01*
X165365000Y-94775000D01*
X165365000Y-95375000D01*
X165363555Y-95404405D01*
X165359236Y-95433527D01*
X165352082Y-95462085D01*
X165342164Y-95489805D01*
X165329576Y-95516419D01*
X165314441Y-95541671D01*
X165296903Y-95565318D01*
X165277132Y-95587132D01*
X165255318Y-95606903D01*
X165231671Y-95624441D01*
X165206419Y-95639576D01*
X165179805Y-95652164D01*
X165152085Y-95662082D01*
X165123527Y-95669236D01*
X165094405Y-95673555D01*
X165065000Y-95675000D01*
X163865000Y-95675000D01*
X163835595Y-95673555D01*
X163806473Y-95669236D01*
X163777915Y-95662082D01*
X163750195Y-95652164D01*
X163723581Y-95639576D01*
X163698329Y-95624441D01*
X163674682Y-95606903D01*
X163652868Y-95587132D01*
X163633097Y-95565318D01*
X163615559Y-95541671D01*
X163600424Y-95516419D01*
X163587836Y-95489805D01*
X163577918Y-95462085D01*
X163570764Y-95433527D01*
X163566445Y-95404405D01*
X163565000Y-95375000D01*
X163565000Y-94775000D01*
X163566445Y-94745595D01*
X163570764Y-94716473D01*
X163577918Y-94687915D01*
X163587836Y-94660195D01*
X163600424Y-94633581D01*
X163615559Y-94608329D01*
X163633097Y-94584682D01*
X163652868Y-94562868D01*
X163674682Y-94543097D01*
X163698329Y-94525559D01*
X163723581Y-94510424D01*
X163750195Y-94497836D01*
X163777915Y-94487918D01*
X163806473Y-94480764D01*
X163835595Y-94476445D01*
X163865000Y-94475000D01*
X165065000Y-94475000D01*
X165094405Y-94476445D01*
X165094405Y-94476445D01*
G37*
D14*
X164465000Y-95075000D03*
D15*
X152400000Y-83820000D03*
X152400000Y-104140000D03*
X176530000Y-97790000D03*
X176530000Y-90170000D03*
D16*
X133985000Y-83185000D03*
X133985000Y-104775000D03*
X177165000Y-104775000D03*
X177165000Y-83185000D03*
D17*
X161290000Y-85090000D03*
D18*
X161290000Y-87630000D03*
X161290000Y-90170000D03*
X161290000Y-92710000D03*
X161290000Y-95250000D03*
X161290000Y-97790000D03*
X161290000Y-100330000D03*
X161290000Y-102870000D03*
D19*
X165862000Y-88519000D03*
X164465000Y-87249000D03*
D20*
X164465000Y-95075000D02*
X168100000Y-95075000D01*
X170405000Y-97380000D02*
X170581000Y-97380000D01*
X168100000Y-95075000D02*
X170405000Y-97380000D01*
X165813000Y-88470000D02*
X165862000Y-88519000D01*
X164465000Y-88470000D02*
X165813000Y-88470000D01*
X164465000Y-88470000D02*
X164465000Y-87249000D01*
X164465000Y-88470000D02*
X163019000Y-88470000D01*
X161290000Y-87630000D02*
X162941000Y-87630000D01*
X163019000Y-87708000D02*
X163019000Y-88470000D01*
X162941000Y-87630000D02*
X163019000Y-87708000D01*
X164465000Y-90170000D02*
X161290000Y-90170000D01*
X164465000Y-92075000D02*
X164465000Y-90170000D01*
D21*
G36*
X177461826Y-81685902D02*
G01*
X177747355Y-81772109D01*
X178010695Y-81912129D01*
X178241824Y-82100633D01*
X178431938Y-82330443D01*
X178573793Y-82592800D01*
X178661988Y-82877711D01*
X178695001Y-83191805D01*
X178695000Y-104756663D01*
X178664098Y-105071826D01*
X178577892Y-105357354D01*
X178437872Y-105620694D01*
X178249368Y-105851822D01*
X178019560Y-106041937D01*
X177757202Y-106183793D01*
X177472289Y-106271988D01*
X177158206Y-106305000D01*
X134003337Y-106305000D01*
X133688174Y-106274098D01*
X133402646Y-106187892D01*
X133139306Y-106047872D01*
X132908178Y-105859368D01*
X132718063Y-105629560D01*
X132576207Y-105367202D01*
X132488012Y-105082289D01*
X132455000Y-104768206D01*
X132455000Y-102844879D01*
X136786574Y-102844879D01*
X136786812Y-102878937D01*
X136786575Y-102912852D01*
X136787085Y-102918063D01*
X136812993Y-103164567D01*
X136819834Y-103197891D01*
X136826197Y-103231248D01*
X136827710Y-103236260D01*
X136901005Y-103473036D01*
X136914187Y-103504396D01*
X136926908Y-103535880D01*
X136929364Y-103540500D01*
X136929366Y-103540505D01*
X136929369Y-103540509D01*
X137047253Y-103758533D01*
X137066271Y-103786728D01*
X137084871Y-103815152D01*
X137088180Y-103819210D01*
X137246173Y-104010189D01*
X137270274Y-104034122D01*
X137294070Y-104058421D01*
X137298104Y-104061759D01*
X137490182Y-104218414D01*
X137518491Y-104237222D01*
X137546536Y-104256425D01*
X137551142Y-104258916D01*
X137769989Y-104375278D01*
X137801420Y-104388233D01*
X137832651Y-104401619D01*
X137837653Y-104403168D01*
X138074934Y-104474808D01*
X138108296Y-104481414D01*
X138141521Y-104488476D01*
X138146728Y-104489023D01*
X138393406Y-104513210D01*
X138411581Y-104515000D01*
X142893419Y-104515000D01*
X142894725Y-104514871D01*
X142895354Y-104514867D01*
X142904037Y-104513954D01*
X142912853Y-104513086D01*
X142929326Y-104513086D01*
X142934533Y-104512539D01*
X143180849Y-104484910D01*
X143214095Y-104477843D01*
X143247434Y-104471242D01*
X143252436Y-104469694D01*
X143488694Y-104394749D01*
X143519964Y-104381346D01*
X143551358Y-104368407D01*
X143555964Y-104365917D01*
X143773166Y-104246509D01*
X143801221Y-104227299D01*
X143829519Y-104208498D01*
X143833554Y-104205160D01*
X144023426Y-104045838D01*
X144044543Y-104024273D01*
X151225000Y-104024273D01*
X151225000Y-104255727D01*
X151270155Y-104482735D01*
X151358729Y-104696571D01*
X151487318Y-104889019D01*
X151650981Y-105052682D01*
X151843429Y-105181271D01*
X152057265Y-105269845D01*
X152284273Y-105315000D01*
X152515727Y-105315000D01*
X152742735Y-105269845D01*
X152956571Y-105181271D01*
X153149019Y-105052682D01*
X153312682Y-104889019D01*
X153441271Y-104696571D01*
X153529845Y-104482735D01*
X153575000Y-104255727D01*
X153575000Y-104024273D01*
X153529845Y-103797265D01*
X153441271Y-103583429D01*
X153312682Y-103390981D01*
X153149019Y-103227318D01*
X152956571Y-103098729D01*
X152742735Y-103010155D01*
X152515727Y-102965000D01*
X152284273Y-102965000D01*
X152057265Y-103010155D01*
X151843429Y-103098729D01*
X151650981Y-103227318D01*
X151487318Y-103390981D01*
X151358729Y-103583429D01*
X151270155Y-103797265D01*
X151225000Y-104024273D01*
X144044543Y-104024273D01*
X144047214Y-104021546D01*
X144071321Y-103997607D01*
X144074631Y-103993549D01*
X144229942Y-103800382D01*
X144248560Y-103771931D01*
X144267559Y-103743763D01*
X144270018Y-103739140D01*
X144384850Y-103519485D01*
X144397589Y-103487954D01*
X144410752Y-103456642D01*
X144412265Y-103451629D01*
X144482248Y-103213853D01*
X144488631Y-103180390D01*
X144495450Y-103147172D01*
X144495962Y-103141961D01*
X144518426Y-102895121D01*
X144518251Y-102870000D01*
X160134436Y-102870000D01*
X160156640Y-103095439D01*
X160222398Y-103312215D01*
X160329184Y-103511997D01*
X160472893Y-103687107D01*
X160648003Y-103830816D01*
X160847785Y-103937602D01*
X161064561Y-104003360D01*
X161233508Y-104020000D01*
X161346492Y-104020000D01*
X161515439Y-104003360D01*
X161732215Y-103937602D01*
X161931997Y-103830816D01*
X162107107Y-103687107D01*
X162250816Y-103511997D01*
X162357602Y-103312215D01*
X162423360Y-103095439D01*
X162445564Y-102870000D01*
X162423360Y-102644561D01*
X162357602Y-102427785D01*
X162351475Y-102416322D01*
X172112466Y-102416322D01*
X172350160Y-102686106D01*
X172755428Y-102888645D01*
X173192422Y-103008229D01*
X173644349Y-103040261D01*
X174093841Y-102983512D01*
X174523626Y-102840161D01*
X174811840Y-102686106D01*
X175049534Y-102416322D01*
X173581000Y-100947789D01*
X172112466Y-102416322D01*
X162351475Y-102416322D01*
X162250816Y-102228003D01*
X162107107Y-102052893D01*
X161931997Y-101909184D01*
X161732215Y-101802398D01*
X161515439Y-101736640D01*
X161346492Y-101720000D01*
X161233508Y-101720000D01*
X161064561Y-101736640D01*
X160847785Y-101802398D01*
X160648003Y-101909184D01*
X160472893Y-102052893D01*
X160329184Y-102228003D01*
X160222398Y-102427785D01*
X160156640Y-102644561D01*
X160134436Y-102870000D01*
X144518251Y-102870000D01*
X144518188Y-102861063D01*
X144518425Y-102827148D01*
X144517915Y-102821937D01*
X144492007Y-102575434D01*
X144485166Y-102542109D01*
X144478803Y-102508753D01*
X144477290Y-102503740D01*
X144403995Y-102266964D01*
X144390813Y-102235604D01*
X144378092Y-102204120D01*
X144375634Y-102199496D01*
X144375634Y-102199495D01*
X144375631Y-102199491D01*
X144257746Y-101981466D01*
X144238725Y-101953266D01*
X144220129Y-101924848D01*
X144216820Y-101920790D01*
X144058827Y-101729810D01*
X144034664Y-101705815D01*
X144010930Y-101681579D01*
X144006896Y-101678241D01*
X143814818Y-101521586D01*
X143786494Y-101502767D01*
X143758464Y-101483575D01*
X143753858Y-101481084D01*
X143535010Y-101364721D01*
X143503561Y-101351759D01*
X143472349Y-101338381D01*
X143467347Y-101336832D01*
X143230066Y-101265192D01*
X143196704Y-101258586D01*
X143163479Y-101251524D01*
X143158272Y-101250977D01*
X142911594Y-101226790D01*
X142893419Y-101225000D01*
X138411581Y-101225000D01*
X138410275Y-101225129D01*
X138409646Y-101225133D01*
X138400961Y-101226046D01*
X138392147Y-101226914D01*
X138375675Y-101226914D01*
X138370467Y-101227461D01*
X138124151Y-101255090D01*
X138090905Y-101262157D01*
X138057566Y-101268758D01*
X138052564Y-101270306D01*
X137816306Y-101345251D01*
X137785064Y-101358641D01*
X137753642Y-101371593D01*
X137749036Y-101374083D01*
X137531834Y-101493491D01*
X137503779Y-101512701D01*
X137475481Y-101531502D01*
X137471447Y-101534839D01*
X137281574Y-101694162D01*
X137257786Y-101718454D01*
X137233679Y-101742393D01*
X137230369Y-101746451D01*
X137075058Y-101939618D01*
X137056430Y-101968084D01*
X137037441Y-101996237D01*
X137034982Y-102000860D01*
X136920150Y-102220515D01*
X136907411Y-102252046D01*
X136894248Y-102283358D01*
X136892735Y-102288371D01*
X136822753Y-102526147D01*
X136816383Y-102559541D01*
X136809550Y-102592828D01*
X136809038Y-102598039D01*
X136786574Y-102844879D01*
X132455000Y-102844879D01*
X132455000Y-99713418D01*
X146310000Y-99713418D01*
X146310129Y-99714724D01*
X146310195Y-99724221D01*
X146311976Y-99741164D01*
X146311976Y-99758191D01*
X146312523Y-99763399D01*
X146353966Y-100132873D01*
X146361041Y-100166156D01*
X146367635Y-100199458D01*
X146369182Y-100204461D01*
X146481600Y-100558847D01*
X146495003Y-100590117D01*
X146507942Y-100621511D01*
X146510432Y-100626117D01*
X146689544Y-100951920D01*
X146708766Y-100979992D01*
X146727555Y-101008272D01*
X146730892Y-101012307D01*
X146969874Y-101297115D01*
X146994166Y-101320904D01*
X147018107Y-101345012D01*
X147022164Y-101348322D01*
X147311915Y-101581287D01*
X147340356Y-101599898D01*
X147368533Y-101618904D01*
X147373156Y-101621362D01*
X147702638Y-101793611D01*
X147734145Y-101806340D01*
X147765484Y-101819514D01*
X147770496Y-101821028D01*
X148127161Y-101926000D01*
X148160595Y-101932378D01*
X148193840Y-101939202D01*
X148199051Y-101939714D01*
X148569311Y-101973411D01*
X148603370Y-101973173D01*
X148637286Y-101973410D01*
X148642497Y-101972900D01*
X149012252Y-101934037D01*
X149045603Y-101927191D01*
X149078931Y-101920833D01*
X149083944Y-101919320D01*
X149439108Y-101809378D01*
X149470456Y-101796200D01*
X149501952Y-101783475D01*
X149506576Y-101781017D01*
X149833620Y-101604186D01*
X149861832Y-101585157D01*
X149890238Y-101566568D01*
X149894296Y-101563259D01*
X150180766Y-101326271D01*
X150204725Y-101302143D01*
X150228998Y-101278374D01*
X150232336Y-101274339D01*
X150467319Y-100986222D01*
X150486142Y-100957890D01*
X150505330Y-100929868D01*
X150507820Y-100925263D01*
X150682366Y-100596990D01*
X150695334Y-100565527D01*
X150708706Y-100534328D01*
X150710255Y-100529326D01*
X150817715Y-100173404D01*
X150824322Y-100140035D01*
X150831383Y-100106817D01*
X150831930Y-100101609D01*
X150868210Y-99731594D01*
X150870000Y-99713419D01*
X150870000Y-99713418D01*
X153930000Y-99713418D01*
X153930129Y-99714724D01*
X153930195Y-99724221D01*
X153931976Y-99741164D01*
X153931976Y-99758191D01*
X153932523Y-99763399D01*
X153973966Y-100132873D01*
X153981041Y-100166156D01*
X153987635Y-100199458D01*
X153989182Y-100204461D01*
X154101600Y-100558847D01*
X154115003Y-100590117D01*
X154127942Y-100621511D01*
X154130432Y-100626117D01*
X154309544Y-100951920D01*
X154328766Y-100979992D01*
X154347555Y-101008272D01*
X154350892Y-101012307D01*
X154589874Y-101297115D01*
X154614166Y-101320904D01*
X154638107Y-101345012D01*
X154642164Y-101348322D01*
X154931915Y-101581287D01*
X154960356Y-101599898D01*
X154988533Y-101618904D01*
X154993156Y-101621362D01*
X155322638Y-101793611D01*
X155354145Y-101806340D01*
X155385484Y-101819514D01*
X155390496Y-101821028D01*
X155747161Y-101926000D01*
X155780595Y-101932378D01*
X155813840Y-101939202D01*
X155819051Y-101939714D01*
X156189311Y-101973411D01*
X156223370Y-101973173D01*
X156257286Y-101973410D01*
X156262497Y-101972900D01*
X156632252Y-101934037D01*
X156665603Y-101927191D01*
X156698931Y-101920833D01*
X156703944Y-101919320D01*
X157059108Y-101809378D01*
X157090456Y-101796200D01*
X157121952Y-101783475D01*
X157126576Y-101781017D01*
X157453620Y-101604186D01*
X157481832Y-101585157D01*
X157510238Y-101566568D01*
X157514296Y-101563259D01*
X157800766Y-101326271D01*
X157824725Y-101302143D01*
X157848998Y-101278374D01*
X157852336Y-101274339D01*
X158087319Y-100986222D01*
X158106142Y-100957890D01*
X158125330Y-100929868D01*
X158127820Y-100925263D01*
X158302366Y-100596990D01*
X158315334Y-100565527D01*
X158328706Y-100534328D01*
X158330255Y-100529326D01*
X158390435Y-100330000D01*
X160134436Y-100330000D01*
X160156640Y-100555439D01*
X160222398Y-100772215D01*
X160329184Y-100971997D01*
X160472893Y-101147107D01*
X160648003Y-101290816D01*
X160847785Y-101397602D01*
X161064561Y-101463360D01*
X161233508Y-101480000D01*
X161346492Y-101480000D01*
X161515439Y-101463360D01*
X161732215Y-101397602D01*
X161931997Y-101290816D01*
X162107107Y-101147107D01*
X162250816Y-100971997D01*
X162346305Y-100793349D01*
X171270739Y-100793349D01*
X171327488Y-101242841D01*
X171470839Y-101672626D01*
X171624894Y-101960840D01*
X171894678Y-102198534D01*
X173363211Y-100730000D01*
X173798789Y-100730000D01*
X175267322Y-102198534D01*
X175537106Y-101960840D01*
X175739645Y-101555572D01*
X175859229Y-101118578D01*
X175891261Y-100666651D01*
X175834512Y-100217159D01*
X175691161Y-99787374D01*
X175537106Y-99499160D01*
X175267322Y-99261466D01*
X173798789Y-100730000D01*
X173363211Y-100730000D01*
X171894678Y-99261466D01*
X171624894Y-99499160D01*
X171422355Y-99904428D01*
X171302771Y-100341422D01*
X171270739Y-100793349D01*
X162346305Y-100793349D01*
X162357602Y-100772215D01*
X162423360Y-100555439D01*
X162445564Y-100330000D01*
X162423360Y-100104561D01*
X162357602Y-99887785D01*
X162250816Y-99688003D01*
X162107107Y-99512893D01*
X161931997Y-99369184D01*
X161732215Y-99262398D01*
X161515439Y-99196640D01*
X161346492Y-99180000D01*
X161233508Y-99180000D01*
X161064561Y-99196640D01*
X160847785Y-99262398D01*
X160648003Y-99369184D01*
X160472893Y-99512893D01*
X160329184Y-99688003D01*
X160222398Y-99887785D01*
X160156640Y-100104561D01*
X160134436Y-100330000D01*
X158390435Y-100330000D01*
X158437715Y-100173404D01*
X158444322Y-100140035D01*
X158451383Y-100106817D01*
X158451930Y-100101609D01*
X158488210Y-99731594D01*
X158490000Y-99713419D01*
X158490000Y-99043678D01*
X172112466Y-99043678D01*
X173581000Y-100512211D01*
X175049534Y-99043678D01*
X174811840Y-98773894D01*
X174406572Y-98571355D01*
X173969578Y-98451771D01*
X173517651Y-98419739D01*
X173068159Y-98476488D01*
X172638374Y-98619839D01*
X172350160Y-98773894D01*
X172112466Y-99043678D01*
X158490000Y-99043678D01*
X158490000Y-98120383D01*
X160188480Y-98120383D01*
X160190561Y-98127272D01*
X160277485Y-98335281D01*
X160403319Y-98522336D01*
X160563228Y-98681247D01*
X160751066Y-98805908D01*
X160959615Y-98891528D01*
X161136000Y-98854650D01*
X161136000Y-97944000D01*
X161444000Y-97944000D01*
X161444000Y-98854650D01*
X161620385Y-98891528D01*
X161828934Y-98805908D01*
X162016772Y-98681247D01*
X162176681Y-98522336D01*
X162302515Y-98335281D01*
X162389439Y-98127272D01*
X162391520Y-98120383D01*
X162353912Y-97944000D01*
X161444000Y-97944000D01*
X161136000Y-97944000D01*
X160226088Y-97944000D01*
X160188480Y-98120383D01*
X158490000Y-98120383D01*
X158490000Y-97459617D01*
X160188480Y-97459617D01*
X160226088Y-97636000D01*
X161136000Y-97636000D01*
X161136000Y-96725350D01*
X161444000Y-96725350D01*
X161444000Y-97636000D01*
X162353912Y-97636000D01*
X162391520Y-97459617D01*
X162389439Y-97452728D01*
X162302515Y-97244719D01*
X162176681Y-97057664D01*
X162016772Y-96898753D01*
X161828934Y-96774092D01*
X161620385Y-96688472D01*
X161444000Y-96725350D01*
X161136000Y-96725350D01*
X160959615Y-96688472D01*
X160751066Y-96774092D01*
X160563228Y-96898753D01*
X160403319Y-97057664D01*
X160277485Y-97244719D01*
X160190561Y-97452728D01*
X160188480Y-97459617D01*
X158490000Y-97459617D01*
X158490000Y-95580383D01*
X160188480Y-95580383D01*
X160190561Y-95587272D01*
X160277485Y-95795281D01*
X160403319Y-95982336D01*
X160563228Y-96141247D01*
X160751066Y-96265908D01*
X160959615Y-96351528D01*
X161136000Y-96314650D01*
X161136000Y-95404000D01*
X161444000Y-95404000D01*
X161444000Y-96314650D01*
X161620385Y-96351528D01*
X161828934Y-96265908D01*
X162016772Y-96141247D01*
X162176681Y-95982336D01*
X162302515Y-95795281D01*
X162389439Y-95587272D01*
X162391520Y-95580383D01*
X162353912Y-95404000D01*
X161444000Y-95404000D01*
X161136000Y-95404000D01*
X160226088Y-95404000D01*
X160188480Y-95580383D01*
X158490000Y-95580383D01*
X158490000Y-94919617D01*
X160188480Y-94919617D01*
X160226088Y-95096000D01*
X161136000Y-95096000D01*
X161136000Y-94185350D01*
X161444000Y-94185350D01*
X161444000Y-95096000D01*
X162353912Y-95096000D01*
X162391520Y-94919617D01*
X162389439Y-94912728D01*
X162331885Y-94775000D01*
X163263549Y-94775000D01*
X163263549Y-95375000D01*
X163275106Y-95492337D01*
X163309332Y-95605165D01*
X163364912Y-95709148D01*
X163439710Y-95800290D01*
X163530852Y-95875088D01*
X163634835Y-95930668D01*
X163747663Y-95964894D01*
X163865000Y-95976451D01*
X165065000Y-95976451D01*
X165182337Y-95964894D01*
X165295165Y-95930668D01*
X165399148Y-95875088D01*
X165490290Y-95800290D01*
X165511045Y-95775000D01*
X167810051Y-95775000D01*
X168218989Y-96183938D01*
X168199190Y-96180000D01*
X167962810Y-96180000D01*
X167730973Y-96226116D01*
X167512587Y-96316574D01*
X167316045Y-96447899D01*
X167148899Y-96615045D01*
X167017574Y-96811587D01*
X166927116Y-97029973D01*
X166881000Y-97261810D01*
X166881000Y-97498190D01*
X166927116Y-97730027D01*
X167017574Y-97948413D01*
X167148899Y-98144955D01*
X167316045Y-98312101D01*
X167512587Y-98443426D01*
X167730973Y-98533884D01*
X167962810Y-98580000D01*
X168199190Y-98580000D01*
X168431027Y-98533884D01*
X168649413Y-98443426D01*
X168845955Y-98312101D01*
X169013101Y-98144955D01*
X169144426Y-97948413D01*
X169234884Y-97730027D01*
X169281000Y-97498190D01*
X169281000Y-97261810D01*
X169277062Y-97242011D01*
X169381000Y-97345949D01*
X169381000Y-97498190D01*
X169427116Y-97730027D01*
X169517574Y-97948413D01*
X169648899Y-98144955D01*
X169816045Y-98312101D01*
X170012587Y-98443426D01*
X170230973Y-98533884D01*
X170462810Y-98580000D01*
X170699190Y-98580000D01*
X170931027Y-98533884D01*
X171149413Y-98443426D01*
X171345955Y-98312101D01*
X171513101Y-98144955D01*
X171644426Y-97948413D01*
X171734884Y-97730027D01*
X171745974Y-97674273D01*
X175355000Y-97674273D01*
X175355000Y-97905727D01*
X175400155Y-98132735D01*
X175488729Y-98346571D01*
X175617318Y-98539019D01*
X175780981Y-98702682D01*
X175973429Y-98831271D01*
X176187265Y-98919845D01*
X176414273Y-98965000D01*
X176645727Y-98965000D01*
X176872735Y-98919845D01*
X177086571Y-98831271D01*
X177279019Y-98702682D01*
X177442682Y-98539019D01*
X177571271Y-98346571D01*
X177659845Y-98132735D01*
X177705000Y-97905727D01*
X177705000Y-97674273D01*
X177659845Y-97447265D01*
X177571271Y-97233429D01*
X177442682Y-97040981D01*
X177279019Y-96877318D01*
X177086571Y-96748729D01*
X176872735Y-96660155D01*
X176645727Y-96615000D01*
X176414273Y-96615000D01*
X176187265Y-96660155D01*
X175973429Y-96748729D01*
X175780981Y-96877318D01*
X175617318Y-97040981D01*
X175488729Y-97233429D01*
X175400155Y-97447265D01*
X175355000Y-97674273D01*
X171745974Y-97674273D01*
X171781000Y-97498190D01*
X171781000Y-97261810D01*
X171734884Y-97029973D01*
X171644426Y-96811587D01*
X171513101Y-96615045D01*
X171345955Y-96447899D01*
X171169506Y-96330000D01*
X171345955Y-96212101D01*
X171513101Y-96044955D01*
X171644426Y-95848413D01*
X171719850Y-95666322D01*
X172912466Y-95666322D01*
X173150160Y-95936106D01*
X173555428Y-96138645D01*
X173992422Y-96258229D01*
X174444349Y-96290261D01*
X174893841Y-96233512D01*
X175323626Y-96090161D01*
X175611840Y-95936106D01*
X175849534Y-95666322D01*
X174381000Y-94197789D01*
X172912466Y-95666322D01*
X171719850Y-95666322D01*
X171734884Y-95630027D01*
X171781000Y-95398190D01*
X171781000Y-95161810D01*
X171734884Y-94929973D01*
X171644426Y-94711587D01*
X171513101Y-94515045D01*
X171345955Y-94347899D01*
X171149413Y-94216574D01*
X170931027Y-94126116D01*
X170699190Y-94080000D01*
X170462810Y-94080000D01*
X170230973Y-94126116D01*
X170012587Y-94216574D01*
X169816045Y-94347899D01*
X169648899Y-94515045D01*
X169517574Y-94711587D01*
X169427116Y-94929973D01*
X169381000Y-95161810D01*
X169381000Y-95366051D01*
X168619296Y-94604347D01*
X168597370Y-94577630D01*
X168490781Y-94490155D01*
X168369175Y-94425155D01*
X168237224Y-94385128D01*
X168134390Y-94375000D01*
X168134387Y-94375000D01*
X168100000Y-94371613D01*
X168065613Y-94375000D01*
X165511045Y-94375000D01*
X165490290Y-94349710D01*
X165399148Y-94274912D01*
X165295165Y-94219332D01*
X165182337Y-94185106D01*
X165065000Y-94173549D01*
X163865000Y-94173549D01*
X163747663Y-94185106D01*
X163634835Y-94219332D01*
X163530852Y-94274912D01*
X163439710Y-94349710D01*
X163364912Y-94440852D01*
X163309332Y-94544835D01*
X163275106Y-94657663D01*
X163263549Y-94775000D01*
X162331885Y-94775000D01*
X162302515Y-94704719D01*
X162176681Y-94517664D01*
X162016772Y-94358753D01*
X161828934Y-94234092D01*
X161620385Y-94148472D01*
X161444000Y-94185350D01*
X161136000Y-94185350D01*
X160959615Y-94148472D01*
X160751066Y-94234092D01*
X160563228Y-94358753D01*
X160403319Y-94517664D01*
X160277485Y-94704719D01*
X160190561Y-94912728D01*
X160188480Y-94919617D01*
X158490000Y-94919617D01*
X158490000Y-94043349D01*
X172070739Y-94043349D01*
X172127488Y-94492841D01*
X172270839Y-94922626D01*
X172424894Y-95210840D01*
X172694678Y-95448534D01*
X174163211Y-93980000D01*
X174598789Y-93980000D01*
X176067322Y-95448534D01*
X176337106Y-95210840D01*
X176539645Y-94805572D01*
X176659229Y-94368578D01*
X176691261Y-93916651D01*
X176634512Y-93467159D01*
X176491161Y-93037374D01*
X176337106Y-92749160D01*
X176067322Y-92511466D01*
X174598789Y-93980000D01*
X174163211Y-93980000D01*
X172694678Y-92511466D01*
X172424894Y-92749160D01*
X172222355Y-93154428D01*
X172102771Y-93591422D01*
X172070739Y-94043349D01*
X158490000Y-94043349D01*
X158490000Y-92710000D01*
X160134436Y-92710000D01*
X160156640Y-92935439D01*
X160222398Y-93152215D01*
X160329184Y-93351997D01*
X160472893Y-93527107D01*
X160648003Y-93670816D01*
X160847785Y-93777602D01*
X161064561Y-93843360D01*
X161233508Y-93860000D01*
X161346492Y-93860000D01*
X161515439Y-93843360D01*
X161732215Y-93777602D01*
X161931997Y-93670816D01*
X162107107Y-93527107D01*
X162250816Y-93351997D01*
X162357602Y-93152215D01*
X162423360Y-92935439D01*
X162445564Y-92710000D01*
X162423360Y-92484561D01*
X162357602Y-92267785D01*
X162250816Y-92068003D01*
X162107107Y-91892893D01*
X161931997Y-91749184D01*
X161732215Y-91642398D01*
X161515439Y-91576640D01*
X161346492Y-91560000D01*
X161233508Y-91560000D01*
X161064561Y-91576640D01*
X160847785Y-91642398D01*
X160648003Y-91749184D01*
X160472893Y-91892893D01*
X160329184Y-92068003D01*
X160222398Y-92267785D01*
X160156640Y-92484561D01*
X160134436Y-92710000D01*
X158490000Y-92710000D01*
X158490000Y-90170000D01*
X160134436Y-90170000D01*
X160156640Y-90395439D01*
X160222398Y-90612215D01*
X160329184Y-90811997D01*
X160472893Y-90987107D01*
X160648003Y-91130816D01*
X160847785Y-91237602D01*
X161064561Y-91303360D01*
X161233508Y-91320000D01*
X161346492Y-91320000D01*
X161515439Y-91303360D01*
X161732215Y-91237602D01*
X161931997Y-91130816D01*
X162107107Y-90987107D01*
X162203214Y-90870000D01*
X163675915Y-90870000D01*
X163714186Y-90901408D01*
X163765001Y-90928569D01*
X163765000Y-91183398D01*
X163747663Y-91185106D01*
X163634835Y-91219332D01*
X163530852Y-91274912D01*
X163439710Y-91349710D01*
X163364912Y-91440852D01*
X163309332Y-91544835D01*
X163275106Y-91657663D01*
X163263549Y-91775000D01*
X163263549Y-92375000D01*
X163275106Y-92492337D01*
X163309332Y-92605165D01*
X163364912Y-92709148D01*
X163439710Y-92800290D01*
X163530852Y-92875088D01*
X163634835Y-92930668D01*
X163747663Y-92964894D01*
X163865000Y-92976451D01*
X165065000Y-92976451D01*
X165182337Y-92964894D01*
X165295165Y-92930668D01*
X165399148Y-92875088D01*
X165490290Y-92800290D01*
X165565088Y-92709148D01*
X165620668Y-92605165D01*
X165633819Y-92561810D01*
X169381000Y-92561810D01*
X169381000Y-92798190D01*
X169427116Y-93030027D01*
X169517574Y-93248413D01*
X169648899Y-93444955D01*
X169816045Y-93612101D01*
X170012587Y-93743426D01*
X170230973Y-93833884D01*
X170462810Y-93880000D01*
X170699190Y-93880000D01*
X170931027Y-93833884D01*
X171149413Y-93743426D01*
X171345955Y-93612101D01*
X171513101Y-93444955D01*
X171644426Y-93248413D01*
X171734884Y-93030027D01*
X171781000Y-92798190D01*
X171781000Y-92561810D01*
X171734884Y-92329973D01*
X171719851Y-92293678D01*
X172912466Y-92293678D01*
X174381000Y-93762211D01*
X175849534Y-92293678D01*
X175611840Y-92023894D01*
X175206572Y-91821355D01*
X174769578Y-91701771D01*
X174317651Y-91669739D01*
X173868159Y-91726488D01*
X173438374Y-91869839D01*
X173150160Y-92023894D01*
X172912466Y-92293678D01*
X171719851Y-92293678D01*
X171644426Y-92111587D01*
X171513101Y-91915045D01*
X171345955Y-91747899D01*
X171166210Y-91627797D01*
X171264257Y-91481046D01*
X170581000Y-90797789D01*
X169897743Y-91481046D01*
X169995790Y-91627797D01*
X169816045Y-91747899D01*
X169648899Y-91915045D01*
X169517574Y-92111587D01*
X169427116Y-92329973D01*
X169381000Y-92561810D01*
X165633819Y-92561810D01*
X165654894Y-92492337D01*
X165666451Y-92375000D01*
X165666451Y-91775000D01*
X165654894Y-91657663D01*
X165620668Y-91544835D01*
X165565088Y-91440852D01*
X165490290Y-91349710D01*
X165399148Y-91274912D01*
X165295165Y-91219332D01*
X165182337Y-91185106D01*
X165165000Y-91183398D01*
X165165000Y-90928569D01*
X165215814Y-90901408D01*
X165301274Y-90831274D01*
X165371408Y-90745814D01*
X165423523Y-90648315D01*
X165455615Y-90542521D01*
X165463564Y-90461810D01*
X166881000Y-90461810D01*
X166881000Y-90698190D01*
X166927116Y-90930027D01*
X167017574Y-91148413D01*
X167148899Y-91344955D01*
X167316045Y-91512101D01*
X167512587Y-91643426D01*
X167730973Y-91733884D01*
X167962810Y-91780000D01*
X168199190Y-91780000D01*
X168431027Y-91733884D01*
X168649413Y-91643426D01*
X168845955Y-91512101D01*
X169013101Y-91344955D01*
X169144426Y-91148413D01*
X169234884Y-90930027D01*
X169281000Y-90698190D01*
X169281000Y-90686929D01*
X169379944Y-90686929D01*
X169423883Y-90919189D01*
X169512289Y-91138414D01*
X169522953Y-91158362D01*
X169679954Y-91263257D01*
X170363211Y-90580000D01*
X170798789Y-90580000D01*
X171482046Y-91263257D01*
X171639047Y-91158362D01*
X171731550Y-90940834D01*
X171779838Y-90709439D01*
X171782056Y-90473071D01*
X171738117Y-90240811D01*
X171662893Y-90054273D01*
X175355000Y-90054273D01*
X175355000Y-90285727D01*
X175400155Y-90512735D01*
X175488729Y-90726571D01*
X175617318Y-90919019D01*
X175780981Y-91082682D01*
X175973429Y-91211271D01*
X176187265Y-91299845D01*
X176414273Y-91345000D01*
X176645727Y-91345000D01*
X176872735Y-91299845D01*
X177086571Y-91211271D01*
X177279019Y-91082682D01*
X177442682Y-90919019D01*
X177571271Y-90726571D01*
X177659845Y-90512735D01*
X177705000Y-90285727D01*
X177705000Y-90054273D01*
X177659845Y-89827265D01*
X177571271Y-89613429D01*
X177442682Y-89420981D01*
X177279019Y-89257318D01*
X177086571Y-89128729D01*
X176872735Y-89040155D01*
X176645727Y-88995000D01*
X176414273Y-88995000D01*
X176187265Y-89040155D01*
X175973429Y-89128729D01*
X175780981Y-89257318D01*
X175617318Y-89420981D01*
X175488729Y-89613429D01*
X175400155Y-89827265D01*
X175355000Y-90054273D01*
X171662893Y-90054273D01*
X171649711Y-90021586D01*
X171639047Y-90001638D01*
X171482046Y-89896743D01*
X170798789Y-90580000D01*
X170363211Y-90580000D01*
X169679954Y-89896743D01*
X169522953Y-90001638D01*
X169430450Y-90219166D01*
X169382162Y-90450561D01*
X169379944Y-90686929D01*
X169281000Y-90686929D01*
X169281000Y-90461810D01*
X169234884Y-90229973D01*
X169144426Y-90011587D01*
X169013101Y-89815045D01*
X168877010Y-89678954D01*
X169897743Y-89678954D01*
X170581000Y-90362211D01*
X171264257Y-89678954D01*
X171159362Y-89521953D01*
X170941834Y-89429450D01*
X170710439Y-89381162D01*
X170474071Y-89378944D01*
X170241811Y-89422883D01*
X170022586Y-89511289D01*
X170002638Y-89521953D01*
X169897743Y-89678954D01*
X168877010Y-89678954D01*
X168845955Y-89647899D01*
X168649413Y-89516574D01*
X168431027Y-89426116D01*
X168199190Y-89380000D01*
X167962810Y-89380000D01*
X167730973Y-89426116D01*
X167512587Y-89516574D01*
X167316045Y-89647899D01*
X167148899Y-89815045D01*
X167017574Y-90011587D01*
X166927116Y-90229973D01*
X166881000Y-90461810D01*
X165463564Y-90461810D01*
X165466451Y-90432500D01*
X165466451Y-89907500D01*
X165455615Y-89797479D01*
X165423523Y-89691685D01*
X165371408Y-89594186D01*
X165301274Y-89508726D01*
X165215814Y-89438592D01*
X165118315Y-89386477D01*
X165012521Y-89354385D01*
X164902500Y-89343549D01*
X164027500Y-89343549D01*
X163917479Y-89354385D01*
X163811685Y-89386477D01*
X163714186Y-89438592D01*
X163675915Y-89470000D01*
X162203214Y-89470000D01*
X162107107Y-89352893D01*
X161931997Y-89209184D01*
X161732215Y-89102398D01*
X161515439Y-89036640D01*
X161346492Y-89020000D01*
X161233508Y-89020000D01*
X161064561Y-89036640D01*
X160847785Y-89102398D01*
X160648003Y-89209184D01*
X160472893Y-89352893D01*
X160329184Y-89528003D01*
X160222398Y-89727785D01*
X160156640Y-89944561D01*
X160134436Y-90170000D01*
X158490000Y-90170000D01*
X158490000Y-88995000D01*
X163463548Y-88995000D01*
X163469340Y-89053810D01*
X163486495Y-89110361D01*
X163514352Y-89162478D01*
X163551841Y-89208159D01*
X163597522Y-89245648D01*
X163649639Y-89273505D01*
X163706190Y-89290660D01*
X163765000Y-89296452D01*
X164236000Y-89295000D01*
X164311000Y-89220000D01*
X164311000Y-88624000D01*
X164619000Y-88624000D01*
X164619000Y-89220000D01*
X164694000Y-89295000D01*
X165165000Y-89296452D01*
X165223810Y-89290660D01*
X165280361Y-89273505D01*
X165332478Y-89245648D01*
X165378159Y-89208159D01*
X165415648Y-89162478D01*
X165443505Y-89110361D01*
X165460660Y-89053810D01*
X165466452Y-88995000D01*
X165466067Y-88916322D01*
X172112466Y-88916322D01*
X172350160Y-89186106D01*
X172755428Y-89388645D01*
X173192422Y-89508229D01*
X173644349Y-89540261D01*
X174093841Y-89483512D01*
X174523626Y-89340161D01*
X174811840Y-89186106D01*
X175049534Y-88916322D01*
X173581000Y-87447789D01*
X172112466Y-88916322D01*
X165466067Y-88916322D01*
X165465000Y-88699000D01*
X165390000Y-88624000D01*
X164619000Y-88624000D01*
X164311000Y-88624000D01*
X163540000Y-88624000D01*
X163465000Y-88699000D01*
X163463548Y-88995000D01*
X158490000Y-88995000D01*
X158490000Y-88246581D01*
X158489871Y-88245275D01*
X158489805Y-88235780D01*
X158488024Y-88218837D01*
X158488024Y-88201809D01*
X158487477Y-88196601D01*
X158460982Y-87960383D01*
X160188480Y-87960383D01*
X160190561Y-87967272D01*
X160277485Y-88175281D01*
X160403319Y-88362336D01*
X160563228Y-88521247D01*
X160751066Y-88645908D01*
X160959615Y-88731528D01*
X161136000Y-88694650D01*
X161136000Y-87784000D01*
X161444000Y-87784000D01*
X161444000Y-88694650D01*
X161620385Y-88731528D01*
X161828934Y-88645908D01*
X162016772Y-88521247D01*
X162176681Y-88362336D01*
X162302515Y-88175281D01*
X162389439Y-87967272D01*
X162391520Y-87960383D01*
X162388241Y-87945000D01*
X163463548Y-87945000D01*
X163465000Y-88241000D01*
X163540000Y-88316000D01*
X164311000Y-88316000D01*
X164311000Y-87720000D01*
X164619000Y-87720000D01*
X164619000Y-88316000D01*
X165390000Y-88316000D01*
X165465000Y-88241000D01*
X165466452Y-87945000D01*
X165460660Y-87886190D01*
X165443505Y-87829639D01*
X165415648Y-87777522D01*
X165378159Y-87731841D01*
X165332478Y-87694352D01*
X165280361Y-87666495D01*
X165223810Y-87649340D01*
X165165000Y-87643548D01*
X164694000Y-87645000D01*
X164619000Y-87720000D01*
X164311000Y-87720000D01*
X164236000Y-87645000D01*
X163765000Y-87643548D01*
X163706190Y-87649340D01*
X163649639Y-87666495D01*
X163597522Y-87694352D01*
X163551841Y-87731841D01*
X163514352Y-87777522D01*
X163486495Y-87829639D01*
X163469340Y-87886190D01*
X163463548Y-87945000D01*
X162388241Y-87945000D01*
X162353912Y-87784000D01*
X161444000Y-87784000D01*
X161136000Y-87784000D01*
X160226088Y-87784000D01*
X160188480Y-87960383D01*
X158460982Y-87960383D01*
X158446034Y-87827127D01*
X158438961Y-87793852D01*
X158432365Y-87760541D01*
X158430817Y-87755539D01*
X158318400Y-87401152D01*
X158304987Y-87369857D01*
X158292058Y-87338489D01*
X158289568Y-87333883D01*
X158270731Y-87299617D01*
X160188480Y-87299617D01*
X160226088Y-87476000D01*
X161136000Y-87476000D01*
X161136000Y-86565350D01*
X161444000Y-86565350D01*
X161444000Y-87476000D01*
X162353912Y-87476000D01*
X162391520Y-87299617D01*
X162389627Y-87293349D01*
X171270739Y-87293349D01*
X171327488Y-87742841D01*
X171470839Y-88172626D01*
X171624894Y-88460840D01*
X171894678Y-88698534D01*
X173363211Y-87230000D01*
X173798789Y-87230000D01*
X175267322Y-88698534D01*
X175537106Y-88460840D01*
X175739645Y-88055572D01*
X175859229Y-87618578D01*
X175891261Y-87166651D01*
X175834512Y-86717159D01*
X175691161Y-86287374D01*
X175537106Y-85999160D01*
X175267322Y-85761466D01*
X173798789Y-87230000D01*
X173363211Y-87230000D01*
X171894678Y-85761466D01*
X171624894Y-85999160D01*
X171422355Y-86404428D01*
X171302771Y-86841422D01*
X171270739Y-87293349D01*
X162389627Y-87293349D01*
X162389439Y-87292728D01*
X162302515Y-87084719D01*
X162176681Y-86897664D01*
X162016772Y-86738753D01*
X161828934Y-86614092D01*
X161620385Y-86528472D01*
X161444000Y-86565350D01*
X161136000Y-86565350D01*
X160959615Y-86528472D01*
X160751066Y-86614092D01*
X160563228Y-86738753D01*
X160403319Y-86897664D01*
X160277485Y-87084719D01*
X160190561Y-87292728D01*
X160188480Y-87299617D01*
X158270731Y-87299617D01*
X158110456Y-87008080D01*
X158091246Y-86980025D01*
X158072445Y-86951727D01*
X158069108Y-86947693D01*
X157830126Y-86662885D01*
X157805833Y-86639096D01*
X157781893Y-86614988D01*
X157777835Y-86611678D01*
X157488085Y-86378712D01*
X157459618Y-86360084D01*
X157431467Y-86341096D01*
X157426844Y-86338637D01*
X157097362Y-86166389D01*
X157065840Y-86153653D01*
X157034517Y-86140486D01*
X157029504Y-86138972D01*
X156672839Y-86034000D01*
X156639405Y-86027622D01*
X156606160Y-86020798D01*
X156600949Y-86020286D01*
X156230689Y-85986589D01*
X156196630Y-85986827D01*
X156162714Y-85986590D01*
X156157503Y-85987100D01*
X155787749Y-86025963D01*
X155754411Y-86032807D01*
X155721069Y-86039167D01*
X155716056Y-86040680D01*
X155360892Y-86150622D01*
X155329555Y-86163795D01*
X155298048Y-86176525D01*
X155293424Y-86178983D01*
X154966379Y-86355815D01*
X154938179Y-86374836D01*
X154909761Y-86393432D01*
X154905703Y-86396741D01*
X154619234Y-86633730D01*
X154595294Y-86657838D01*
X154571002Y-86681626D01*
X154567664Y-86685661D01*
X154332681Y-86973778D01*
X154313858Y-87002110D01*
X154294670Y-87030132D01*
X154292180Y-87034737D01*
X154117635Y-87363009D01*
X154104686Y-87394426D01*
X154091294Y-87425672D01*
X154089745Y-87430674D01*
X153982285Y-87786597D01*
X153975678Y-87819965D01*
X153968617Y-87853184D01*
X153968070Y-87858391D01*
X153931790Y-88228407D01*
X153931790Y-88228416D01*
X153930001Y-88246581D01*
X153930000Y-99713418D01*
X150870000Y-99713418D01*
X150870000Y-88246581D01*
X150869871Y-88245275D01*
X150869805Y-88235780D01*
X150868024Y-88218837D01*
X150868024Y-88201809D01*
X150867477Y-88196601D01*
X150826034Y-87827127D01*
X150818961Y-87793852D01*
X150812365Y-87760541D01*
X150810817Y-87755539D01*
X150698400Y-87401152D01*
X150684987Y-87369857D01*
X150672058Y-87338489D01*
X150669568Y-87333883D01*
X150490456Y-87008080D01*
X150471246Y-86980025D01*
X150452445Y-86951727D01*
X150449108Y-86947693D01*
X150210126Y-86662885D01*
X150185833Y-86639096D01*
X150161893Y-86614988D01*
X150157835Y-86611678D01*
X149868085Y-86378712D01*
X149839618Y-86360084D01*
X149811467Y-86341096D01*
X149806844Y-86338637D01*
X149477362Y-86166389D01*
X149445840Y-86153653D01*
X149414517Y-86140486D01*
X149409504Y-86138972D01*
X149052839Y-86034000D01*
X149019405Y-86027622D01*
X148986160Y-86020798D01*
X148980949Y-86020286D01*
X148610689Y-85986589D01*
X148576630Y-85986827D01*
X148542714Y-85986590D01*
X148537503Y-85987100D01*
X148167749Y-86025963D01*
X148134411Y-86032807D01*
X148101069Y-86039167D01*
X148096056Y-86040680D01*
X147740892Y-86150622D01*
X147709555Y-86163795D01*
X147678048Y-86176525D01*
X147673424Y-86178983D01*
X147346379Y-86355815D01*
X147318179Y-86374836D01*
X147289761Y-86393432D01*
X147285703Y-86396741D01*
X146999234Y-86633730D01*
X146975294Y-86657838D01*
X146951002Y-86681626D01*
X146947664Y-86685661D01*
X146712681Y-86973778D01*
X146693858Y-87002110D01*
X146674670Y-87030132D01*
X146672180Y-87034737D01*
X146497635Y-87363009D01*
X146484686Y-87394426D01*
X146471294Y-87425672D01*
X146469745Y-87430674D01*
X146362285Y-87786597D01*
X146355678Y-87819965D01*
X146348617Y-87853184D01*
X146348070Y-87858391D01*
X146311790Y-88228407D01*
X146311790Y-88228416D01*
X146310001Y-88246581D01*
X146310000Y-99713418D01*
X132455000Y-99713418D01*
X132455000Y-85064879D01*
X136786574Y-85064879D01*
X136786812Y-85098937D01*
X136786575Y-85132852D01*
X136787085Y-85138063D01*
X136812993Y-85384567D01*
X136819834Y-85417891D01*
X136826197Y-85451248D01*
X136827710Y-85456260D01*
X136901005Y-85693036D01*
X136914187Y-85724396D01*
X136926908Y-85755880D01*
X136929364Y-85760500D01*
X136929366Y-85760505D01*
X136929369Y-85760509D01*
X137047253Y-85978533D01*
X137066271Y-86006728D01*
X137084871Y-86035152D01*
X137088180Y-86039210D01*
X137246173Y-86230189D01*
X137270274Y-86254122D01*
X137294070Y-86278421D01*
X137298104Y-86281759D01*
X137490182Y-86438414D01*
X137518491Y-86457222D01*
X137546536Y-86476425D01*
X137551142Y-86478916D01*
X137769989Y-86595278D01*
X137801420Y-86608233D01*
X137832651Y-86621619D01*
X137837653Y-86623168D01*
X138074934Y-86694808D01*
X138108296Y-86701414D01*
X138141521Y-86708476D01*
X138146728Y-86709023D01*
X138393406Y-86733210D01*
X138411581Y-86735000D01*
X142893419Y-86735000D01*
X142894725Y-86734871D01*
X142895354Y-86734867D01*
X142904037Y-86733954D01*
X142912853Y-86733086D01*
X142929326Y-86733086D01*
X142934533Y-86732539D01*
X143180849Y-86704910D01*
X143214095Y-86697843D01*
X143247434Y-86691242D01*
X143252436Y-86689694D01*
X143488694Y-86614749D01*
X143519964Y-86601346D01*
X143551358Y-86588407D01*
X143555964Y-86585917D01*
X143773166Y-86466509D01*
X143801221Y-86447299D01*
X143829519Y-86428498D01*
X143833554Y-86425160D01*
X144023426Y-86265838D01*
X144047214Y-86241546D01*
X144071321Y-86217607D01*
X144074631Y-86213549D01*
X144229942Y-86020382D01*
X144248560Y-85991931D01*
X144267559Y-85963763D01*
X144270018Y-85959140D01*
X144384850Y-85739485D01*
X144397589Y-85707954D01*
X144410752Y-85676642D01*
X144412265Y-85671629D01*
X144482248Y-85433853D01*
X144488631Y-85400390D01*
X144495450Y-85367172D01*
X144495962Y-85361961D01*
X144518426Y-85115121D01*
X144518188Y-85081063D01*
X144518425Y-85047148D01*
X144517915Y-85041937D01*
X144492007Y-84795434D01*
X144485166Y-84762109D01*
X144478803Y-84728753D01*
X144477290Y-84723740D01*
X144403995Y-84486964D01*
X144390813Y-84455604D01*
X144378092Y-84424120D01*
X144375634Y-84419496D01*
X144375634Y-84419495D01*
X144375631Y-84419491D01*
X144257746Y-84201466D01*
X144238725Y-84173266D01*
X144220129Y-84144848D01*
X144216820Y-84140790D01*
X144058827Y-83949810D01*
X144034664Y-83925815D01*
X144010930Y-83901579D01*
X144006896Y-83898241D01*
X143814818Y-83741586D01*
X143786494Y-83722767D01*
X143759484Y-83704273D01*
X151225000Y-83704273D01*
X151225000Y-83935727D01*
X151270155Y-84162735D01*
X151358729Y-84376571D01*
X151487318Y-84569019D01*
X151650981Y-84732682D01*
X151843429Y-84861271D01*
X152057265Y-84949845D01*
X152284273Y-84995000D01*
X152515727Y-84995000D01*
X152742735Y-84949845D01*
X152956571Y-84861271D01*
X153149019Y-84732682D01*
X153312682Y-84569019D01*
X153441271Y-84376571D01*
X153497840Y-84240000D01*
X160138549Y-84240000D01*
X160138549Y-85940000D01*
X160144341Y-85998810D01*
X160161496Y-86055360D01*
X160189353Y-86107477D01*
X160226842Y-86153158D01*
X160272523Y-86190647D01*
X160324640Y-86218504D01*
X160381190Y-86235659D01*
X160440000Y-86241451D01*
X162140000Y-86241451D01*
X162198810Y-86235659D01*
X162255360Y-86218504D01*
X162307477Y-86190647D01*
X162353158Y-86153158D01*
X162390647Y-86107477D01*
X162418504Y-86055360D01*
X162435659Y-85998810D01*
X162441451Y-85940000D01*
X162441451Y-85543678D01*
X172112466Y-85543678D01*
X173581000Y-87012211D01*
X175049534Y-85543678D01*
X174811840Y-85273894D01*
X174406572Y-85071355D01*
X173969578Y-84951771D01*
X173517651Y-84919739D01*
X173068159Y-84976488D01*
X172638374Y-85119839D01*
X172350160Y-85273894D01*
X172112466Y-85543678D01*
X162441451Y-85543678D01*
X162441451Y-84240000D01*
X162435659Y-84181190D01*
X162418504Y-84124640D01*
X162390647Y-84072523D01*
X162353158Y-84026842D01*
X162307477Y-83989353D01*
X162255360Y-83961496D01*
X162198810Y-83944341D01*
X162140000Y-83938549D01*
X160440000Y-83938549D01*
X160381190Y-83944341D01*
X160324640Y-83961496D01*
X160272523Y-83989353D01*
X160226842Y-84026842D01*
X160189353Y-84072523D01*
X160161496Y-84124640D01*
X160144341Y-84181190D01*
X160138549Y-84240000D01*
X153497840Y-84240000D01*
X153529845Y-84162735D01*
X153575000Y-83935727D01*
X153575000Y-83704273D01*
X153529845Y-83477265D01*
X153441271Y-83263429D01*
X153312682Y-83070981D01*
X153149019Y-82907318D01*
X152956571Y-82778729D01*
X152742735Y-82690155D01*
X152515727Y-82645000D01*
X152284273Y-82645000D01*
X152057265Y-82690155D01*
X151843429Y-82778729D01*
X151650981Y-82907318D01*
X151487318Y-83070981D01*
X151358729Y-83263429D01*
X151270155Y-83477265D01*
X151225000Y-83704273D01*
X143759484Y-83704273D01*
X143758464Y-83703575D01*
X143753858Y-83701084D01*
X143535010Y-83584721D01*
X143503561Y-83571759D01*
X143472349Y-83558381D01*
X143467347Y-83556832D01*
X143230066Y-83485192D01*
X143196704Y-83478586D01*
X143163479Y-83471524D01*
X143158272Y-83470977D01*
X142911594Y-83446790D01*
X142893419Y-83445000D01*
X138411581Y-83445000D01*
X138410275Y-83445129D01*
X138409646Y-83445133D01*
X138400961Y-83446046D01*
X138392147Y-83446914D01*
X138375675Y-83446914D01*
X138370467Y-83447461D01*
X138124151Y-83475090D01*
X138090905Y-83482157D01*
X138057566Y-83488758D01*
X138052564Y-83490306D01*
X137816306Y-83565251D01*
X137785064Y-83578641D01*
X137753642Y-83591593D01*
X137749036Y-83594083D01*
X137531834Y-83713491D01*
X137503779Y-83732701D01*
X137475481Y-83751502D01*
X137471447Y-83754839D01*
X137281574Y-83914162D01*
X137257786Y-83938454D01*
X137233679Y-83962393D01*
X137230369Y-83966451D01*
X137075058Y-84159618D01*
X137056430Y-84188084D01*
X137037441Y-84216237D01*
X137034982Y-84220860D01*
X136920150Y-84440515D01*
X136907411Y-84472046D01*
X136894248Y-84503358D01*
X136892735Y-84508371D01*
X136822753Y-84746147D01*
X136816383Y-84779541D01*
X136809550Y-84812828D01*
X136809038Y-84818039D01*
X136786574Y-85064879D01*
X132455000Y-85064879D01*
X132455000Y-83203337D01*
X132485902Y-82888174D01*
X132572109Y-82602645D01*
X132712129Y-82339305D01*
X132900633Y-82108176D01*
X133130443Y-81918062D01*
X133392800Y-81776207D01*
X133677711Y-81688012D01*
X133991795Y-81655000D01*
X177146663Y-81655000D01*
X177461826Y-81685902D01*
X177461826Y-81685902D01*
G37*
X177461826Y-81685902D02*
X177747355Y-81772109D01*
X178010695Y-81912129D01*
X178241824Y-82100633D01*
X178431938Y-82330443D01*
X178573793Y-82592800D01*
X178661988Y-82877711D01*
X178695001Y-83191805D01*
X178695000Y-104756663D01*
X178664098Y-105071826D01*
X178577892Y-105357354D01*
X178437872Y-105620694D01*
X178249368Y-105851822D01*
X178019560Y-106041937D01*
X177757202Y-106183793D01*
X177472289Y-106271988D01*
X177158206Y-106305000D01*
X134003337Y-106305000D01*
X133688174Y-106274098D01*
X133402646Y-106187892D01*
X133139306Y-106047872D01*
X132908178Y-105859368D01*
X132718063Y-105629560D01*
X132576207Y-105367202D01*
X132488012Y-105082289D01*
X132455000Y-104768206D01*
X132455000Y-102844879D01*
X136786574Y-102844879D01*
X136786812Y-102878937D01*
X136786575Y-102912852D01*
X136787085Y-102918063D01*
X136812993Y-103164567D01*
X136819834Y-103197891D01*
X136826197Y-103231248D01*
X136827710Y-103236260D01*
X136901005Y-103473036D01*
X136914187Y-103504396D01*
X136926908Y-103535880D01*
X136929364Y-103540500D01*
X136929366Y-103540505D01*
X136929369Y-103540509D01*
X137047253Y-103758533D01*
X137066271Y-103786728D01*
X137084871Y-103815152D01*
X137088180Y-103819210D01*
X137246173Y-104010189D01*
X137270274Y-104034122D01*
X137294070Y-104058421D01*
X137298104Y-104061759D01*
X137490182Y-104218414D01*
X137518491Y-104237222D01*
X137546536Y-104256425D01*
X137551142Y-104258916D01*
X137769989Y-104375278D01*
X137801420Y-104388233D01*
X137832651Y-104401619D01*
X137837653Y-104403168D01*
X138074934Y-104474808D01*
X138108296Y-104481414D01*
X138141521Y-104488476D01*
X138146728Y-104489023D01*
X138393406Y-104513210D01*
X138411581Y-104515000D01*
X142893419Y-104515000D01*
X142894725Y-104514871D01*
X142895354Y-104514867D01*
X142904037Y-104513954D01*
X142912853Y-104513086D01*
X142929326Y-104513086D01*
X142934533Y-104512539D01*
X143180849Y-104484910D01*
X143214095Y-104477843D01*
X143247434Y-104471242D01*
X143252436Y-104469694D01*
X143488694Y-104394749D01*
X143519964Y-104381346D01*
X143551358Y-104368407D01*
X143555964Y-104365917D01*
X143773166Y-104246509D01*
X143801221Y-104227299D01*
X143829519Y-104208498D01*
X143833554Y-104205160D01*
X144023426Y-104045838D01*
X144044543Y-104024273D01*
X151225000Y-104024273D01*
X151225000Y-104255727D01*
X151270155Y-104482735D01*
X151358729Y-104696571D01*
X151487318Y-104889019D01*
X151650981Y-105052682D01*
X151843429Y-105181271D01*
X152057265Y-105269845D01*
X152284273Y-105315000D01*
X152515727Y-105315000D01*
X152742735Y-105269845D01*
X152956571Y-105181271D01*
X153149019Y-105052682D01*
X153312682Y-104889019D01*
X153441271Y-104696571D01*
X153529845Y-104482735D01*
X153575000Y-104255727D01*
X153575000Y-104024273D01*
X153529845Y-103797265D01*
X153441271Y-103583429D01*
X153312682Y-103390981D01*
X153149019Y-103227318D01*
X152956571Y-103098729D01*
X152742735Y-103010155D01*
X152515727Y-102965000D01*
X152284273Y-102965000D01*
X152057265Y-103010155D01*
X151843429Y-103098729D01*
X151650981Y-103227318D01*
X151487318Y-103390981D01*
X151358729Y-103583429D01*
X151270155Y-103797265D01*
X151225000Y-104024273D01*
X144044543Y-104024273D01*
X144047214Y-104021546D01*
X144071321Y-103997607D01*
X144074631Y-103993549D01*
X144229942Y-103800382D01*
X144248560Y-103771931D01*
X144267559Y-103743763D01*
X144270018Y-103739140D01*
X144384850Y-103519485D01*
X144397589Y-103487954D01*
X144410752Y-103456642D01*
X144412265Y-103451629D01*
X144482248Y-103213853D01*
X144488631Y-103180390D01*
X144495450Y-103147172D01*
X144495962Y-103141961D01*
X144518426Y-102895121D01*
X144518251Y-102870000D01*
X160134436Y-102870000D01*
X160156640Y-103095439D01*
X160222398Y-103312215D01*
X160329184Y-103511997D01*
X160472893Y-103687107D01*
X160648003Y-103830816D01*
X160847785Y-103937602D01*
X161064561Y-104003360D01*
X161233508Y-104020000D01*
X161346492Y-104020000D01*
X161515439Y-104003360D01*
X161732215Y-103937602D01*
X161931997Y-103830816D01*
X162107107Y-103687107D01*
X162250816Y-103511997D01*
X162357602Y-103312215D01*
X162423360Y-103095439D01*
X162445564Y-102870000D01*
X162423360Y-102644561D01*
X162357602Y-102427785D01*
X162351475Y-102416322D01*
X172112466Y-102416322D01*
X172350160Y-102686106D01*
X172755428Y-102888645D01*
X173192422Y-103008229D01*
X173644349Y-103040261D01*
X174093841Y-102983512D01*
X174523626Y-102840161D01*
X174811840Y-102686106D01*
X175049534Y-102416322D01*
X173581000Y-100947789D01*
X172112466Y-102416322D01*
X162351475Y-102416322D01*
X162250816Y-102228003D01*
X162107107Y-102052893D01*
X161931997Y-101909184D01*
X161732215Y-101802398D01*
X161515439Y-101736640D01*
X161346492Y-101720000D01*
X161233508Y-101720000D01*
X161064561Y-101736640D01*
X160847785Y-101802398D01*
X160648003Y-101909184D01*
X160472893Y-102052893D01*
X160329184Y-102228003D01*
X160222398Y-102427785D01*
X160156640Y-102644561D01*
X160134436Y-102870000D01*
X144518251Y-102870000D01*
X144518188Y-102861063D01*
X144518425Y-102827148D01*
X144517915Y-102821937D01*
X144492007Y-102575434D01*
X144485166Y-102542109D01*
X144478803Y-102508753D01*
X144477290Y-102503740D01*
X144403995Y-102266964D01*
X144390813Y-102235604D01*
X144378092Y-102204120D01*
X144375634Y-102199496D01*
X144375634Y-102199495D01*
X144375631Y-102199491D01*
X144257746Y-101981466D01*
X144238725Y-101953266D01*
X144220129Y-101924848D01*
X144216820Y-101920790D01*
X144058827Y-101729810D01*
X144034664Y-101705815D01*
X144010930Y-101681579D01*
X144006896Y-101678241D01*
X143814818Y-101521586D01*
X143786494Y-101502767D01*
X143758464Y-101483575D01*
X143753858Y-101481084D01*
X143535010Y-101364721D01*
X143503561Y-101351759D01*
X143472349Y-101338381D01*
X143467347Y-101336832D01*
X143230066Y-101265192D01*
X143196704Y-101258586D01*
X143163479Y-101251524D01*
X143158272Y-101250977D01*
X142911594Y-101226790D01*
X142893419Y-101225000D01*
X138411581Y-101225000D01*
X138410275Y-101225129D01*
X138409646Y-101225133D01*
X138400961Y-101226046D01*
X138392147Y-101226914D01*
X138375675Y-101226914D01*
X138370467Y-101227461D01*
X138124151Y-101255090D01*
X138090905Y-101262157D01*
X138057566Y-101268758D01*
X138052564Y-101270306D01*
X137816306Y-101345251D01*
X137785064Y-101358641D01*
X137753642Y-101371593D01*
X137749036Y-101374083D01*
X137531834Y-101493491D01*
X137503779Y-101512701D01*
X137475481Y-101531502D01*
X137471447Y-101534839D01*
X137281574Y-101694162D01*
X137257786Y-101718454D01*
X137233679Y-101742393D01*
X137230369Y-101746451D01*
X137075058Y-101939618D01*
X137056430Y-101968084D01*
X137037441Y-101996237D01*
X137034982Y-102000860D01*
X136920150Y-102220515D01*
X136907411Y-102252046D01*
X136894248Y-102283358D01*
X136892735Y-102288371D01*
X136822753Y-102526147D01*
X136816383Y-102559541D01*
X136809550Y-102592828D01*
X136809038Y-102598039D01*
X136786574Y-102844879D01*
X132455000Y-102844879D01*
X132455000Y-99713418D01*
X146310000Y-99713418D01*
X146310129Y-99714724D01*
X146310195Y-99724221D01*
X146311976Y-99741164D01*
X146311976Y-99758191D01*
X146312523Y-99763399D01*
X146353966Y-100132873D01*
X146361041Y-100166156D01*
X146367635Y-100199458D01*
X146369182Y-100204461D01*
X146481600Y-100558847D01*
X146495003Y-100590117D01*
X146507942Y-100621511D01*
X146510432Y-100626117D01*
X146689544Y-100951920D01*
X146708766Y-100979992D01*
X146727555Y-101008272D01*
X146730892Y-101012307D01*
X146969874Y-101297115D01*
X146994166Y-101320904D01*
X147018107Y-101345012D01*
X147022164Y-101348322D01*
X147311915Y-101581287D01*
X147340356Y-101599898D01*
X147368533Y-101618904D01*
X147373156Y-101621362D01*
X147702638Y-101793611D01*
X147734145Y-101806340D01*
X147765484Y-101819514D01*
X147770496Y-101821028D01*
X148127161Y-101926000D01*
X148160595Y-101932378D01*
X148193840Y-101939202D01*
X148199051Y-101939714D01*
X148569311Y-101973411D01*
X148603370Y-101973173D01*
X148637286Y-101973410D01*
X148642497Y-101972900D01*
X149012252Y-101934037D01*
X149045603Y-101927191D01*
X149078931Y-101920833D01*
X149083944Y-101919320D01*
X149439108Y-101809378D01*
X149470456Y-101796200D01*
X149501952Y-101783475D01*
X149506576Y-101781017D01*
X149833620Y-101604186D01*
X149861832Y-101585157D01*
X149890238Y-101566568D01*
X149894296Y-101563259D01*
X150180766Y-101326271D01*
X150204725Y-101302143D01*
X150228998Y-101278374D01*
X150232336Y-101274339D01*
X150467319Y-100986222D01*
X150486142Y-100957890D01*
X150505330Y-100929868D01*
X150507820Y-100925263D01*
X150682366Y-100596990D01*
X150695334Y-100565527D01*
X150708706Y-100534328D01*
X150710255Y-100529326D01*
X150817715Y-100173404D01*
X150824322Y-100140035D01*
X150831383Y-100106817D01*
X150831930Y-100101609D01*
X150868210Y-99731594D01*
X150870000Y-99713419D01*
X150870000Y-99713418D01*
X153930000Y-99713418D01*
X153930129Y-99714724D01*
X153930195Y-99724221D01*
X153931976Y-99741164D01*
X153931976Y-99758191D01*
X153932523Y-99763399D01*
X153973966Y-100132873D01*
X153981041Y-100166156D01*
X153987635Y-100199458D01*
X153989182Y-100204461D01*
X154101600Y-100558847D01*
X154115003Y-100590117D01*
X154127942Y-100621511D01*
X154130432Y-100626117D01*
X154309544Y-100951920D01*
X154328766Y-100979992D01*
X154347555Y-101008272D01*
X154350892Y-101012307D01*
X154589874Y-101297115D01*
X154614166Y-101320904D01*
X154638107Y-101345012D01*
X154642164Y-101348322D01*
X154931915Y-101581287D01*
X154960356Y-101599898D01*
X154988533Y-101618904D01*
X154993156Y-101621362D01*
X155322638Y-101793611D01*
X155354145Y-101806340D01*
X155385484Y-101819514D01*
X155390496Y-101821028D01*
X155747161Y-101926000D01*
X155780595Y-101932378D01*
X155813840Y-101939202D01*
X155819051Y-101939714D01*
X156189311Y-101973411D01*
X156223370Y-101973173D01*
X156257286Y-101973410D01*
X156262497Y-101972900D01*
X156632252Y-101934037D01*
X156665603Y-101927191D01*
X156698931Y-101920833D01*
X156703944Y-101919320D01*
X157059108Y-101809378D01*
X157090456Y-101796200D01*
X157121952Y-101783475D01*
X157126576Y-101781017D01*
X157453620Y-101604186D01*
X157481832Y-101585157D01*
X157510238Y-101566568D01*
X157514296Y-101563259D01*
X157800766Y-101326271D01*
X157824725Y-101302143D01*
X157848998Y-101278374D01*
X157852336Y-101274339D01*
X158087319Y-100986222D01*
X158106142Y-100957890D01*
X158125330Y-100929868D01*
X158127820Y-100925263D01*
X158302366Y-100596990D01*
X158315334Y-100565527D01*
X158328706Y-100534328D01*
X158330255Y-100529326D01*
X158390435Y-100330000D01*
X160134436Y-100330000D01*
X160156640Y-100555439D01*
X160222398Y-100772215D01*
X160329184Y-100971997D01*
X160472893Y-101147107D01*
X160648003Y-101290816D01*
X160847785Y-101397602D01*
X161064561Y-101463360D01*
X161233508Y-101480000D01*
X161346492Y-101480000D01*
X161515439Y-101463360D01*
X161732215Y-101397602D01*
X161931997Y-101290816D01*
X162107107Y-101147107D01*
X162250816Y-100971997D01*
X162346305Y-100793349D01*
X171270739Y-100793349D01*
X171327488Y-101242841D01*
X171470839Y-101672626D01*
X171624894Y-101960840D01*
X171894678Y-102198534D01*
X173363211Y-100730000D01*
X173798789Y-100730000D01*
X175267322Y-102198534D01*
X175537106Y-101960840D01*
X175739645Y-101555572D01*
X175859229Y-101118578D01*
X175891261Y-100666651D01*
X175834512Y-100217159D01*
X175691161Y-99787374D01*
X175537106Y-99499160D01*
X175267322Y-99261466D01*
X173798789Y-100730000D01*
X173363211Y-100730000D01*
X171894678Y-99261466D01*
X171624894Y-99499160D01*
X171422355Y-99904428D01*
X171302771Y-100341422D01*
X171270739Y-100793349D01*
X162346305Y-100793349D01*
X162357602Y-100772215D01*
X162423360Y-100555439D01*
X162445564Y-100330000D01*
X162423360Y-100104561D01*
X162357602Y-99887785D01*
X162250816Y-99688003D01*
X162107107Y-99512893D01*
X161931997Y-99369184D01*
X161732215Y-99262398D01*
X161515439Y-99196640D01*
X161346492Y-99180000D01*
X161233508Y-99180000D01*
X161064561Y-99196640D01*
X160847785Y-99262398D01*
X160648003Y-99369184D01*
X160472893Y-99512893D01*
X160329184Y-99688003D01*
X160222398Y-99887785D01*
X160156640Y-100104561D01*
X160134436Y-100330000D01*
X158390435Y-100330000D01*
X158437715Y-100173404D01*
X158444322Y-100140035D01*
X158451383Y-100106817D01*
X158451930Y-100101609D01*
X158488210Y-99731594D01*
X158490000Y-99713419D01*
X158490000Y-99043678D01*
X172112466Y-99043678D01*
X173581000Y-100512211D01*
X175049534Y-99043678D01*
X174811840Y-98773894D01*
X174406572Y-98571355D01*
X173969578Y-98451771D01*
X173517651Y-98419739D01*
X173068159Y-98476488D01*
X172638374Y-98619839D01*
X172350160Y-98773894D01*
X172112466Y-99043678D01*
X158490000Y-99043678D01*
X158490000Y-98120383D01*
X160188480Y-98120383D01*
X160190561Y-98127272D01*
X160277485Y-98335281D01*
X160403319Y-98522336D01*
X160563228Y-98681247D01*
X160751066Y-98805908D01*
X160959615Y-98891528D01*
X161136000Y-98854650D01*
X161136000Y-97944000D01*
X161444000Y-97944000D01*
X161444000Y-98854650D01*
X161620385Y-98891528D01*
X161828934Y-98805908D01*
X162016772Y-98681247D01*
X162176681Y-98522336D01*
X162302515Y-98335281D01*
X162389439Y-98127272D01*
X162391520Y-98120383D01*
X162353912Y-97944000D01*
X161444000Y-97944000D01*
X161136000Y-97944000D01*
X160226088Y-97944000D01*
X160188480Y-98120383D01*
X158490000Y-98120383D01*
X158490000Y-97459617D01*
X160188480Y-97459617D01*
X160226088Y-97636000D01*
X161136000Y-97636000D01*
X161136000Y-96725350D01*
X161444000Y-96725350D01*
X161444000Y-97636000D01*
X162353912Y-97636000D01*
X162391520Y-97459617D01*
X162389439Y-97452728D01*
X162302515Y-97244719D01*
X162176681Y-97057664D01*
X162016772Y-96898753D01*
X161828934Y-96774092D01*
X161620385Y-96688472D01*
X161444000Y-96725350D01*
X161136000Y-96725350D01*
X160959615Y-96688472D01*
X160751066Y-96774092D01*
X160563228Y-96898753D01*
X160403319Y-97057664D01*
X160277485Y-97244719D01*
X160190561Y-97452728D01*
X160188480Y-97459617D01*
X158490000Y-97459617D01*
X158490000Y-95580383D01*
X160188480Y-95580383D01*
X160190561Y-95587272D01*
X160277485Y-95795281D01*
X160403319Y-95982336D01*
X160563228Y-96141247D01*
X160751066Y-96265908D01*
X160959615Y-96351528D01*
X161136000Y-96314650D01*
X161136000Y-95404000D01*
X161444000Y-95404000D01*
X161444000Y-96314650D01*
X161620385Y-96351528D01*
X161828934Y-96265908D01*
X162016772Y-96141247D01*
X162176681Y-95982336D01*
X162302515Y-95795281D01*
X162389439Y-95587272D01*
X162391520Y-95580383D01*
X162353912Y-95404000D01*
X161444000Y-95404000D01*
X161136000Y-95404000D01*
X160226088Y-95404000D01*
X160188480Y-95580383D01*
X158490000Y-95580383D01*
X158490000Y-94919617D01*
X160188480Y-94919617D01*
X160226088Y-95096000D01*
X161136000Y-95096000D01*
X161136000Y-94185350D01*
X161444000Y-94185350D01*
X161444000Y-95096000D01*
X162353912Y-95096000D01*
X162391520Y-94919617D01*
X162389439Y-94912728D01*
X162331885Y-94775000D01*
X163263549Y-94775000D01*
X163263549Y-95375000D01*
X163275106Y-95492337D01*
X163309332Y-95605165D01*
X163364912Y-95709148D01*
X163439710Y-95800290D01*
X163530852Y-95875088D01*
X163634835Y-95930668D01*
X163747663Y-95964894D01*
X163865000Y-95976451D01*
X165065000Y-95976451D01*
X165182337Y-95964894D01*
X165295165Y-95930668D01*
X165399148Y-95875088D01*
X165490290Y-95800290D01*
X165511045Y-95775000D01*
X167810051Y-95775000D01*
X168218989Y-96183938D01*
X168199190Y-96180000D01*
X167962810Y-96180000D01*
X167730973Y-96226116D01*
X167512587Y-96316574D01*
X167316045Y-96447899D01*
X167148899Y-96615045D01*
X167017574Y-96811587D01*
X166927116Y-97029973D01*
X166881000Y-97261810D01*
X166881000Y-97498190D01*
X166927116Y-97730027D01*
X167017574Y-97948413D01*
X167148899Y-98144955D01*
X167316045Y-98312101D01*
X167512587Y-98443426D01*
X167730973Y-98533884D01*
X167962810Y-98580000D01*
X168199190Y-98580000D01*
X168431027Y-98533884D01*
X168649413Y-98443426D01*
X168845955Y-98312101D01*
X169013101Y-98144955D01*
X169144426Y-97948413D01*
X169234884Y-97730027D01*
X169281000Y-97498190D01*
X169281000Y-97261810D01*
X169277062Y-97242011D01*
X169381000Y-97345949D01*
X169381000Y-97498190D01*
X169427116Y-97730027D01*
X169517574Y-97948413D01*
X169648899Y-98144955D01*
X169816045Y-98312101D01*
X170012587Y-98443426D01*
X170230973Y-98533884D01*
X170462810Y-98580000D01*
X170699190Y-98580000D01*
X170931027Y-98533884D01*
X171149413Y-98443426D01*
X171345955Y-98312101D01*
X171513101Y-98144955D01*
X171644426Y-97948413D01*
X171734884Y-97730027D01*
X171745974Y-97674273D01*
X175355000Y-97674273D01*
X175355000Y-97905727D01*
X175400155Y-98132735D01*
X175488729Y-98346571D01*
X175617318Y-98539019D01*
X175780981Y-98702682D01*
X175973429Y-98831271D01*
X176187265Y-98919845D01*
X176414273Y-98965000D01*
X176645727Y-98965000D01*
X176872735Y-98919845D01*
X177086571Y-98831271D01*
X177279019Y-98702682D01*
X177442682Y-98539019D01*
X177571271Y-98346571D01*
X177659845Y-98132735D01*
X177705000Y-97905727D01*
X177705000Y-97674273D01*
X177659845Y-97447265D01*
X177571271Y-97233429D01*
X177442682Y-97040981D01*
X177279019Y-96877318D01*
X177086571Y-96748729D01*
X176872735Y-96660155D01*
X176645727Y-96615000D01*
X176414273Y-96615000D01*
X176187265Y-96660155D01*
X175973429Y-96748729D01*
X175780981Y-96877318D01*
X175617318Y-97040981D01*
X175488729Y-97233429D01*
X175400155Y-97447265D01*
X175355000Y-97674273D01*
X171745974Y-97674273D01*
X171781000Y-97498190D01*
X171781000Y-97261810D01*
X171734884Y-97029973D01*
X171644426Y-96811587D01*
X171513101Y-96615045D01*
X171345955Y-96447899D01*
X171169506Y-96330000D01*
X171345955Y-96212101D01*
X171513101Y-96044955D01*
X171644426Y-95848413D01*
X171719850Y-95666322D01*
X172912466Y-95666322D01*
X173150160Y-95936106D01*
X173555428Y-96138645D01*
X173992422Y-96258229D01*
X174444349Y-96290261D01*
X174893841Y-96233512D01*
X175323626Y-96090161D01*
X175611840Y-95936106D01*
X175849534Y-95666322D01*
X174381000Y-94197789D01*
X172912466Y-95666322D01*
X171719850Y-95666322D01*
X171734884Y-95630027D01*
X171781000Y-95398190D01*
X171781000Y-95161810D01*
X171734884Y-94929973D01*
X171644426Y-94711587D01*
X171513101Y-94515045D01*
X171345955Y-94347899D01*
X171149413Y-94216574D01*
X170931027Y-94126116D01*
X170699190Y-94080000D01*
X170462810Y-94080000D01*
X170230973Y-94126116D01*
X170012587Y-94216574D01*
X169816045Y-94347899D01*
X169648899Y-94515045D01*
X169517574Y-94711587D01*
X169427116Y-94929973D01*
X169381000Y-95161810D01*
X169381000Y-95366051D01*
X168619296Y-94604347D01*
X168597370Y-94577630D01*
X168490781Y-94490155D01*
X168369175Y-94425155D01*
X168237224Y-94385128D01*
X168134390Y-94375000D01*
X168134387Y-94375000D01*
X168100000Y-94371613D01*
X168065613Y-94375000D01*
X165511045Y-94375000D01*
X165490290Y-94349710D01*
X165399148Y-94274912D01*
X165295165Y-94219332D01*
X165182337Y-94185106D01*
X165065000Y-94173549D01*
X163865000Y-94173549D01*
X163747663Y-94185106D01*
X163634835Y-94219332D01*
X163530852Y-94274912D01*
X163439710Y-94349710D01*
X163364912Y-94440852D01*
X163309332Y-94544835D01*
X163275106Y-94657663D01*
X163263549Y-94775000D01*
X162331885Y-94775000D01*
X162302515Y-94704719D01*
X162176681Y-94517664D01*
X162016772Y-94358753D01*
X161828934Y-94234092D01*
X161620385Y-94148472D01*
X161444000Y-94185350D01*
X161136000Y-94185350D01*
X160959615Y-94148472D01*
X160751066Y-94234092D01*
X160563228Y-94358753D01*
X160403319Y-94517664D01*
X160277485Y-94704719D01*
X160190561Y-94912728D01*
X160188480Y-94919617D01*
X158490000Y-94919617D01*
X158490000Y-94043349D01*
X172070739Y-94043349D01*
X172127488Y-94492841D01*
X172270839Y-94922626D01*
X172424894Y-95210840D01*
X172694678Y-95448534D01*
X174163211Y-93980000D01*
X174598789Y-93980000D01*
X176067322Y-95448534D01*
X176337106Y-95210840D01*
X176539645Y-94805572D01*
X176659229Y-94368578D01*
X176691261Y-93916651D01*
X176634512Y-93467159D01*
X176491161Y-93037374D01*
X176337106Y-92749160D01*
X176067322Y-92511466D01*
X174598789Y-93980000D01*
X174163211Y-93980000D01*
X172694678Y-92511466D01*
X172424894Y-92749160D01*
X172222355Y-93154428D01*
X172102771Y-93591422D01*
X172070739Y-94043349D01*
X158490000Y-94043349D01*
X158490000Y-92710000D01*
X160134436Y-92710000D01*
X160156640Y-92935439D01*
X160222398Y-93152215D01*
X160329184Y-93351997D01*
X160472893Y-93527107D01*
X160648003Y-93670816D01*
X160847785Y-93777602D01*
X161064561Y-93843360D01*
X161233508Y-93860000D01*
X161346492Y-93860000D01*
X161515439Y-93843360D01*
X161732215Y-93777602D01*
X161931997Y-93670816D01*
X162107107Y-93527107D01*
X162250816Y-93351997D01*
X162357602Y-93152215D01*
X162423360Y-92935439D01*
X162445564Y-92710000D01*
X162423360Y-92484561D01*
X162357602Y-92267785D01*
X162250816Y-92068003D01*
X162107107Y-91892893D01*
X161931997Y-91749184D01*
X161732215Y-91642398D01*
X161515439Y-91576640D01*
X161346492Y-91560000D01*
X161233508Y-91560000D01*
X161064561Y-91576640D01*
X160847785Y-91642398D01*
X160648003Y-91749184D01*
X160472893Y-91892893D01*
X160329184Y-92068003D01*
X160222398Y-92267785D01*
X160156640Y-92484561D01*
X160134436Y-92710000D01*
X158490000Y-92710000D01*
X158490000Y-90170000D01*
X160134436Y-90170000D01*
X160156640Y-90395439D01*
X160222398Y-90612215D01*
X160329184Y-90811997D01*
X160472893Y-90987107D01*
X160648003Y-91130816D01*
X160847785Y-91237602D01*
X161064561Y-91303360D01*
X161233508Y-91320000D01*
X161346492Y-91320000D01*
X161515439Y-91303360D01*
X161732215Y-91237602D01*
X161931997Y-91130816D01*
X162107107Y-90987107D01*
X162203214Y-90870000D01*
X163675915Y-90870000D01*
X163714186Y-90901408D01*
X163765001Y-90928569D01*
X163765000Y-91183398D01*
X163747663Y-91185106D01*
X163634835Y-91219332D01*
X163530852Y-91274912D01*
X163439710Y-91349710D01*
X163364912Y-91440852D01*
X163309332Y-91544835D01*
X163275106Y-91657663D01*
X163263549Y-91775000D01*
X163263549Y-92375000D01*
X163275106Y-92492337D01*
X163309332Y-92605165D01*
X163364912Y-92709148D01*
X163439710Y-92800290D01*
X163530852Y-92875088D01*
X163634835Y-92930668D01*
X163747663Y-92964894D01*
X163865000Y-92976451D01*
X165065000Y-92976451D01*
X165182337Y-92964894D01*
X165295165Y-92930668D01*
X165399148Y-92875088D01*
X165490290Y-92800290D01*
X165565088Y-92709148D01*
X165620668Y-92605165D01*
X165633819Y-92561810D01*
X169381000Y-92561810D01*
X169381000Y-92798190D01*
X169427116Y-93030027D01*
X169517574Y-93248413D01*
X169648899Y-93444955D01*
X169816045Y-93612101D01*
X170012587Y-93743426D01*
X170230973Y-93833884D01*
X170462810Y-93880000D01*
X170699190Y-93880000D01*
X170931027Y-93833884D01*
X171149413Y-93743426D01*
X171345955Y-93612101D01*
X171513101Y-93444955D01*
X171644426Y-93248413D01*
X171734884Y-93030027D01*
X171781000Y-92798190D01*
X171781000Y-92561810D01*
X171734884Y-92329973D01*
X171719851Y-92293678D01*
X172912466Y-92293678D01*
X174381000Y-93762211D01*
X175849534Y-92293678D01*
X175611840Y-92023894D01*
X175206572Y-91821355D01*
X174769578Y-91701771D01*
X174317651Y-91669739D01*
X173868159Y-91726488D01*
X173438374Y-91869839D01*
X173150160Y-92023894D01*
X172912466Y-92293678D01*
X171719851Y-92293678D01*
X171644426Y-92111587D01*
X171513101Y-91915045D01*
X171345955Y-91747899D01*
X171166210Y-91627797D01*
X171264257Y-91481046D01*
X170581000Y-90797789D01*
X169897743Y-91481046D01*
X169995790Y-91627797D01*
X169816045Y-91747899D01*
X169648899Y-91915045D01*
X169517574Y-92111587D01*
X169427116Y-92329973D01*
X169381000Y-92561810D01*
X165633819Y-92561810D01*
X165654894Y-92492337D01*
X165666451Y-92375000D01*
X165666451Y-91775000D01*
X165654894Y-91657663D01*
X165620668Y-91544835D01*
X165565088Y-91440852D01*
X165490290Y-91349710D01*
X165399148Y-91274912D01*
X165295165Y-91219332D01*
X165182337Y-91185106D01*
X165165000Y-91183398D01*
X165165000Y-90928569D01*
X165215814Y-90901408D01*
X165301274Y-90831274D01*
X165371408Y-90745814D01*
X165423523Y-90648315D01*
X165455615Y-90542521D01*
X165463564Y-90461810D01*
X166881000Y-90461810D01*
X166881000Y-90698190D01*
X166927116Y-90930027D01*
X167017574Y-91148413D01*
X167148899Y-91344955D01*
X167316045Y-91512101D01*
X167512587Y-91643426D01*
X167730973Y-91733884D01*
X167962810Y-91780000D01*
X168199190Y-91780000D01*
X168431027Y-91733884D01*
X168649413Y-91643426D01*
X168845955Y-91512101D01*
X169013101Y-91344955D01*
X169144426Y-91148413D01*
X169234884Y-90930027D01*
X169281000Y-90698190D01*
X169281000Y-90686929D01*
X169379944Y-90686929D01*
X169423883Y-90919189D01*
X169512289Y-91138414D01*
X169522953Y-91158362D01*
X169679954Y-91263257D01*
X170363211Y-90580000D01*
X170798789Y-90580000D01*
X171482046Y-91263257D01*
X171639047Y-91158362D01*
X171731550Y-90940834D01*
X171779838Y-90709439D01*
X171782056Y-90473071D01*
X171738117Y-90240811D01*
X171662893Y-90054273D01*
X175355000Y-90054273D01*
X175355000Y-90285727D01*
X175400155Y-90512735D01*
X175488729Y-90726571D01*
X175617318Y-90919019D01*
X175780981Y-91082682D01*
X175973429Y-91211271D01*
X176187265Y-91299845D01*
X176414273Y-91345000D01*
X176645727Y-91345000D01*
X176872735Y-91299845D01*
X177086571Y-91211271D01*
X177279019Y-91082682D01*
X177442682Y-90919019D01*
X177571271Y-90726571D01*
X177659845Y-90512735D01*
X177705000Y-90285727D01*
X177705000Y-90054273D01*
X177659845Y-89827265D01*
X177571271Y-89613429D01*
X177442682Y-89420981D01*
X177279019Y-89257318D01*
X177086571Y-89128729D01*
X176872735Y-89040155D01*
X176645727Y-88995000D01*
X176414273Y-88995000D01*
X176187265Y-89040155D01*
X175973429Y-89128729D01*
X175780981Y-89257318D01*
X175617318Y-89420981D01*
X175488729Y-89613429D01*
X175400155Y-89827265D01*
X175355000Y-90054273D01*
X171662893Y-90054273D01*
X171649711Y-90021586D01*
X171639047Y-90001638D01*
X171482046Y-89896743D01*
X170798789Y-90580000D01*
X170363211Y-90580000D01*
X169679954Y-89896743D01*
X169522953Y-90001638D01*
X169430450Y-90219166D01*
X169382162Y-90450561D01*
X169379944Y-90686929D01*
X169281000Y-90686929D01*
X169281000Y-90461810D01*
X169234884Y-90229973D01*
X169144426Y-90011587D01*
X169013101Y-89815045D01*
X168877010Y-89678954D01*
X169897743Y-89678954D01*
X170581000Y-90362211D01*
X171264257Y-89678954D01*
X171159362Y-89521953D01*
X170941834Y-89429450D01*
X170710439Y-89381162D01*
X170474071Y-89378944D01*
X170241811Y-89422883D01*
X170022586Y-89511289D01*
X170002638Y-89521953D01*
X169897743Y-89678954D01*
X168877010Y-89678954D01*
X168845955Y-89647899D01*
X168649413Y-89516574D01*
X168431027Y-89426116D01*
X168199190Y-89380000D01*
X167962810Y-89380000D01*
X167730973Y-89426116D01*
X167512587Y-89516574D01*
X167316045Y-89647899D01*
X167148899Y-89815045D01*
X167017574Y-90011587D01*
X166927116Y-90229973D01*
X166881000Y-90461810D01*
X165463564Y-90461810D01*
X165466451Y-90432500D01*
X165466451Y-89907500D01*
X165455615Y-89797479D01*
X165423523Y-89691685D01*
X165371408Y-89594186D01*
X165301274Y-89508726D01*
X165215814Y-89438592D01*
X165118315Y-89386477D01*
X165012521Y-89354385D01*
X164902500Y-89343549D01*
X164027500Y-89343549D01*
X163917479Y-89354385D01*
X163811685Y-89386477D01*
X163714186Y-89438592D01*
X163675915Y-89470000D01*
X162203214Y-89470000D01*
X162107107Y-89352893D01*
X161931997Y-89209184D01*
X161732215Y-89102398D01*
X161515439Y-89036640D01*
X161346492Y-89020000D01*
X161233508Y-89020000D01*
X161064561Y-89036640D01*
X160847785Y-89102398D01*
X160648003Y-89209184D01*
X160472893Y-89352893D01*
X160329184Y-89528003D01*
X160222398Y-89727785D01*
X160156640Y-89944561D01*
X160134436Y-90170000D01*
X158490000Y-90170000D01*
X158490000Y-88995000D01*
X163463548Y-88995000D01*
X163469340Y-89053810D01*
X163486495Y-89110361D01*
X163514352Y-89162478D01*
X163551841Y-89208159D01*
X163597522Y-89245648D01*
X163649639Y-89273505D01*
X163706190Y-89290660D01*
X163765000Y-89296452D01*
X164236000Y-89295000D01*
X164311000Y-89220000D01*
X164311000Y-88624000D01*
X164619000Y-88624000D01*
X164619000Y-89220000D01*
X164694000Y-89295000D01*
X165165000Y-89296452D01*
X165223810Y-89290660D01*
X165280361Y-89273505D01*
X165332478Y-89245648D01*
X165378159Y-89208159D01*
X165415648Y-89162478D01*
X165443505Y-89110361D01*
X165460660Y-89053810D01*
X165466452Y-88995000D01*
X165466067Y-88916322D01*
X172112466Y-88916322D01*
X172350160Y-89186106D01*
X172755428Y-89388645D01*
X173192422Y-89508229D01*
X173644349Y-89540261D01*
X174093841Y-89483512D01*
X174523626Y-89340161D01*
X174811840Y-89186106D01*
X175049534Y-88916322D01*
X173581000Y-87447789D01*
X172112466Y-88916322D01*
X165466067Y-88916322D01*
X165465000Y-88699000D01*
X165390000Y-88624000D01*
X164619000Y-88624000D01*
X164311000Y-88624000D01*
X163540000Y-88624000D01*
X163465000Y-88699000D01*
X163463548Y-88995000D01*
X158490000Y-88995000D01*
X158490000Y-88246581D01*
X158489871Y-88245275D01*
X158489805Y-88235780D01*
X158488024Y-88218837D01*
X158488024Y-88201809D01*
X158487477Y-88196601D01*
X158460982Y-87960383D01*
X160188480Y-87960383D01*
X160190561Y-87967272D01*
X160277485Y-88175281D01*
X160403319Y-88362336D01*
X160563228Y-88521247D01*
X160751066Y-88645908D01*
X160959615Y-88731528D01*
X161136000Y-88694650D01*
X161136000Y-87784000D01*
X161444000Y-87784000D01*
X161444000Y-88694650D01*
X161620385Y-88731528D01*
X161828934Y-88645908D01*
X162016772Y-88521247D01*
X162176681Y-88362336D01*
X162302515Y-88175281D01*
X162389439Y-87967272D01*
X162391520Y-87960383D01*
X162388241Y-87945000D01*
X163463548Y-87945000D01*
X163465000Y-88241000D01*
X163540000Y-88316000D01*
X164311000Y-88316000D01*
X164311000Y-87720000D01*
X164619000Y-87720000D01*
X164619000Y-88316000D01*
X165390000Y-88316000D01*
X165465000Y-88241000D01*
X165466452Y-87945000D01*
X165460660Y-87886190D01*
X165443505Y-87829639D01*
X165415648Y-87777522D01*
X165378159Y-87731841D01*
X165332478Y-87694352D01*
X165280361Y-87666495D01*
X165223810Y-87649340D01*
X165165000Y-87643548D01*
X164694000Y-87645000D01*
X164619000Y-87720000D01*
X164311000Y-87720000D01*
X164236000Y-87645000D01*
X163765000Y-87643548D01*
X163706190Y-87649340D01*
X163649639Y-87666495D01*
X163597522Y-87694352D01*
X163551841Y-87731841D01*
X163514352Y-87777522D01*
X163486495Y-87829639D01*
X163469340Y-87886190D01*
X163463548Y-87945000D01*
X162388241Y-87945000D01*
X162353912Y-87784000D01*
X161444000Y-87784000D01*
X161136000Y-87784000D01*
X160226088Y-87784000D01*
X160188480Y-87960383D01*
X158460982Y-87960383D01*
X158446034Y-87827127D01*
X158438961Y-87793852D01*
X158432365Y-87760541D01*
X158430817Y-87755539D01*
X158318400Y-87401152D01*
X158304987Y-87369857D01*
X158292058Y-87338489D01*
X158289568Y-87333883D01*
X158270731Y-87299617D01*
X160188480Y-87299617D01*
X160226088Y-87476000D01*
X161136000Y-87476000D01*
X161136000Y-86565350D01*
X161444000Y-86565350D01*
X161444000Y-87476000D01*
X162353912Y-87476000D01*
X162391520Y-87299617D01*
X162389627Y-87293349D01*
X171270739Y-87293349D01*
X171327488Y-87742841D01*
X171470839Y-88172626D01*
X171624894Y-88460840D01*
X171894678Y-88698534D01*
X173363211Y-87230000D01*
X173798789Y-87230000D01*
X175267322Y-88698534D01*
X175537106Y-88460840D01*
X175739645Y-88055572D01*
X175859229Y-87618578D01*
X175891261Y-87166651D01*
X175834512Y-86717159D01*
X175691161Y-86287374D01*
X175537106Y-85999160D01*
X175267322Y-85761466D01*
X173798789Y-87230000D01*
X173363211Y-87230000D01*
X171894678Y-85761466D01*
X171624894Y-85999160D01*
X171422355Y-86404428D01*
X171302771Y-86841422D01*
X171270739Y-87293349D01*
X162389627Y-87293349D01*
X162389439Y-87292728D01*
X162302515Y-87084719D01*
X162176681Y-86897664D01*
X162016772Y-86738753D01*
X161828934Y-86614092D01*
X161620385Y-86528472D01*
X161444000Y-86565350D01*
X161136000Y-86565350D01*
X160959615Y-86528472D01*
X160751066Y-86614092D01*
X160563228Y-86738753D01*
X160403319Y-86897664D01*
X160277485Y-87084719D01*
X160190561Y-87292728D01*
X160188480Y-87299617D01*
X158270731Y-87299617D01*
X158110456Y-87008080D01*
X158091246Y-86980025D01*
X158072445Y-86951727D01*
X158069108Y-86947693D01*
X157830126Y-86662885D01*
X157805833Y-86639096D01*
X157781893Y-86614988D01*
X157777835Y-86611678D01*
X157488085Y-86378712D01*
X157459618Y-86360084D01*
X157431467Y-86341096D01*
X157426844Y-86338637D01*
X157097362Y-86166389D01*
X157065840Y-86153653D01*
X157034517Y-86140486D01*
X157029504Y-86138972D01*
X156672839Y-86034000D01*
X156639405Y-86027622D01*
X156606160Y-86020798D01*
X156600949Y-86020286D01*
X156230689Y-85986589D01*
X156196630Y-85986827D01*
X156162714Y-85986590D01*
X156157503Y-85987100D01*
X155787749Y-86025963D01*
X155754411Y-86032807D01*
X155721069Y-86039167D01*
X155716056Y-86040680D01*
X155360892Y-86150622D01*
X155329555Y-86163795D01*
X155298048Y-86176525D01*
X155293424Y-86178983D01*
X154966379Y-86355815D01*
X154938179Y-86374836D01*
X154909761Y-86393432D01*
X154905703Y-86396741D01*
X154619234Y-86633730D01*
X154595294Y-86657838D01*
X154571002Y-86681626D01*
X154567664Y-86685661D01*
X154332681Y-86973778D01*
X154313858Y-87002110D01*
X154294670Y-87030132D01*
X154292180Y-87034737D01*
X154117635Y-87363009D01*
X154104686Y-87394426D01*
X154091294Y-87425672D01*
X154089745Y-87430674D01*
X153982285Y-87786597D01*
X153975678Y-87819965D01*
X153968617Y-87853184D01*
X153968070Y-87858391D01*
X153931790Y-88228407D01*
X153931790Y-88228416D01*
X153930001Y-88246581D01*
X153930000Y-99713418D01*
X150870000Y-99713418D01*
X150870000Y-88246581D01*
X150869871Y-88245275D01*
X150869805Y-88235780D01*
X150868024Y-88218837D01*
X150868024Y-88201809D01*
X150867477Y-88196601D01*
X150826034Y-87827127D01*
X150818961Y-87793852D01*
X150812365Y-87760541D01*
X150810817Y-87755539D01*
X150698400Y-87401152D01*
X150684987Y-87369857D01*
X150672058Y-87338489D01*
X150669568Y-87333883D01*
X150490456Y-87008080D01*
X150471246Y-86980025D01*
X150452445Y-86951727D01*
X150449108Y-86947693D01*
X150210126Y-86662885D01*
X150185833Y-86639096D01*
X150161893Y-86614988D01*
X150157835Y-86611678D01*
X149868085Y-86378712D01*
X149839618Y-86360084D01*
X149811467Y-86341096D01*
X149806844Y-86338637D01*
X149477362Y-86166389D01*
X149445840Y-86153653D01*
X149414517Y-86140486D01*
X149409504Y-86138972D01*
X149052839Y-86034000D01*
X149019405Y-86027622D01*
X148986160Y-86020798D01*
X148980949Y-86020286D01*
X148610689Y-85986589D01*
X148576630Y-85986827D01*
X148542714Y-85986590D01*
X148537503Y-85987100D01*
X148167749Y-86025963D01*
X148134411Y-86032807D01*
X148101069Y-86039167D01*
X148096056Y-86040680D01*
X147740892Y-86150622D01*
X147709555Y-86163795D01*
X147678048Y-86176525D01*
X147673424Y-86178983D01*
X147346379Y-86355815D01*
X147318179Y-86374836D01*
X147289761Y-86393432D01*
X147285703Y-86396741D01*
X146999234Y-86633730D01*
X146975294Y-86657838D01*
X146951002Y-86681626D01*
X146947664Y-86685661D01*
X146712681Y-86973778D01*
X146693858Y-87002110D01*
X146674670Y-87030132D01*
X146672180Y-87034737D01*
X146497635Y-87363009D01*
X146484686Y-87394426D01*
X146471294Y-87425672D01*
X146469745Y-87430674D01*
X146362285Y-87786597D01*
X146355678Y-87819965D01*
X146348617Y-87853184D01*
X146348070Y-87858391D01*
X146311790Y-88228407D01*
X146311790Y-88228416D01*
X146310001Y-88246581D01*
X146310000Y-99713418D01*
X132455000Y-99713418D01*
X132455000Y-85064879D01*
X136786574Y-85064879D01*
X136786812Y-85098937D01*
X136786575Y-85132852D01*
X136787085Y-85138063D01*
X136812993Y-85384567D01*
X136819834Y-85417891D01*
X136826197Y-85451248D01*
X136827710Y-85456260D01*
X136901005Y-85693036D01*
X136914187Y-85724396D01*
X136926908Y-85755880D01*
X136929364Y-85760500D01*
X136929366Y-85760505D01*
X136929369Y-85760509D01*
X137047253Y-85978533D01*
X137066271Y-86006728D01*
X137084871Y-86035152D01*
X137088180Y-86039210D01*
X137246173Y-86230189D01*
X137270274Y-86254122D01*
X137294070Y-86278421D01*
X137298104Y-86281759D01*
X137490182Y-86438414D01*
X137518491Y-86457222D01*
X137546536Y-86476425D01*
X137551142Y-86478916D01*
X137769989Y-86595278D01*
X137801420Y-86608233D01*
X137832651Y-86621619D01*
X137837653Y-86623168D01*
X138074934Y-86694808D01*
X138108296Y-86701414D01*
X138141521Y-86708476D01*
X138146728Y-86709023D01*
X138393406Y-86733210D01*
X138411581Y-86735000D01*
X142893419Y-86735000D01*
X142894725Y-86734871D01*
X142895354Y-86734867D01*
X142904037Y-86733954D01*
X142912853Y-86733086D01*
X142929326Y-86733086D01*
X142934533Y-86732539D01*
X143180849Y-86704910D01*
X143214095Y-86697843D01*
X143247434Y-86691242D01*
X143252436Y-86689694D01*
X143488694Y-86614749D01*
X143519964Y-86601346D01*
X143551358Y-86588407D01*
X143555964Y-86585917D01*
X143773166Y-86466509D01*
X143801221Y-86447299D01*
X143829519Y-86428498D01*
X143833554Y-86425160D01*
X144023426Y-86265838D01*
X144047214Y-86241546D01*
X144071321Y-86217607D01*
X144074631Y-86213549D01*
X144229942Y-86020382D01*
X144248560Y-85991931D01*
X144267559Y-85963763D01*
X144270018Y-85959140D01*
X144384850Y-85739485D01*
X144397589Y-85707954D01*
X144410752Y-85676642D01*
X144412265Y-85671629D01*
X144482248Y-85433853D01*
X144488631Y-85400390D01*
X144495450Y-85367172D01*
X144495962Y-85361961D01*
X144518426Y-85115121D01*
X144518188Y-85081063D01*
X144518425Y-85047148D01*
X144517915Y-85041937D01*
X144492007Y-84795434D01*
X144485166Y-84762109D01*
X144478803Y-84728753D01*
X144477290Y-84723740D01*
X144403995Y-84486964D01*
X144390813Y-84455604D01*
X144378092Y-84424120D01*
X144375634Y-84419496D01*
X144375634Y-84419495D01*
X144375631Y-84419491D01*
X144257746Y-84201466D01*
X144238725Y-84173266D01*
X144220129Y-84144848D01*
X144216820Y-84140790D01*
X144058827Y-83949810D01*
X144034664Y-83925815D01*
X144010930Y-83901579D01*
X144006896Y-83898241D01*
X143814818Y-83741586D01*
X143786494Y-83722767D01*
X143759484Y-83704273D01*
X151225000Y-83704273D01*
X151225000Y-83935727D01*
X151270155Y-84162735D01*
X151358729Y-84376571D01*
X151487318Y-84569019D01*
X151650981Y-84732682D01*
X151843429Y-84861271D01*
X152057265Y-84949845D01*
X152284273Y-84995000D01*
X152515727Y-84995000D01*
X152742735Y-84949845D01*
X152956571Y-84861271D01*
X153149019Y-84732682D01*
X153312682Y-84569019D01*
X153441271Y-84376571D01*
X153497840Y-84240000D01*
X160138549Y-84240000D01*
X160138549Y-85940000D01*
X160144341Y-85998810D01*
X160161496Y-86055360D01*
X160189353Y-86107477D01*
X160226842Y-86153158D01*
X160272523Y-86190647D01*
X160324640Y-86218504D01*
X160381190Y-86235659D01*
X160440000Y-86241451D01*
X162140000Y-86241451D01*
X162198810Y-86235659D01*
X162255360Y-86218504D01*
X162307477Y-86190647D01*
X162353158Y-86153158D01*
X162390647Y-86107477D01*
X162418504Y-86055360D01*
X162435659Y-85998810D01*
X162441451Y-85940000D01*
X162441451Y-85543678D01*
X172112466Y-85543678D01*
X173581000Y-87012211D01*
X175049534Y-85543678D01*
X174811840Y-85273894D01*
X174406572Y-85071355D01*
X173969578Y-84951771D01*
X173517651Y-84919739D01*
X173068159Y-84976488D01*
X172638374Y-85119839D01*
X172350160Y-85273894D01*
X172112466Y-85543678D01*
X162441451Y-85543678D01*
X162441451Y-84240000D01*
X162435659Y-84181190D01*
X162418504Y-84124640D01*
X162390647Y-84072523D01*
X162353158Y-84026842D01*
X162307477Y-83989353D01*
X162255360Y-83961496D01*
X162198810Y-83944341D01*
X162140000Y-83938549D01*
X160440000Y-83938549D01*
X160381190Y-83944341D01*
X160324640Y-83961496D01*
X160272523Y-83989353D01*
X160226842Y-84026842D01*
X160189353Y-84072523D01*
X160161496Y-84124640D01*
X160144341Y-84181190D01*
X160138549Y-84240000D01*
X153497840Y-84240000D01*
X153529845Y-84162735D01*
X153575000Y-83935727D01*
X153575000Y-83704273D01*
X153529845Y-83477265D01*
X153441271Y-83263429D01*
X153312682Y-83070981D01*
X153149019Y-82907318D01*
X152956571Y-82778729D01*
X152742735Y-82690155D01*
X152515727Y-82645000D01*
X152284273Y-82645000D01*
X152057265Y-82690155D01*
X151843429Y-82778729D01*
X151650981Y-82907318D01*
X151487318Y-83070981D01*
X151358729Y-83263429D01*
X151270155Y-83477265D01*
X151225000Y-83704273D01*
X143759484Y-83704273D01*
X143758464Y-83703575D01*
X143753858Y-83701084D01*
X143535010Y-83584721D01*
X143503561Y-83571759D01*
X143472349Y-83558381D01*
X143467347Y-83556832D01*
X143230066Y-83485192D01*
X143196704Y-83478586D01*
X143163479Y-83471524D01*
X143158272Y-83470977D01*
X142911594Y-83446790D01*
X142893419Y-83445000D01*
X138411581Y-83445000D01*
X138410275Y-83445129D01*
X138409646Y-83445133D01*
X138400961Y-83446046D01*
X138392147Y-83446914D01*
X138375675Y-83446914D01*
X138370467Y-83447461D01*
X138124151Y-83475090D01*
X138090905Y-83482157D01*
X138057566Y-83488758D01*
X138052564Y-83490306D01*
X137816306Y-83565251D01*
X137785064Y-83578641D01*
X137753642Y-83591593D01*
X137749036Y-83594083D01*
X137531834Y-83713491D01*
X137503779Y-83732701D01*
X137475481Y-83751502D01*
X137471447Y-83754839D01*
X137281574Y-83914162D01*
X137257786Y-83938454D01*
X137233679Y-83962393D01*
X137230369Y-83966451D01*
X137075058Y-84159618D01*
X137056430Y-84188084D01*
X137037441Y-84216237D01*
X137034982Y-84220860D01*
X136920150Y-84440515D01*
X136907411Y-84472046D01*
X136894248Y-84503358D01*
X136892735Y-84508371D01*
X136822753Y-84746147D01*
X136816383Y-84779541D01*
X136809550Y-84812828D01*
X136809038Y-84818039D01*
X136786574Y-85064879D01*
X132455000Y-85064879D01*
X132455000Y-83203337D01*
X132485902Y-82888174D01*
X132572109Y-82602645D01*
X132712129Y-82339305D01*
X132900633Y-82108176D01*
X133130443Y-81918062D01*
X133392800Y-81776207D01*
X133677711Y-81688012D01*
X133991795Y-81655000D01*
X177146663Y-81655000D01*
X177461826Y-81685902D01*
M02*
