G04 #@! TF.GenerationSoftware,KiCad,Pcbnew,(5.1.2-1)-1*
G04 #@! TF.CreationDate,2019-07-29T02:23:31-04:00*
G04 #@! TF.ProjectId,mouserial-mouse,6d6f7573-6572-4696-916c-2d6d6f757365,rev?*
G04 #@! TF.SameCoordinates,Original*
G04 #@! TF.FileFunction,Paste,Bot*
G04 #@! TF.FilePolarity,Positive*
%FSLAX46Y46*%
G04 Gerber Fmt 4.6, Leading zero omitted, Abs format (unit mm)*
G04 Created by KiCad (PCBNEW (5.1.2-1)-1) date 2019-07-29 02:23:31*
%MOMM*%
%LPD*%
G04 APERTURE LIST*
%ADD10C,0.100000*%
%ADD11C,0.973800*%
%ADD12C,1.123800*%
G04 APERTURE END LIST*
D10*
G36*
X164907312Y-89684272D02*
G01*
X164930945Y-89687778D01*
X164954120Y-89693583D01*
X164976614Y-89701632D01*
X164998212Y-89711846D01*
X165018704Y-89724129D01*
X165037893Y-89738361D01*
X165055595Y-89754405D01*
X165071639Y-89772107D01*
X165085871Y-89791296D01*
X165098154Y-89811788D01*
X165108368Y-89833386D01*
X165116417Y-89855880D01*
X165122222Y-89879055D01*
X165125728Y-89902688D01*
X165126900Y-89926550D01*
X165126900Y-90413450D01*
X165125728Y-90437312D01*
X165122222Y-90460945D01*
X165116417Y-90484120D01*
X165108368Y-90506614D01*
X165098154Y-90528212D01*
X165085871Y-90548704D01*
X165071639Y-90567893D01*
X165055595Y-90585595D01*
X165037893Y-90601639D01*
X165018704Y-90615871D01*
X164998212Y-90628154D01*
X164976614Y-90638368D01*
X164954120Y-90646417D01*
X164930945Y-90652222D01*
X164907312Y-90655728D01*
X164883450Y-90656900D01*
X164046550Y-90656900D01*
X164022688Y-90655728D01*
X163999055Y-90652222D01*
X163975880Y-90646417D01*
X163953386Y-90638368D01*
X163931788Y-90628154D01*
X163911296Y-90615871D01*
X163892107Y-90601639D01*
X163874405Y-90585595D01*
X163858361Y-90567893D01*
X163844129Y-90548704D01*
X163831846Y-90528212D01*
X163821632Y-90506614D01*
X163813583Y-90484120D01*
X163807778Y-90460945D01*
X163804272Y-90437312D01*
X163803100Y-90413450D01*
X163803100Y-89926550D01*
X163804272Y-89902688D01*
X163807778Y-89879055D01*
X163813583Y-89855880D01*
X163821632Y-89833386D01*
X163831846Y-89811788D01*
X163844129Y-89791296D01*
X163858361Y-89772107D01*
X163874405Y-89754405D01*
X163892107Y-89738361D01*
X163911296Y-89724129D01*
X163931788Y-89711846D01*
X163953386Y-89701632D01*
X163975880Y-89693583D01*
X163999055Y-89687778D01*
X164022688Y-89684272D01*
X164046550Y-89683100D01*
X164883450Y-89683100D01*
X164907312Y-89684272D01*
X164907312Y-89684272D01*
G37*
D11*
X164465000Y-90170000D03*
D10*
G36*
X164907312Y-87984272D02*
G01*
X164930945Y-87987778D01*
X164954120Y-87993583D01*
X164976614Y-88001632D01*
X164998212Y-88011846D01*
X165018704Y-88024129D01*
X165037893Y-88038361D01*
X165055595Y-88054405D01*
X165071639Y-88072107D01*
X165085871Y-88091296D01*
X165098154Y-88111788D01*
X165108368Y-88133386D01*
X165116417Y-88155880D01*
X165122222Y-88179055D01*
X165125728Y-88202688D01*
X165126900Y-88226550D01*
X165126900Y-88713450D01*
X165125728Y-88737312D01*
X165122222Y-88760945D01*
X165116417Y-88784120D01*
X165108368Y-88806614D01*
X165098154Y-88828212D01*
X165085871Y-88848704D01*
X165071639Y-88867893D01*
X165055595Y-88885595D01*
X165037893Y-88901639D01*
X165018704Y-88915871D01*
X164998212Y-88928154D01*
X164976614Y-88938368D01*
X164954120Y-88946417D01*
X164930945Y-88952222D01*
X164907312Y-88955728D01*
X164883450Y-88956900D01*
X164046550Y-88956900D01*
X164022688Y-88955728D01*
X163999055Y-88952222D01*
X163975880Y-88946417D01*
X163953386Y-88938368D01*
X163931788Y-88928154D01*
X163911296Y-88915871D01*
X163892107Y-88901639D01*
X163874405Y-88885595D01*
X163858361Y-88867893D01*
X163844129Y-88848704D01*
X163831846Y-88828212D01*
X163821632Y-88806614D01*
X163813583Y-88784120D01*
X163807778Y-88760945D01*
X163804272Y-88737312D01*
X163803100Y-88713450D01*
X163803100Y-88226550D01*
X163804272Y-88202688D01*
X163807778Y-88179055D01*
X163813583Y-88155880D01*
X163821632Y-88133386D01*
X163831846Y-88111788D01*
X163844129Y-88091296D01*
X163858361Y-88072107D01*
X163874405Y-88054405D01*
X163892107Y-88038361D01*
X163911296Y-88024129D01*
X163931788Y-88011846D01*
X163953386Y-88001632D01*
X163975880Y-87993583D01*
X163999055Y-87987778D01*
X164022688Y-87984272D01*
X164046550Y-87983100D01*
X164883450Y-87983100D01*
X164907312Y-87984272D01*
X164907312Y-87984272D01*
G37*
D11*
X164465000Y-88470000D03*
D10*
G36*
X165073488Y-91514453D02*
G01*
X165100761Y-91518498D01*
X165127505Y-91525198D01*
X165153465Y-91534486D01*
X165178389Y-91546274D01*
X165202037Y-91560449D01*
X165224183Y-91576873D01*
X165244612Y-91595388D01*
X165263127Y-91615817D01*
X165279551Y-91637963D01*
X165293726Y-91661611D01*
X165305514Y-91686535D01*
X165314802Y-91712495D01*
X165321502Y-91739239D01*
X165325547Y-91766512D01*
X165326900Y-91794050D01*
X165326900Y-92355950D01*
X165325547Y-92383488D01*
X165321502Y-92410761D01*
X165314802Y-92437505D01*
X165305514Y-92463465D01*
X165293726Y-92488389D01*
X165279551Y-92512037D01*
X165263127Y-92534183D01*
X165244612Y-92554612D01*
X165224183Y-92573127D01*
X165202037Y-92589551D01*
X165178389Y-92603726D01*
X165153465Y-92615514D01*
X165127505Y-92624802D01*
X165100761Y-92631502D01*
X165073488Y-92635547D01*
X165045950Y-92636900D01*
X163884050Y-92636900D01*
X163856512Y-92635547D01*
X163829239Y-92631502D01*
X163802495Y-92624802D01*
X163776535Y-92615514D01*
X163751611Y-92603726D01*
X163727963Y-92589551D01*
X163705817Y-92573127D01*
X163685388Y-92554612D01*
X163666873Y-92534183D01*
X163650449Y-92512037D01*
X163636274Y-92488389D01*
X163624486Y-92463465D01*
X163615198Y-92437505D01*
X163608498Y-92410761D01*
X163604453Y-92383488D01*
X163603100Y-92355950D01*
X163603100Y-91794050D01*
X163604453Y-91766512D01*
X163608498Y-91739239D01*
X163615198Y-91712495D01*
X163624486Y-91686535D01*
X163636274Y-91661611D01*
X163650449Y-91637963D01*
X163666873Y-91615817D01*
X163685388Y-91595388D01*
X163705817Y-91576873D01*
X163727963Y-91560449D01*
X163751611Y-91546274D01*
X163776535Y-91534486D01*
X163802495Y-91525198D01*
X163829239Y-91518498D01*
X163856512Y-91514453D01*
X163884050Y-91513100D01*
X165045950Y-91513100D01*
X165073488Y-91514453D01*
X165073488Y-91514453D01*
G37*
D12*
X164465000Y-92075000D03*
D10*
G36*
X165073488Y-94514453D02*
G01*
X165100761Y-94518498D01*
X165127505Y-94525198D01*
X165153465Y-94534486D01*
X165178389Y-94546274D01*
X165202037Y-94560449D01*
X165224183Y-94576873D01*
X165244612Y-94595388D01*
X165263127Y-94615817D01*
X165279551Y-94637963D01*
X165293726Y-94661611D01*
X165305514Y-94686535D01*
X165314802Y-94712495D01*
X165321502Y-94739239D01*
X165325547Y-94766512D01*
X165326900Y-94794050D01*
X165326900Y-95355950D01*
X165325547Y-95383488D01*
X165321502Y-95410761D01*
X165314802Y-95437505D01*
X165305514Y-95463465D01*
X165293726Y-95488389D01*
X165279551Y-95512037D01*
X165263127Y-95534183D01*
X165244612Y-95554612D01*
X165224183Y-95573127D01*
X165202037Y-95589551D01*
X165178389Y-95603726D01*
X165153465Y-95615514D01*
X165127505Y-95624802D01*
X165100761Y-95631502D01*
X165073488Y-95635547D01*
X165045950Y-95636900D01*
X163884050Y-95636900D01*
X163856512Y-95635547D01*
X163829239Y-95631502D01*
X163802495Y-95624802D01*
X163776535Y-95615514D01*
X163751611Y-95603726D01*
X163727963Y-95589551D01*
X163705817Y-95573127D01*
X163685388Y-95554612D01*
X163666873Y-95534183D01*
X163650449Y-95512037D01*
X163636274Y-95488389D01*
X163624486Y-95463465D01*
X163615198Y-95437505D01*
X163608498Y-95410761D01*
X163604453Y-95383488D01*
X163603100Y-95355950D01*
X163603100Y-94794050D01*
X163604453Y-94766512D01*
X163608498Y-94739239D01*
X163615198Y-94712495D01*
X163624486Y-94686535D01*
X163636274Y-94661611D01*
X163650449Y-94637963D01*
X163666873Y-94615817D01*
X163685388Y-94595388D01*
X163705817Y-94576873D01*
X163727963Y-94560449D01*
X163751611Y-94546274D01*
X163776535Y-94534486D01*
X163802495Y-94525198D01*
X163829239Y-94518498D01*
X163856512Y-94514453D01*
X163884050Y-94513100D01*
X165045950Y-94513100D01*
X165073488Y-94514453D01*
X165073488Y-94514453D01*
G37*
D12*
X164465000Y-95075000D03*
M02*
