G04 #@! TF.GenerationSoftware,KiCad,Pcbnew,(5.1.2-1)-1*
G04 #@! TF.CreationDate,2019-07-29T02:23:31-04:00*
G04 #@! TF.ProjectId,mouserial-mouse,6d6f7573-6572-4696-916c-2d6d6f757365,rev?*
G04 #@! TF.SameCoordinates,Original*
G04 #@! TF.FileFunction,Soldermask,Top*
G04 #@! TF.FilePolarity,Negative*
%FSLAX46Y46*%
G04 Gerber Fmt 4.6, Leading zero omitted, Abs format (unit mm)*
G04 Created by KiCad (PCBNEW (5.1.2-1)-1) date 2019-07-29 02:23:31*
%MOMM*%
%LPD*%
G04 APERTURE LIST*
%ADD10C,0.100000*%
G04 APERTURE END LIST*
D10*
G36*
X177319248Y-103734295D02*
G01*
X177471510Y-103764582D01*
X177662742Y-103843793D01*
X177834841Y-103958786D01*
X177981214Y-104105159D01*
X178096207Y-104277258D01*
X178175418Y-104468490D01*
X178215800Y-104671506D01*
X178215800Y-104878494D01*
X178175418Y-105081510D01*
X178096207Y-105272742D01*
X177981214Y-105444841D01*
X177834841Y-105591214D01*
X177662742Y-105706207D01*
X177471510Y-105785418D01*
X177319248Y-105815705D01*
X177268495Y-105825800D01*
X177061505Y-105825800D01*
X177010752Y-105815705D01*
X176858490Y-105785418D01*
X176667258Y-105706207D01*
X176495159Y-105591214D01*
X176348786Y-105444841D01*
X176233793Y-105272742D01*
X176154582Y-105081510D01*
X176114200Y-104878494D01*
X176114200Y-104671506D01*
X176154582Y-104468490D01*
X176233793Y-104277258D01*
X176348786Y-104105159D01*
X176495159Y-103958786D01*
X176667258Y-103843793D01*
X176858490Y-103764582D01*
X177010752Y-103734295D01*
X177061505Y-103724200D01*
X177268495Y-103724200D01*
X177319248Y-103734295D01*
X177319248Y-103734295D01*
G37*
G36*
X134139248Y-103734295D02*
G01*
X134291510Y-103764582D01*
X134482742Y-103843793D01*
X134654841Y-103958786D01*
X134801214Y-104105159D01*
X134916207Y-104277258D01*
X134995418Y-104468490D01*
X135035800Y-104671506D01*
X135035800Y-104878494D01*
X134995418Y-105081510D01*
X134916207Y-105272742D01*
X134801214Y-105444841D01*
X134654841Y-105591214D01*
X134482742Y-105706207D01*
X134291510Y-105785418D01*
X134139248Y-105815705D01*
X134088495Y-105825800D01*
X133881505Y-105825800D01*
X133830752Y-105815705D01*
X133678490Y-105785418D01*
X133487258Y-105706207D01*
X133315159Y-105591214D01*
X133168786Y-105444841D01*
X133053793Y-105272742D01*
X132974582Y-105081510D01*
X132934200Y-104878494D01*
X132934200Y-104671506D01*
X132974582Y-104468490D01*
X133053793Y-104277258D01*
X133168786Y-104105159D01*
X133315159Y-103958786D01*
X133487258Y-103843793D01*
X133678490Y-103764582D01*
X133830752Y-103734295D01*
X133881505Y-103724200D01*
X134088495Y-103724200D01*
X134139248Y-103734295D01*
X134139248Y-103734295D01*
G37*
G36*
X161466588Y-101982234D02*
G01*
X161636389Y-102033743D01*
X161636391Y-102033744D01*
X161792881Y-102117390D01*
X161930044Y-102229956D01*
X162042610Y-102367119D01*
X162042611Y-102367121D01*
X162126257Y-102523611D01*
X162177766Y-102693412D01*
X162195158Y-102870000D01*
X162177766Y-103046588D01*
X162126257Y-103216389D01*
X162126256Y-103216391D01*
X162042610Y-103372881D01*
X161930044Y-103510044D01*
X161792881Y-103622610D01*
X161792879Y-103622611D01*
X161636389Y-103706257D01*
X161466588Y-103757766D01*
X161334249Y-103770800D01*
X161245751Y-103770800D01*
X161113412Y-103757766D01*
X160943611Y-103706257D01*
X160787121Y-103622611D01*
X160787119Y-103622610D01*
X160649956Y-103510044D01*
X160537390Y-103372881D01*
X160453744Y-103216391D01*
X160453743Y-103216389D01*
X160402234Y-103046588D01*
X160384842Y-102870000D01*
X160402234Y-102693412D01*
X160453743Y-102523611D01*
X160537389Y-102367121D01*
X160537390Y-102367119D01*
X160649956Y-102229956D01*
X160787119Y-102117390D01*
X160943609Y-102033744D01*
X160943611Y-102033743D01*
X161113412Y-101982234D01*
X161245751Y-101969200D01*
X161334249Y-101969200D01*
X161466588Y-101982234D01*
X161466588Y-101982234D01*
G37*
G36*
X174179196Y-98758011D02*
G01*
X174179198Y-98758012D01*
X174179199Y-98758012D01*
X174552415Y-98912603D01*
X174552418Y-98912605D01*
X174888309Y-99137040D01*
X175173960Y-99422691D01*
X175173961Y-99422693D01*
X175398397Y-99758585D01*
X175552988Y-100131801D01*
X175552989Y-100131804D01*
X175631800Y-100528014D01*
X175631800Y-100931986D01*
X175585201Y-101166257D01*
X175552988Y-101328199D01*
X175398397Y-101701415D01*
X175398395Y-101701418D01*
X175173960Y-102037309D01*
X174888309Y-102322960D01*
X174822220Y-102367119D01*
X174552415Y-102547397D01*
X174179199Y-102701988D01*
X174179198Y-102701988D01*
X174179196Y-102701989D01*
X173782986Y-102780800D01*
X173379014Y-102780800D01*
X172982804Y-102701989D01*
X172982802Y-102701988D01*
X172982801Y-102701988D01*
X172609585Y-102547397D01*
X172339780Y-102367119D01*
X172273691Y-102322960D01*
X171988040Y-102037309D01*
X171763605Y-101701418D01*
X171763603Y-101701415D01*
X171609012Y-101328199D01*
X171576800Y-101166257D01*
X171530200Y-100931986D01*
X171530200Y-100528014D01*
X171609011Y-100131804D01*
X171609012Y-100131801D01*
X171763603Y-99758585D01*
X171988039Y-99422693D01*
X171988040Y-99422691D01*
X172273691Y-99137040D01*
X172609582Y-98912605D01*
X172609585Y-98912603D01*
X172982801Y-98758012D01*
X172982802Y-98758012D01*
X172982804Y-98758011D01*
X173379014Y-98679200D01*
X173782986Y-98679200D01*
X174179196Y-98758011D01*
X174179196Y-98758011D01*
G37*
G36*
X161466588Y-99442234D02*
G01*
X161636389Y-99493743D01*
X161636391Y-99493744D01*
X161792881Y-99577390D01*
X161930044Y-99689956D01*
X162042610Y-99827119D01*
X162042611Y-99827121D01*
X162126257Y-99983611D01*
X162177766Y-100153412D01*
X162195158Y-100330000D01*
X162177766Y-100506588D01*
X162126257Y-100676389D01*
X162126256Y-100676391D01*
X162042610Y-100832881D01*
X161930044Y-100970044D01*
X161792881Y-101082610D01*
X161792879Y-101082611D01*
X161636389Y-101166257D01*
X161466588Y-101217766D01*
X161334249Y-101230800D01*
X161245751Y-101230800D01*
X161113412Y-101217766D01*
X160943611Y-101166257D01*
X160787121Y-101082611D01*
X160787119Y-101082610D01*
X160649956Y-100970044D01*
X160537390Y-100832881D01*
X160453744Y-100676391D01*
X160453743Y-100676389D01*
X160402234Y-100506588D01*
X160384842Y-100330000D01*
X160402234Y-100153412D01*
X160453743Y-99983611D01*
X160537389Y-99827121D01*
X160537390Y-99827119D01*
X160649956Y-99689956D01*
X160787119Y-99577390D01*
X160943609Y-99493744D01*
X160943611Y-99493743D01*
X161113412Y-99442234D01*
X161245751Y-99429200D01*
X161334249Y-99429200D01*
X161466588Y-99442234D01*
X161466588Y-99442234D01*
G37*
G36*
X161466588Y-96902234D02*
G01*
X161636389Y-96953743D01*
X161636391Y-96953744D01*
X161792881Y-97037390D01*
X161930044Y-97149956D01*
X162042610Y-97287119D01*
X162042611Y-97287121D01*
X162126257Y-97443611D01*
X162177766Y-97613412D01*
X162195158Y-97790000D01*
X162177766Y-97966588D01*
X162126257Y-98136389D01*
X162126256Y-98136391D01*
X162042610Y-98292881D01*
X161930044Y-98430044D01*
X161792881Y-98542610D01*
X161792879Y-98542611D01*
X161636389Y-98626257D01*
X161466588Y-98677766D01*
X161334249Y-98690800D01*
X161245751Y-98690800D01*
X161113412Y-98677766D01*
X160943611Y-98626257D01*
X160787121Y-98542611D01*
X160787119Y-98542610D01*
X160649956Y-98430044D01*
X160537390Y-98292881D01*
X160453744Y-98136391D01*
X160453743Y-98136389D01*
X160402234Y-97966588D01*
X160384842Y-97790000D01*
X160402234Y-97613412D01*
X160453743Y-97443611D01*
X160537389Y-97287121D01*
X160537390Y-97287119D01*
X160649956Y-97149956D01*
X160787119Y-97037390D01*
X160943609Y-96953744D01*
X160943611Y-96953743D01*
X161113412Y-96902234D01*
X161245751Y-96889200D01*
X161334249Y-96889200D01*
X161466588Y-96902234D01*
X161466588Y-96902234D01*
G37*
G36*
X170858338Y-96465738D02*
G01*
X170858340Y-96465739D01*
X170858341Y-96465739D01*
X171031370Y-96537410D01*
X171031373Y-96537412D01*
X171187100Y-96641465D01*
X171319535Y-96773900D01*
X171319536Y-96773902D01*
X171423590Y-96929630D01*
X171495261Y-97102659D01*
X171531800Y-97286355D01*
X171531800Y-97473645D01*
X171495261Y-97657341D01*
X171423590Y-97830370D01*
X171423588Y-97830373D01*
X171319535Y-97986100D01*
X171187100Y-98118535D01*
X171160379Y-98136389D01*
X171031370Y-98222590D01*
X170858341Y-98294261D01*
X170858340Y-98294261D01*
X170858338Y-98294262D01*
X170674646Y-98330800D01*
X170487354Y-98330800D01*
X170303662Y-98294262D01*
X170303660Y-98294261D01*
X170303659Y-98294261D01*
X170130630Y-98222590D01*
X170001621Y-98136389D01*
X169974900Y-98118535D01*
X169842465Y-97986100D01*
X169738412Y-97830373D01*
X169738410Y-97830370D01*
X169666739Y-97657341D01*
X169630200Y-97473645D01*
X169630200Y-97286355D01*
X169666739Y-97102659D01*
X169738410Y-96929630D01*
X169842464Y-96773902D01*
X169842465Y-96773900D01*
X169974900Y-96641465D01*
X170130627Y-96537412D01*
X170130630Y-96537410D01*
X170303659Y-96465739D01*
X170303660Y-96465739D01*
X170303662Y-96465738D01*
X170487354Y-96429200D01*
X170674646Y-96429200D01*
X170858338Y-96465738D01*
X170858338Y-96465738D01*
G37*
G36*
X168358338Y-96465738D02*
G01*
X168358340Y-96465739D01*
X168358341Y-96465739D01*
X168531370Y-96537410D01*
X168531373Y-96537412D01*
X168687100Y-96641465D01*
X168819535Y-96773900D01*
X168819536Y-96773902D01*
X168923590Y-96929630D01*
X168995261Y-97102659D01*
X169031800Y-97286355D01*
X169031800Y-97473645D01*
X168995261Y-97657341D01*
X168923590Y-97830370D01*
X168923588Y-97830373D01*
X168819535Y-97986100D01*
X168687100Y-98118535D01*
X168660379Y-98136389D01*
X168531370Y-98222590D01*
X168358341Y-98294261D01*
X168358340Y-98294261D01*
X168358338Y-98294262D01*
X168174646Y-98330800D01*
X167987354Y-98330800D01*
X167803662Y-98294262D01*
X167803660Y-98294261D01*
X167803659Y-98294261D01*
X167630630Y-98222590D01*
X167501621Y-98136389D01*
X167474900Y-98118535D01*
X167342465Y-97986100D01*
X167238412Y-97830373D01*
X167238410Y-97830370D01*
X167166739Y-97657341D01*
X167130200Y-97473645D01*
X167130200Y-97286355D01*
X167166739Y-97102659D01*
X167238410Y-96929630D01*
X167342464Y-96773902D01*
X167342465Y-96773900D01*
X167474900Y-96641465D01*
X167630627Y-96537412D01*
X167630630Y-96537410D01*
X167803659Y-96465739D01*
X167803660Y-96465739D01*
X167803662Y-96465738D01*
X167987354Y-96429200D01*
X168174646Y-96429200D01*
X168358338Y-96465738D01*
X168358338Y-96465738D01*
G37*
G36*
X170858338Y-94365738D02*
G01*
X170858340Y-94365739D01*
X170858341Y-94365739D01*
X171031370Y-94437410D01*
X171031373Y-94437412D01*
X171187100Y-94541465D01*
X171319535Y-94673900D01*
X171319536Y-94673902D01*
X171423590Y-94829630D01*
X171474035Y-94951415D01*
X171495262Y-95002662D01*
X171531800Y-95186354D01*
X171531800Y-95373645D01*
X171495261Y-95557341D01*
X171423590Y-95730370D01*
X171423588Y-95730373D01*
X171319535Y-95886100D01*
X171187100Y-96018535D01*
X171168744Y-96030800D01*
X171031370Y-96122590D01*
X170858341Y-96194261D01*
X170858340Y-96194261D01*
X170858338Y-96194262D01*
X170674646Y-96230800D01*
X170487354Y-96230800D01*
X170303662Y-96194262D01*
X170303660Y-96194261D01*
X170303659Y-96194261D01*
X170130630Y-96122590D01*
X169993256Y-96030800D01*
X169974900Y-96018535D01*
X169842465Y-95886100D01*
X169738412Y-95730373D01*
X169738410Y-95730370D01*
X169666739Y-95557341D01*
X169630200Y-95373645D01*
X169630200Y-95186354D01*
X169666738Y-95002662D01*
X169687965Y-94951415D01*
X169738410Y-94829630D01*
X169842464Y-94673902D01*
X169842465Y-94673900D01*
X169974900Y-94541465D01*
X170130627Y-94437412D01*
X170130630Y-94437410D01*
X170303659Y-94365739D01*
X170303660Y-94365739D01*
X170303662Y-94365738D01*
X170487354Y-94329200D01*
X170674646Y-94329200D01*
X170858338Y-94365738D01*
X170858338Y-94365738D01*
G37*
G36*
X161466588Y-94362234D02*
G01*
X161636389Y-94413743D01*
X161636391Y-94413744D01*
X161792881Y-94497390D01*
X161930044Y-94609956D01*
X162042610Y-94747119D01*
X162042611Y-94747121D01*
X162126257Y-94903611D01*
X162177766Y-95073412D01*
X162195158Y-95250000D01*
X162177766Y-95426588D01*
X162126257Y-95596389D01*
X162126256Y-95596391D01*
X162042610Y-95752881D01*
X161930044Y-95890044D01*
X161792881Y-96002610D01*
X161763086Y-96018536D01*
X161636389Y-96086257D01*
X161466588Y-96137766D01*
X161334249Y-96150800D01*
X161245751Y-96150800D01*
X161113412Y-96137766D01*
X160943611Y-96086257D01*
X160816914Y-96018536D01*
X160787119Y-96002610D01*
X160649956Y-95890044D01*
X160537390Y-95752881D01*
X160453744Y-95596391D01*
X160453743Y-95596389D01*
X160402234Y-95426588D01*
X160384842Y-95250000D01*
X160402234Y-95073412D01*
X160453743Y-94903611D01*
X160537389Y-94747121D01*
X160537390Y-94747119D01*
X160649956Y-94609956D01*
X160787119Y-94497390D01*
X160943609Y-94413744D01*
X160943611Y-94413743D01*
X161113412Y-94362234D01*
X161245751Y-94349200D01*
X161334249Y-94349200D01*
X161466588Y-94362234D01*
X161466588Y-94362234D01*
G37*
G36*
X174979196Y-92008011D02*
G01*
X174979198Y-92008012D01*
X174979199Y-92008012D01*
X175352415Y-92162603D01*
X175352418Y-92162605D01*
X175688309Y-92387040D01*
X175973960Y-92672691D01*
X176116881Y-92886588D01*
X176198397Y-93008585D01*
X176313347Y-93286100D01*
X176352989Y-93381804D01*
X176431800Y-93778014D01*
X176431800Y-94181986D01*
X176380993Y-94437412D01*
X176352988Y-94578199D01*
X176198397Y-94951415D01*
X176198395Y-94951418D01*
X175973960Y-95287309D01*
X175688309Y-95572960D01*
X175419041Y-95752879D01*
X175352415Y-95797397D01*
X174979199Y-95951988D01*
X174979198Y-95951988D01*
X174979196Y-95951989D01*
X174582986Y-96030800D01*
X174179014Y-96030800D01*
X173782804Y-95951989D01*
X173782802Y-95951988D01*
X173782801Y-95951988D01*
X173409585Y-95797397D01*
X173342959Y-95752879D01*
X173073691Y-95572960D01*
X172788040Y-95287309D01*
X172563605Y-94951418D01*
X172563603Y-94951415D01*
X172409012Y-94578199D01*
X172381008Y-94437412D01*
X172330200Y-94181986D01*
X172330200Y-93778014D01*
X172409011Y-93381804D01*
X172448653Y-93286100D01*
X172563603Y-93008585D01*
X172645119Y-92886588D01*
X172788040Y-92672691D01*
X173073691Y-92387040D01*
X173409582Y-92162605D01*
X173409585Y-92162603D01*
X173782801Y-92008012D01*
X173782802Y-92008012D01*
X173782804Y-92008011D01*
X174179014Y-91929200D01*
X174582986Y-91929200D01*
X174979196Y-92008011D01*
X174979196Y-92008011D01*
G37*
G36*
X170858338Y-91765738D02*
G01*
X170858340Y-91765739D01*
X170858341Y-91765739D01*
X171031370Y-91837410D01*
X171031373Y-91837412D01*
X171187100Y-91941465D01*
X171319535Y-92073900D01*
X171408549Y-92207119D01*
X171423590Y-92229630D01*
X171488791Y-92387039D01*
X171495262Y-92402662D01*
X171531800Y-92586354D01*
X171531800Y-92773646D01*
X171509335Y-92886588D01*
X171495261Y-92957341D01*
X171423590Y-93130370D01*
X171423588Y-93130373D01*
X171319535Y-93286100D01*
X171187100Y-93418535D01*
X171121137Y-93462610D01*
X171031370Y-93522590D01*
X170858341Y-93594261D01*
X170858340Y-93594261D01*
X170858338Y-93594262D01*
X170674646Y-93630800D01*
X170487354Y-93630800D01*
X170303662Y-93594262D01*
X170303660Y-93594261D01*
X170303659Y-93594261D01*
X170130630Y-93522590D01*
X170040863Y-93462610D01*
X169974900Y-93418535D01*
X169842465Y-93286100D01*
X169738412Y-93130373D01*
X169738410Y-93130370D01*
X169666739Y-92957341D01*
X169652666Y-92886588D01*
X169630200Y-92773646D01*
X169630200Y-92586354D01*
X169666738Y-92402662D01*
X169673209Y-92387039D01*
X169738410Y-92229630D01*
X169753451Y-92207119D01*
X169842465Y-92073900D01*
X169974900Y-91941465D01*
X170130627Y-91837412D01*
X170130630Y-91837410D01*
X170303659Y-91765739D01*
X170303660Y-91765739D01*
X170303662Y-91765738D01*
X170487354Y-91729200D01*
X170674646Y-91729200D01*
X170858338Y-91765738D01*
X170858338Y-91765738D01*
G37*
G36*
X161466588Y-91822234D02*
G01*
X161636389Y-91873743D01*
X161636391Y-91873744D01*
X161792881Y-91957390D01*
X161930044Y-92069956D01*
X162042610Y-92207119D01*
X162042611Y-92207121D01*
X162126257Y-92363611D01*
X162177766Y-92533412D01*
X162195158Y-92710000D01*
X162177766Y-92886588D01*
X162140759Y-93008582D01*
X162126256Y-93056391D01*
X162042610Y-93212881D01*
X161930044Y-93350044D01*
X161792881Y-93462610D01*
X161680667Y-93522590D01*
X161636389Y-93546257D01*
X161466588Y-93597766D01*
X161334249Y-93610800D01*
X161245751Y-93610800D01*
X161113412Y-93597766D01*
X160943611Y-93546257D01*
X160899333Y-93522590D01*
X160787119Y-93462610D01*
X160649956Y-93350044D01*
X160537390Y-93212881D01*
X160453744Y-93056391D01*
X160439241Y-93008582D01*
X160402234Y-92886588D01*
X160384842Y-92710000D01*
X160402234Y-92533412D01*
X160453743Y-92363611D01*
X160537389Y-92207121D01*
X160537390Y-92207119D01*
X160649956Y-92069956D01*
X160787119Y-91957390D01*
X160943609Y-91873744D01*
X160943611Y-91873743D01*
X161113412Y-91822234D01*
X161245751Y-91809200D01*
X161334249Y-91809200D01*
X161466588Y-91822234D01*
X161466588Y-91822234D01*
G37*
G36*
X168358338Y-89665738D02*
G01*
X168358340Y-89665739D01*
X168358341Y-89665739D01*
X168531370Y-89737410D01*
X168531373Y-89737412D01*
X168687100Y-89841465D01*
X168819535Y-89973900D01*
X168819536Y-89973902D01*
X168923590Y-90129630D01*
X168995261Y-90302659D01*
X169031800Y-90486355D01*
X169031800Y-90673645D01*
X168995261Y-90857341D01*
X168923590Y-91030370D01*
X168923588Y-91030373D01*
X168819535Y-91186100D01*
X168687100Y-91318535D01*
X168531373Y-91422588D01*
X168531370Y-91422590D01*
X168358341Y-91494261D01*
X168358340Y-91494261D01*
X168358338Y-91494262D01*
X168174646Y-91530800D01*
X167987354Y-91530800D01*
X167803662Y-91494262D01*
X167803660Y-91494261D01*
X167803659Y-91494261D01*
X167630630Y-91422590D01*
X167630627Y-91422588D01*
X167474900Y-91318535D01*
X167342465Y-91186100D01*
X167238412Y-91030373D01*
X167238410Y-91030370D01*
X167166739Y-90857341D01*
X167130200Y-90673645D01*
X167130200Y-90486355D01*
X167166739Y-90302659D01*
X167238410Y-90129630D01*
X167342464Y-89973902D01*
X167342465Y-89973900D01*
X167474900Y-89841465D01*
X167630627Y-89737412D01*
X167630630Y-89737410D01*
X167803659Y-89665739D01*
X167803660Y-89665739D01*
X167803662Y-89665738D01*
X167987354Y-89629200D01*
X168174646Y-89629200D01*
X168358338Y-89665738D01*
X168358338Y-89665738D01*
G37*
G36*
X170858338Y-89665738D02*
G01*
X170858340Y-89665739D01*
X170858341Y-89665739D01*
X171031370Y-89737410D01*
X171031373Y-89737412D01*
X171187100Y-89841465D01*
X171319535Y-89973900D01*
X171319536Y-89973902D01*
X171423590Y-90129630D01*
X171495261Y-90302659D01*
X171531800Y-90486355D01*
X171531800Y-90673645D01*
X171495261Y-90857341D01*
X171423590Y-91030370D01*
X171423588Y-91030373D01*
X171319535Y-91186100D01*
X171187100Y-91318535D01*
X171031373Y-91422588D01*
X171031370Y-91422590D01*
X170858341Y-91494261D01*
X170858340Y-91494261D01*
X170858338Y-91494262D01*
X170674646Y-91530800D01*
X170487354Y-91530800D01*
X170303662Y-91494262D01*
X170303660Y-91494261D01*
X170303659Y-91494261D01*
X170130630Y-91422590D01*
X170130627Y-91422588D01*
X169974900Y-91318535D01*
X169842465Y-91186100D01*
X169738412Y-91030373D01*
X169738410Y-91030370D01*
X169666739Y-90857341D01*
X169630200Y-90673645D01*
X169630200Y-90486355D01*
X169666739Y-90302659D01*
X169738410Y-90129630D01*
X169842464Y-89973902D01*
X169842465Y-89973900D01*
X169974900Y-89841465D01*
X170130627Y-89737412D01*
X170130630Y-89737410D01*
X170303659Y-89665739D01*
X170303660Y-89665739D01*
X170303662Y-89665738D01*
X170487354Y-89629200D01*
X170674646Y-89629200D01*
X170858338Y-89665738D01*
X170858338Y-89665738D01*
G37*
G36*
X161466588Y-89282234D02*
G01*
X161636389Y-89333743D01*
X161636391Y-89333744D01*
X161792881Y-89417390D01*
X161930044Y-89529956D01*
X162042610Y-89667119D01*
X162126256Y-89823609D01*
X162126257Y-89823611D01*
X162177766Y-89993412D01*
X162195158Y-90170000D01*
X162177766Y-90346588D01*
X162126257Y-90516389D01*
X162126256Y-90516391D01*
X162042610Y-90672881D01*
X161930044Y-90810044D01*
X161792881Y-90922610D01*
X161792879Y-90922611D01*
X161636389Y-91006257D01*
X161466588Y-91057766D01*
X161334249Y-91070800D01*
X161245751Y-91070800D01*
X161113412Y-91057766D01*
X160943611Y-91006257D01*
X160787121Y-90922611D01*
X160787119Y-90922610D01*
X160649956Y-90810044D01*
X160537390Y-90672881D01*
X160453744Y-90516391D01*
X160453743Y-90516389D01*
X160402234Y-90346588D01*
X160384842Y-90170000D01*
X160402234Y-89993412D01*
X160453743Y-89823611D01*
X160453744Y-89823609D01*
X160537390Y-89667119D01*
X160649956Y-89529956D01*
X160787119Y-89417390D01*
X160943609Y-89333744D01*
X160943611Y-89333743D01*
X161113412Y-89282234D01*
X161245751Y-89269200D01*
X161334249Y-89269200D01*
X161466588Y-89282234D01*
X161466588Y-89282234D01*
G37*
G36*
X174179196Y-85258011D02*
G01*
X174179198Y-85258012D01*
X174179199Y-85258012D01*
X174552415Y-85412603D01*
X174552418Y-85412605D01*
X174888309Y-85637040D01*
X175173960Y-85922691D01*
X175173961Y-85922693D01*
X175398397Y-86258585D01*
X175552988Y-86631801D01*
X175552989Y-86631804D01*
X175631800Y-87028014D01*
X175631800Y-87431986D01*
X175557288Y-87806584D01*
X175552988Y-87828199D01*
X175398397Y-88201415D01*
X175398395Y-88201418D01*
X175173960Y-88537309D01*
X174888309Y-88822960D01*
X174552418Y-89047395D01*
X174552415Y-89047397D01*
X174179199Y-89201988D01*
X174179198Y-89201988D01*
X174179196Y-89201989D01*
X173782986Y-89280800D01*
X173379014Y-89280800D01*
X172982804Y-89201989D01*
X172982802Y-89201988D01*
X172982801Y-89201988D01*
X172609585Y-89047397D01*
X172609582Y-89047395D01*
X172273691Y-88822960D01*
X171988040Y-88537309D01*
X171763605Y-88201418D01*
X171763603Y-88201415D01*
X171609012Y-87828199D01*
X171604713Y-87806584D01*
X171530200Y-87431986D01*
X171530200Y-87028014D01*
X171609011Y-86631804D01*
X171609012Y-86631801D01*
X171763603Y-86258585D01*
X171988039Y-85922693D01*
X171988040Y-85922691D01*
X172273691Y-85637040D01*
X172609582Y-85412605D01*
X172609585Y-85412603D01*
X172982801Y-85258012D01*
X172982802Y-85258012D01*
X172982804Y-85258011D01*
X173379014Y-85179200D01*
X173782986Y-85179200D01*
X174179196Y-85258011D01*
X174179196Y-85258011D01*
G37*
G36*
X161466588Y-86742234D02*
G01*
X161636389Y-86793743D01*
X161636391Y-86793744D01*
X161792881Y-86877390D01*
X161930044Y-86989956D01*
X162042610Y-87127119D01*
X162042611Y-87127121D01*
X162126257Y-87283611D01*
X162177766Y-87453412D01*
X162195158Y-87630000D01*
X162177766Y-87806588D01*
X162126257Y-87976389D01*
X162126256Y-87976391D01*
X162042610Y-88132881D01*
X161930044Y-88270044D01*
X161792881Y-88382610D01*
X161792879Y-88382611D01*
X161636389Y-88466257D01*
X161466588Y-88517766D01*
X161334249Y-88530800D01*
X161245751Y-88530800D01*
X161113412Y-88517766D01*
X160943611Y-88466257D01*
X160787121Y-88382611D01*
X160787119Y-88382610D01*
X160649956Y-88270044D01*
X160537390Y-88132881D01*
X160453744Y-87976391D01*
X160453743Y-87976389D01*
X160402234Y-87806588D01*
X160384842Y-87630000D01*
X160402234Y-87453412D01*
X160453743Y-87283611D01*
X160537389Y-87127121D01*
X160537390Y-87127119D01*
X160649956Y-86989956D01*
X160787119Y-86877390D01*
X160943609Y-86793744D01*
X160943611Y-86793743D01*
X161113412Y-86742234D01*
X161245751Y-86729200D01*
X161334249Y-86729200D01*
X161466588Y-86742234D01*
X161466588Y-86742234D01*
G37*
G36*
X162190800Y-85990800D02*
G01*
X160389200Y-85990800D01*
X160389200Y-84189200D01*
X162190800Y-84189200D01*
X162190800Y-85990800D01*
X162190800Y-85990800D01*
G37*
G36*
X177319248Y-82144295D02*
G01*
X177471510Y-82174582D01*
X177662742Y-82253793D01*
X177834841Y-82368786D01*
X177981214Y-82515159D01*
X178096207Y-82687258D01*
X178175418Y-82878490D01*
X178215800Y-83081506D01*
X178215800Y-83288494D01*
X178175418Y-83491510D01*
X178096207Y-83682742D01*
X177981214Y-83854841D01*
X177834841Y-84001214D01*
X177662742Y-84116207D01*
X177471510Y-84195418D01*
X177319248Y-84225704D01*
X177268495Y-84235800D01*
X177061505Y-84235800D01*
X177010752Y-84225704D01*
X176858490Y-84195418D01*
X176667258Y-84116207D01*
X176495159Y-84001214D01*
X176348786Y-83854841D01*
X176233793Y-83682742D01*
X176154582Y-83491510D01*
X176114200Y-83288494D01*
X176114200Y-83081506D01*
X176154582Y-82878490D01*
X176233793Y-82687258D01*
X176348786Y-82515159D01*
X176495159Y-82368786D01*
X176667258Y-82253793D01*
X176858490Y-82174582D01*
X177010752Y-82144296D01*
X177061505Y-82134200D01*
X177268495Y-82134200D01*
X177319248Y-82144295D01*
X177319248Y-82144295D01*
G37*
G36*
X134139248Y-82144295D02*
G01*
X134291510Y-82174582D01*
X134482742Y-82253793D01*
X134654841Y-82368786D01*
X134801214Y-82515159D01*
X134916207Y-82687258D01*
X134995418Y-82878490D01*
X135035800Y-83081506D01*
X135035800Y-83288494D01*
X134995418Y-83491510D01*
X134916207Y-83682742D01*
X134801214Y-83854841D01*
X134654841Y-84001214D01*
X134482742Y-84116207D01*
X134291510Y-84195418D01*
X134139248Y-84225704D01*
X134088495Y-84235800D01*
X133881505Y-84235800D01*
X133830752Y-84225704D01*
X133678490Y-84195418D01*
X133487258Y-84116207D01*
X133315159Y-84001214D01*
X133168786Y-83854841D01*
X133053793Y-83682742D01*
X132974582Y-83491510D01*
X132934200Y-83288494D01*
X132934200Y-83081506D01*
X132974582Y-82878490D01*
X133053793Y-82687258D01*
X133168786Y-82515159D01*
X133315159Y-82368786D01*
X133487258Y-82253793D01*
X133678490Y-82174582D01*
X133830752Y-82144296D01*
X133881505Y-82134200D01*
X134088495Y-82134200D01*
X134139248Y-82144295D01*
X134139248Y-82144295D01*
G37*
M02*
