M48
; DRILL file {KiCad (5.1.2-1)-1} date Monday, July 29, 2019 at 09:02:18 PM
; FORMAT={-:-/ absolute / inch / decimal}
; #@! TF.CreationDate,2019-07-29T21:02:18-04:00
; #@! TF.GenerationSoftware,Kicad,Pcbnew,(5.1.2-1)-1
FMAT,2
INCH
T1C0.0118
T2C0.0157
T3C0.0300
T4C0.0433
%
G90
G05
T1
X1.815Y-3.95
X1.875Y-4.7
X1.9Y-4.775
X1.95Y-4.775
X1.975Y-4.45
X1.975Y-4.5
X1.975Y-4.55
X2.0Y-3.88
X2.0Y-4.775
X2.01Y-4.35
X2.015Y-4.3
X2.025Y-4.935
X2.05Y-3.895
X2.085Y-4.925
X2.1Y-3.88
X2.1Y-4.775
X2.14Y-4.91
X2.15Y-4.23
X2.15Y-4.775
X2.185Y-4.005
X2.195Y-4.64
X2.2Y-3.72
X2.2Y-4.775
X2.2Y-4.9
X2.225Y-4.035
X2.25Y-4.3
X2.25Y-4.35
X2.25Y-4.4
X2.25Y-4.45
X2.25Y-4.5
X2.25Y-4.55
X2.25Y-4.6
X2.25Y-4.775
X2.255Y-4.885
X2.3Y-4.7
X2.3Y-4.75
X2.31Y-4.195
X2.315Y-4.095
X2.315Y-4.875
X2.335Y-3.925
X2.365Y-4.095
X2.375Y-4.865
X2.38Y-4.665
X2.405Y-4.175
X2.415Y-3.925
X2.415Y-4.095
X2.425Y-4.45
X2.465Y-3.825
X2.475Y-3.75
X2.505Y-4.075
X2.51Y-3.725
X2.525Y-3.985
X2.53Y-4.16
X2.55Y-3.7
X2.555Y-4.665
X2.565Y-4.475
X2.575Y-4.1
X2.59Y-3.725
X2.615Y-3.65
X2.615Y-4.24
X2.63Y-4.0
X2.63Y-4.485
X2.635Y-3.875
X2.65Y-3.725
X2.65Y-4.05
X2.655Y-3.675
X2.655Y-4.575
X2.675Y-4.15
X2.685Y-3.825
X2.685Y-4.665
X2.69Y-4.1
X2.69Y-4.48
X2.695Y-4.35
X2.7Y-3.7
X2.725Y-3.775
X2.725Y-3.9
X2.725Y-4.0
X2.725Y-4.05
X2.725Y-4.15
X2.725Y-4.2
X2.725Y-4.25
X2.725Y-4.45
X2.725Y-4.65
X2.75Y-4.795
X2.75Y-4.865
X2.82Y-4.85
X2.85Y-3.86
X2.85Y-4.1
X2.85Y-4.15
X2.85Y-4.2
X2.85Y-4.26
X2.85Y-4.35
X2.85Y-4.4
X2.85Y-4.45
X2.85Y-4.5
X2.85Y-4.55
X2.875Y-4.85
X2.9Y-3.7
X2.9Y-3.79
X2.9Y-3.91
X2.9Y-4.0
X2.9Y-4.05
X2.9Y-4.1
X2.925Y-4.575
X2.925Y-4.85
X2.95Y-3.7
X2.95Y-5.17
X2.975Y-3.95
X2.975Y-4.0
X2.975Y-4.05
X2.975Y-4.1
X2.975Y-4.15
X2.975Y-4.25
X2.975Y-4.3
X2.985Y-4.605
X3.0Y-3.7
X3.0Y-4.65
X3.015Y-3.875
X3.025Y-3.755
X3.05Y-4.175
X3.05Y-4.275
X3.05Y-4.4
X3.05Y-5.17
X3.075Y-4.0
X3.09Y-4.1
X3.1Y-3.7
X3.1Y-4.665
X3.125Y-4.25
X3.125Y-4.45
X3.125Y-4.575
X3.125Y-4.575
X3.14Y-4.05
X3.145Y-3.875
X3.15Y-4.825
X3.15Y-5.17
X3.165Y-3.8
X3.19Y-4.0
X3.2Y-3.7
X3.2Y-4.225
X3.225Y-4.15
X3.225Y-4.45
X3.25Y-3.7
X3.25Y-4.225
X3.25Y-4.575
X3.25Y-4.825
X3.25Y-5.17
X3.265Y-3.8
X3.265Y-4.98
X3.275Y-4.4
X3.3Y-3.7
X3.3Y-4.915
X3.325Y-4.15
X3.325Y-4.35
X3.325Y-4.45
X3.325Y-4.66
X3.35Y-4.225
X3.35Y-4.575
X3.35Y-4.825
X3.35Y-5.17
X3.36Y-4.1
X3.365Y-4.875
X3.375Y-4.3
X3.4Y-4.175
X3.4Y-4.825
X3.425Y-4.25
X3.425Y-4.45
X3.44Y-4.15
X3.45Y-3.7
X3.45Y-4.575
X3.45Y-5.17
X3.46Y-5.03
X3.475Y-4.2
X3.5Y-3.575
X3.525Y-3.7
X3.525Y-4.15
X3.525Y-4.45
X3.525Y-4.875
X3.525Y-4.975
X3.55Y-3.865
X3.55Y-4.575
X3.55Y-5.17
X3.575Y-4.875
X3.585Y-5.03
X3.615Y-4.975
X3.625Y-4.45
X3.625Y-4.875
X3.64Y-3.865
X3.64Y-3.95
X3.645Y-3.45
X3.65Y-4.175
X3.65Y-4.575
X3.65Y-4.71
X3.65Y-5.17
X3.665Y-5.03
X3.675Y-3.575
X3.7Y-4.01
X3.7Y-4.975
X3.71Y-3.475
X3.715Y-3.85
X3.725Y-3.575
X3.725Y-4.45
X3.735Y-3.91
X3.75Y-4.19
X3.75Y-5.17
X3.755Y-5.03
X3.775Y-3.575
X3.775Y-4.675
X3.8Y-4.24
X3.8Y-4.31
X3.8Y-4.44
X3.8Y-4.55
X3.8Y-4.6
X3.8Y-4.825
X3.8Y-4.975
X3.81Y-3.985
X3.815Y-4.64
X3.825Y-4.15
X3.835Y-3.275
X3.835Y-4.5
X3.845Y-3.455
X3.85Y-3.75
X3.85Y-3.8
X3.85Y-3.85
X3.85Y-3.9
X3.85Y-4.225
X3.85Y-4.6
X3.85Y-5.17
X3.855Y-5.03
X3.885Y-4.975
X3.89Y-3.3
X3.935Y-3.325
X3.94Y-4.79
X3.94Y-4.84
X3.95Y-5.17
X3.96Y-5.03
X3.975Y-3.575
X3.975Y-4.15
X3.975Y-4.25
X3.975Y-4.4
X3.975Y-4.45
X3.975Y-4.55
X3.985Y-4.98
X3.985Y-5.075
X3.99Y-4.79
X3.99Y-4.84
X3.995Y-4.685
X4.0Y-4.075
X4.0Y-4.19
X4.015Y-4.575
X4.025Y-4.365
X4.035Y-3.675
X4.05Y-4.2
X4.05Y-4.25
X4.05Y-4.81
X4.05Y-5.17
X4.065Y-3.925
X4.07Y-4.98
X4.1Y-4.44
X4.11Y-3.95
X4.115Y-3.665
X4.15Y-4.97
X4.15Y-5.125
X4.15Y-5.17
X4.19Y-3.325
X4.2Y-4.255
X4.2Y-4.44
X4.23Y-3.95
X4.235Y-3.3
X4.235Y-4.96
X4.25Y-5.125
X4.25Y-5.17
X4.26Y-4.815
X4.275Y-3.665
X4.275Y-3.925
X4.275Y-4.265
X4.285Y-4.91
X4.3Y-4.66
X4.305Y-3.275
X4.32Y-3.9
X4.325Y-3.25
X4.325Y-4.1
X4.325Y-4.175
X4.325Y-4.225
X4.325Y-4.35
X4.325Y-4.7
X4.33Y-4.525
X4.35Y-5.125
X4.35Y-5.17
X4.355Y-4.765
X4.385Y-3.875
X4.4Y-3.975
X4.405Y-3.24
X4.42Y-3.85
X4.425Y-4.835
X4.425Y-5.11
X4.45Y-4.1
X4.45Y-4.25
X4.45Y-4.92
X4.45Y-5.17
X4.455Y-3.825
X4.475Y-3.965
X4.49Y-3.8
X4.5Y-3.93
X4.5Y-4.15
X4.5Y-4.24
X4.5Y-4.45
X4.5Y-4.525
X4.525Y-3.775
X4.525Y-3.895
X4.535Y-4.92
X4.55Y-3.86
X4.55Y-4.125
X4.55Y-4.29
X4.55Y-4.45
X4.55Y-4.525
X4.55Y-5.17
X4.56Y-3.75
X4.575Y-3.825
X4.58Y-4.76
X4.585Y-3.675
X4.6Y-3.79
X4.6Y-4.17
X4.6Y-4.34
X4.6Y-4.45
X4.6Y-4.525
X4.61Y-3.74
X4.65Y-4.175
X4.65Y-4.275
X4.65Y-4.76
X4.65Y-5.17
X4.675Y-3.885
X4.675Y-3.975
X4.675Y-4.125
X4.675Y-4.225
X4.675Y-4.325
X4.675Y-4.425
X4.7Y-3.85
X4.7Y-3.925
X4.7Y-4.375
X4.7Y-4.465
X4.725Y-4.425
X4.725Y-4.86
X4.735Y-3.8
X4.75Y-3.86
X4.75Y-4.15
X4.75Y-4.2
X4.75Y-4.25
X4.75Y-4.315
X4.75Y-4.465
X4.75Y-4.6
X4.75Y-4.76
X4.75Y-5.17
X4.775Y-3.96
X4.8Y-4.26
X4.825Y-3.925
X4.825Y-4.45
X4.85Y-4.115
X4.85Y-4.95
X4.85Y-5.17
X4.875Y-3.97
X4.875Y-4.275
X4.875Y-4.47
X4.875Y-4.91
X4.875Y-5.01
X4.895Y-3.86
X4.895Y-4.6
X4.9Y-4.725
X4.91Y-4.175
X4.91Y-4.225
X4.925Y-4.86
X4.925Y-5.015
X4.94Y-5.09
X4.945Y-4.81
X4.95Y-4.4
X4.95Y-4.45
X4.95Y-5.17
X4.975Y-4.735
X4.98Y-3.94
X4.99Y-3.63
X4.995Y-4.86
X5.02Y-4.76
X5.045Y-5.01
X5.05Y-5.1
X5.05Y-5.17
X5.07Y-3.545
X5.07Y-3.85
X5.075Y-3.75
X5.075Y-4.4
X5.095Y-4.04
X5.095Y-4.09
X5.095Y-4.22
X5.095Y-4.275
X5.095Y-4.325
X5.095Y-4.45
X5.1Y-4.61
X5.115Y-3.78
X5.115Y-4.735
X5.115Y-4.875
X5.125Y-4.525
X5.145Y-3.97
X5.15Y-4.63
X5.15Y-5.17
X5.165Y-4.685
X5.17Y-4.015
X5.17Y-4.285
X5.175Y-4.36
X5.175Y-4.45
X5.175Y-4.525
X5.175Y-4.85
X5.185Y-4.065
X5.19Y-3.85
X5.195Y-4.175
X5.195Y-4.225
X5.2Y-3.58
X5.2Y-3.79
X5.2Y-4.025
X5.2Y-5.16
X5.225Y-3.89
X5.225Y-4.65
X5.25Y-4.15
X5.25Y-5.17
X5.265Y-4.665
X5.275Y-3.58
X5.275Y-3.75
X5.28Y-3.935
X5.29Y-4.9
X5.3Y-3.4
X5.3Y-4.27
X5.3Y-4.35
X5.3Y-4.425
X5.3Y-4.575
X5.3Y-4.815
X5.3Y-5.16
X5.31Y-3.835
X5.34Y-4.475
X5.35Y-3.4
X5.35Y-5.17
X5.365Y-4.66
X5.365Y-5.005
X5.375Y-4.55
X5.4Y-3.42
X5.4Y-4.45
X5.43Y-3.48
X5.43Y-3.67
X5.45Y-5.17
X5.5Y-3.58
X5.6Y-4.45
X5.6Y-4.95
X5.68Y-4.2
T2
X1.535Y-3.765
X1.535Y-3.915
X1.535Y-4.115
X1.535Y-4.315
X1.535Y-4.515
X1.535Y-4.715
X1.535Y-4.915
X1.535Y-5.115
X1.58Y-5.16
X1.635Y-4.015
X1.635Y-4.215
X1.635Y-4.415
X1.635Y-4.615
X1.635Y-4.815
X1.635Y-5.015
X1.665Y-3.82
X1.68Y-3.62
X1.735Y-3.765
X1.735Y-3.915
X1.735Y-4.115
X1.735Y-4.315
X1.735Y-4.515
X1.735Y-4.715
X1.735Y-4.915
X1.78Y-5.16
X1.8Y-3.5
X1.835Y-4.015
X1.835Y-4.815
X1.835Y-4.815
X1.855Y-3.645
X1.88Y-5.06
X1.92Y-3.38
X1.935Y-4.115
X1.975Y-3.325
X1.98Y-5.16
X2.0Y-3.5
X2.04Y-3.95
X2.05Y-4.665
X2.05Y-4.775
X2.085Y-4.0
X2.1Y-3.5
X2.1Y-4.125
X2.1Y-4.235
X2.115Y-3.185
X2.145Y-3.385
X2.15Y-3.9
X2.15Y-4.0
X2.15Y-4.125
X2.18Y-5.16
X2.195Y-3.95
X2.245Y-3.185
X2.245Y-3.485
X2.25Y-4.125
X2.345Y-3.285
X2.345Y-3.385
X2.38Y-4.76
X2.38Y-5.16
X2.4Y-3.5
X2.445Y-3.185
X2.445Y-3.36
X2.445Y-3.59
X2.48Y-4.86
X2.48Y-5.06
X2.5Y-4.3
X2.5Y-4.365
X2.545Y-3.485
X2.55Y-4.255
X2.55Y-4.41
X2.565Y-3.22
X2.565Y-3.36
X2.58Y-4.76
X2.58Y-5.16
X2.6Y-4.3
X2.6Y-4.365
X2.625Y-3.42
X2.645Y-3.185
X2.645Y-3.585
X2.68Y-4.86
X2.705Y-5.05
X2.725Y-3.95
X2.725Y-4.3
X2.725Y-4.6
X2.745Y-3.285
X2.745Y-3.485
X2.75Y-5.0
X2.75Y-5.1
X2.78Y-5.16
X2.805Y-3.4
X2.815Y-5.0
X2.815Y-5.1
X2.845Y-3.185
X2.85Y-3.35
X2.85Y-3.45
X2.85Y-3.575
X2.85Y-3.95
X2.85Y-4.6
X2.865Y-5.05
X2.9Y-3.55
X2.91Y-5.0
X2.91Y-5.1
X2.915Y-3.35
X2.915Y-3.45
X2.945Y-3.285
X2.96Y-3.4
X2.975Y-5.1
X3.0Y-4.7
X3.0Y-4.825
X3.03Y-3.505
X3.04Y-3.375
X3.045Y-3.185
X3.09Y-3.305
X3.09Y-3.445
X3.145Y-3.285
X3.15Y-3.575
X3.15Y-3.7
X3.2Y-4.7
X3.2Y-4.825
X3.21Y-3.305
X3.21Y-3.445
X3.245Y-3.185
X3.26Y-3.375
X3.3Y-3.55
X3.305Y-3.4
X3.345Y-3.285
X3.35Y-3.35
X3.35Y-3.45
X3.35Y-3.575
X3.35Y-3.7
X3.4Y-3.575
X3.4Y-3.7
X3.415Y-3.45
X3.42Y-3.35
X3.445Y-3.185
X3.45Y-4.7
X3.45Y-4.825
X3.475Y-3.4
X3.53Y-3.45
X3.535Y-3.35
X3.545Y-3.285
X3.55Y-3.55
X3.6Y-3.35
X3.6Y-3.45
X3.6Y-3.575
X3.6Y-3.7
X3.645Y-3.185
X3.645Y-3.4
X3.65Y-4.825
X3.745Y-3.285
X3.845Y-3.185
X3.85Y-4.0
X3.85Y-4.35
X3.85Y-4.65
X3.915Y-3.665
X3.94Y-3.4
X3.975Y-3.7
X3.975Y-4.0
X3.975Y-4.35
X3.975Y-4.65
X3.985Y-3.35
X3.985Y-3.45
X4.045Y-3.185
X4.05Y-3.35
X4.05Y-3.45
X4.095Y-3.4
X4.1Y-4.0
X4.1Y-4.065
X4.1Y-4.3
X4.1Y-4.365
X4.1Y-4.65
X4.1Y-4.715
X4.15Y-4.11
X4.15Y-4.41
X4.15Y-4.76
X4.2Y-4.0
X4.2Y-4.065
X4.2Y-4.3
X4.2Y-4.365
X4.2Y-4.65
X4.2Y-4.715
X4.245Y-3.185
X4.325Y-4.3
X4.355Y-3.285
X4.445Y-3.185
X4.45Y-3.355
X4.45Y-3.645
X4.45Y-4.3
X4.49Y-4.97
X4.49Y-5.05
X4.53Y-3.4
X4.53Y-3.6
X4.535Y-5.1
X4.545Y-3.285
X4.6Y-5.1
X4.645Y-3.185
X4.645Y-3.385
X4.645Y-3.585
X4.7Y-3.395
X4.7Y-3.55
X4.7Y-5.1
X4.745Y-3.275
X4.745Y-3.685
X4.75Y-3.44
X4.75Y-3.505
X4.765Y-5.1
X4.8Y-3.395
X4.8Y-3.55
X4.81Y-5.05
X4.845Y-3.185
X4.845Y-3.785
X5.045Y-3.185
X5.09Y-3.915
X5.14Y-3.375
X5.14Y-5.05
X5.145Y-3.285
X5.185Y-3.325
X5.185Y-5.0
X5.185Y-5.1
X5.245Y-3.185
X5.25Y-5.0
X5.25Y-5.1
X5.295Y-5.05
X5.315Y-4.2
X5.315Y-4.305
X5.345Y-3.285
X5.355Y-3.78
X5.4Y-3.73
X5.4Y-3.83
X5.445Y-3.185
X5.465Y-3.73
X5.465Y-3.83
X5.49Y-3.315
X5.51Y-3.78
X5.515Y-3.48
X5.55Y-4.665
X5.59Y-3.815
X5.6Y-4.055
X5.645Y-3.185
X5.645Y-5.16
X5.69Y-3.23
X5.69Y-3.32
X5.69Y-3.915
X5.69Y-4.1
X5.69Y-4.3
X5.69Y-4.515
X5.69Y-4.715
X5.69Y-4.915
X5.69Y-5.115
T3
X5.35Y-5.105
X5.5Y-3.41
X5.5Y-3.65
X5.67Y-3.755
T4
X2.235Y-3.245
X5.53Y-5.1
X1.595Y-3.885
X5.53Y-3.245
X1.695Y-5.1
T0
M30
